<mxfile host="app.diagrams.net" agent="Mozilla/5.0 (Windows NT 10.0; Win64; x64) AppleWebKit/537.36 (KHTML, like Gecko) Chrome/133.0.0.0 Safari/537.36 Edg/133.0.0.0" version="26.0.16">
  <diagram name="Page-1" id="cTkgLzLx9RgOi8kfq60G">
    <mxGraphModel dx="786" dy="455" grid="1" gridSize="10" guides="1" tooltips="1" connect="1" arrows="1" fold="1" page="1" pageScale="1" pageWidth="850" pageHeight="1100" math="0" shadow="0">
      <root>
        <mxCell id="0" />
        <mxCell id="1" parent="0" />
        <mxCell id="ra58XeEpIMUWKlB5J7gt-26" value="" style="group" vertex="1" connectable="0" parent="1">
          <mxGeometry x="100" y="70" width="535" height="334" as="geometry" />
        </mxCell>
        <mxCell id="TDeMeSc5tqtRhKriEZUa-4" value="&lt;img src=&quot;data:image/png;base64,iVBORw0KGgoAAAANSUhEUgAAAIsAAACICAYAAADXjRhRAAAAAXNSR0IArs4c6QAAAARnQU1BAACxjwv8YQUAAAAJcEhZcwAAFiUAABYlAUlSJPAAAFSPSURBVHherb1XjyXJcf79lD3e9Onu6Z7Z4RrRQoYEIQcIutGNLvRB9Dn4PfQ1BAm6EAQRJERAJGi0s6QWa7gz2zPT/nhb5r3Y+CVjir0k9cebQOGcU6cqTcSTEZGRkZlRXdf1q1evdHd3p7IsVde1oihSXdfhdxzHb/wXx3F4pq5rHQ4HlWWp/X6vqqq03W5VlqWqqgq/1+u1JKksS0nS/f29FouFhsOh5vO57u7ulKapDoeDXr16pc1mo7qutd/v1e/3dXNzo+vra/V6PY3HY7VarVAHSUqSRGmaqtvtajQaqdvtSpL2+72Kogh1WS6XiuNY3W5XaZrq5OREk8lE2+1Wq9VKeZ6rqipdXFyoLEt961vfUrvdVl3XyvM8vD+ZTLTf77VYLHQ4HDSfz3V9fa37+3slSaJOp6OyLFUUhZIkUZIkyvNcdV1rvV5rsVhov98rSRIVRaE4jjUcDtXtdhXHcXguSZJQ3/1+r81mo7IsFUWRkiTR4XDQdrvVfr9XXdfq9/uKokiz2ewNmh8OB61WK+33e0VRpPV6reVyGfjxu9KjR4/0+PFjJd/73ve+t1qttNvtAvPjOJYk1XWtqqoURdEbV1VV4f/dbheIstlstN/vtd1utVwutd1uVRRFqCwVPhwOiqJIWZZpu93q/v4+AG6z2YTvR0dHATDz+Vzr9Vq9Xk/9fl9xHId65nmuKIrUarU0HA7V7/fDPdpEnauqCuWnaarT01N95StfUV3Xurq6Ul3XarfbWq1WiqIo5B/HsZIkCXl1Oh31+31JUhzHqqpKu90u0DHP81Bemqbq9/sajUba7XahMwGKuq41Go00HA5DO7IsU13XyrJMrVZLZVnq9vZWd3d3gbbkQXsGg4GGw2EAEKBtt9tqtVpqt9saj8caDodqt9tv0BB++hRFkTqdjr7+9a9L0hdgWa/XoSc3gQIhYiddYP5utwsIrus6gGO322m5XIZeBag8AwBhVVVqtVpqtVqqqkpJkgRijcdjrVYrffbZZ7q8vNRoNFKv11OSJIGYNDCOYw0GA/V6PXU6HSVJIklBqmRZpizLwr3VahXA1Wq1tN1utVgswvP39/dBOq5Wq9CLN5uNdrtdeA7mQy8kDf/Hcax2u63BYKA0TbVarbRarUJb67pWt9sN0jJNU7Xbbe12O63Xa02nU81mM93f30uSsiwLUrSqKhVFoSiK1O12dXR0pHa7rcPhEPJP0zR8ZlmmwWAQwJ+mqXq9nrIsC50ZkFDWW2+9pTRN9dlnnymWFERwURSSiS16Hv9vNpuQUVEUWi6Xur291f39vZbLpe7u7nR/fx9Ea7vdVpIkqqpKpakoRGiv19N2u9V0OlUcx+r1emq324qiKAByuVzqxYsXurm50dXVlbIsU7fbDcSKTMrVpgYTE/NIlKIotN/vQ6Pj+AvVmWWZ2u220jTVfD7X/f297u7utFgs3ng2TVOlaRrqk+f5G6oPiQgji6LQaDQK0gagxXEcQFCWpdI0DXWnYwByGHo4HHR7e6vPPvtM6/U6PAvjaQuSKcsy9ft9tdttFUWh2tRRp9P5rXfrug60GgwGGo/HGgwGgV8+76OjIz169Ejz+VybzUZRXdf1xcWFrq6uRCqKQmmaBokA4mD6arXSbDbTbDZTkiTq9/taLBbBTkCvF0Wh9XqtsixDz4YpRVHo9evX2u/3yrJMURRptVppsVhoNpvp6upKt7e3qqpK4/E4MAIw0KCiKNRqtfTWW2+p0+mo1Wqp2+1qvV5rvV4HxlemDpAO2+1W2+1W4/FY5+fnofxer6fBYKCLiwsdDgfFcazxeKynT59qv9/r9vY2tAebpdPpqKoq9Xo97fd7XV1dabFYBKlxdHSkPM+13+81m810c3MTpC5qwYP8xYsXuri4ULvd1nA4VJIkwdaoTI3K1GOe55pMJup0OqrrWre3t9psNsrzPGgAAF6Z3RZFkQ6HgzKTztham80m8Ov4+Fjf/e539fLlSz179ky73e4LyYIaSMwQ82lvBuLhcND9/b2eP3+uX/7yl/rxj3+sH/3oR/rwww+1XC61Xq81n881nU6DlLm9vdV0OtXhcAgSoCxLvXz5UpeXl6GS19fX+vTTT/XRRx/pf//3f/XBBx/o9evXis3o6/V6wTikx/Ldi/vhcKiTkxPlea5er6fJZKJ+vx96lUxyyNRW5CRZlmVBPMdxrCzLgl2CWgPwSLba2UOohNjZL0iSVqsVgF2WZejxkbNP4jgOgEKSdjqdYPsgRWTSPTJ74ujoSKPRSHmeB/VIQqo0L9qYmOSXpF6vFyT348eP9ed//udKkkSff/65ttvtF/kxGrq+vg4MQAcnSaL5fK6qqrTZbPSjH/1I//Vf/6VPPvkk2Ce9Xk9//Md/rLOzM/V6PZVlqel0GgqQSRGIDahub2+DXYPoRPTTEAjd7XaDmoLxext5DYdDPX36VE+fPg1MRXKgAgETkhIpc39/ryiKdH5+rk6no+12q16vp16vp8vLy1CPfr+v09PToB62220AC6Oa3W6nJEl0dHQkmXQFhO12W91uV4vFQjc3N6rMJhqPx2q325Kk4XCo5XKpjz/+WMvlUqkZ32maar1ehw4nAzwd4ujoKNhc19fXQZoCZIAFoKEJ/N1ut9rtdtrv99rv9zo9PdWf/umfar1e61//9V91eXmp0kZMQQ1dX1+H3oFtASAWi4V++MMf6oc//KGurq6CajocDkrNIMPqlqTVaqXS7B5SnudBTbVarVDZ2BnURVEE+wj9ned56GF5nivLstBzoyjSkydP9K1vfSsYatvtNohYSWF0JTOqsQGiKNLd3Z2SJNH5+bna7bY2m406nY56vV5QFUVR6NGjR3r06JH2+72m06k2m00g/Hw+D7ZRmqY6OzvTYDAIBiq9vd1uq9fraTabKYoiLRaLAOLY7Jqbmxt98sknQWoMBgNJesMUaLVayvNc7XZb/X5ftQ1KtmageyBDW6SHnC3lQbXf73U4HDQej/X1r39dg8FAP/nJT/TjH/84GOMCLM+fP9fl5aWiKAqFynrH7e2t/uVf/kXPnj3TcrlUZLYClaBiu90uMFLGfBDdsmEbPTc34wrmxyb2GRKvVivd3d3p+vpa7Xb7DTAm5peIokjj8VhvvfWWzs7OQk+7v78Pw3PPDHoHdVubD2O/32symajVamm5XAYp8Pr1ax0OB+33ex0dHenx48eh4wDU2gzdqqreqOfZ2ZnKsgwG/9pGm+PxWJ1OJ0iL1Wql9XqtyWSi29tbffDBB9rtdsrzXKPRKNAYKYG0xY9UlqWSJAkjsN1up81mo6IoAj0j86kgUUqzYyqTrvzudrtBhU+nU718+VK//vWvg/EeRdEXYHn//fd1fX2tyDlzDoeDXrx4oR//+Mf6yU9+ou12qzzP9Q//8A/6i7/4C11cXOgnP/mJPvnkk1AJxKRMX1YmqdD9i8VCeZ6r3++HEQI2QW0iOzNjN01TLRYLrVarN4aNqY3QBoOBnjx5oqOjI52enqrVaunzzz/X1dWVVqvVF9Z7FKndbgdQjsfj0JsWi4VSG5mMx2OlNqzt9XohLwjZ7/f1+PHjoGILM6oBS8+G6zLn4NnZmbIs03Q61Wq1Cn6Ro6MjnZyc6GBGNhJJUrDXoigKdhY0LctSo9FILRuNjcdjRVGk+Xyu4XD4Rud+/fq10jTVcDgMdUJNog0SG4XVdR3cAmdnZzo/P9dms9GzZ8+CvXl9fR3eSb73ve997/nz57q5udFyudTl5aWurq70q1/9Sv/5n/+p999/X7U5qlqtlv7xH/9R3/nOd5Smqd555x09e/ZMMjWDfs6cLwAR2zNnGtIBYCGpEhtu52bIdrtdHR8fq9vtKoqioFdlxthkMtF4PNbJyYl6vZ5Wq5Xef/99vXz5MqgK9DDgT5JE3W5XBzO06TGMtBJzYnW7Xc3nc8kMy36/r+FwqNqMdGyFxAzdnvl+JAXpkue51uu1rq+vNZ/PVZvj7fz8XLkZrYnZQ7PZTK9evdLhcAjqBeYWZrCORiN99atf1XA4DKoEdUg9l8ul5vP5GyZBZCMfJKBMlWU2mpOkr33ta/rmN7+pJEl0eXmpi4sLrVYrxXEcykjT9IvRUFmWur6+1ieffKJf/vKX+sEPfqAf/OAH+vDDD1WWZdCR3W5XSZLohz/8oT744AN961vfCnYFzyAdAEzmHGGI0+VyGfwTiLtXr16FkVPbPKig+vj4WCcnJ0Gy+GF0r9fTfD7Xy5cv37ADErOH6Jnr9VpXV1daLpfa7/dKzZhGzPs6p2mq3IayqDAI3TUH2nA41GAwCGD24FutVrq9vdXt7a1ubm40m8202WyChKnrOozyNjZcRZWNx2N1u13lea4kSVSa7ddqtTQajfTNb35TT58+DdJXzpNemWe51+spMnsxcj6nwg00ahvFPX36VN/+9rd1fHysV69e6de//rXKsgymA9IsiqIvJMtPf/pT/eAHP9DPfvYz/exnPxNqCYYMBoPQW/7mb/5G7777roqi0PX1td5//31FUaTcDTsTG6IhWeIH3OE0krTb7XRzc6PpdKrBYKCTk5Pgq8jzPHhahzZ/0ul0NBwOtd1uA0Om06lqM+z4lLOtSvMT9Xo9yQF4MBgoy7JATJkjEgaUZalut6tWqxV6LZ3gYKOU2gzFoih0dXWly8tL7W2+praRnkyaLJfLoCIWi4XuzVuMCiRBwyzLdHJyorqudXZ2pvF4rLu7u1B3OsBgMAh1TM1PVte1NpuNNpuNEpPebZvrOjo60l//9V/ryZMn+uCDD/Tzn/88gLYyD3BsNqSkLyTLp59+qv/+7//WL37xCz1//lyZuYVTm5gDKDT4L//yL3V6eqp///d/V13XajkfTW6jl+FwqMlk8lu+jpYNhbvdblBN/O52u9rtdnrx4oWKogjOKpj93nvv6cmTJ6HBu91OV1dXKmwUBSBQM5WNWGRiWs79jyG/MBd/ZoY2kgYpQQ+mnW3z/ubm0U3NttiaF/z6+lrT6VRLc0yOzY1PR0El3tzc6Pb2NkiNo6MjTSYTVVWl/X6vOI7V6XT0+PFjvfXWW+r1eqrrWs+ePdPHH3+s8XgcbK29ec37/b4mk0lQhagiOk7HnJa73U6S9NWvflVnZ2e6v78PbgSeh9c4Bauq+kKy/NM//ZP++Z//WRsbMnc6ndBIRi+A4W//9m91cXGh//iP/1C73Q6zxUiQyOYpEOsQFIkDob3kQY2lphqKotBsNtPbb7+tttk4fZuIG4/HmkwmOhwOur6+Vse8pxi2iHmAA1hqk2J784QiGejRmQ276SDeZgFIPZuWqJ0jbjqdar1eB7UDnTqdTpBWSLAkScJweLVahXeHw2FgShRFYQg/Go00GAyCcXuwUcxqtVKapjo/P9f9/b1qp0aPj4+V2ZQB9D0cDhqYaz8zVX58fKxvfOMb2u12+ulPf6pf//rXoZ4H8/rCm7u7uy8ADMHkZhkZNdBgGInkmM1mOjs709///d8rslEPDOBChEG4yWQSJIVsZEPekelVRB+99dNPPw1SBNvAS7GTk5NA4Mrc4PSiwrzOMFxuOL/f71U6z21qkoP8kYyDwUBHR0cam/OM9tc2itiaH8r7XpA4tAmbA/rEcRxGJ0VR6P7+XrvdTv1+P6ihnk05tNttXV5e6qOPPtLHH38cpBagmc1myrJM5+fnOjo6UpqmevLkSTAbOm5uCNWS57n+6q/+Sk+ePAk2ynw+D3WsGjYf70ZR9AVYEDmZuZjRzy2zmj0QNubkuri40LNnz9QyHUsPRExTWGRifDKZ6Gtf+5ree++9oOIARmxSKTX9TJnb7VYvX77UcDjUaDRSp9MJxJako6MjnZ+f6+TkRCcnJ3r77bf19OlTPX78WO+++67+6I/+SG+//bbeeustvfXWW+G/NE21tSl8JBmiNzJRDKGoZ5ZlgfG+HluLJZEZv7SN0RvAgD48X7ph+M78NsfHx3r06JEmk4nu7u702WefBRXBEJfOVZuqvL+/13q91vHxsdI01YsXL1RVlY6PjyVTuwDv/Pxc7777rvb7vb7yla/ovffeCyo0N7uwa/E08ALe5Xn+BVgSN+wbjUaKbVrdqx8I9m//9m/6/ve/r1evXunnP/95IF5m0oQeyju5eW5RRx1zWtFoubkO6oKdlNh0Q2Q9HvUzn8+VuBlb7CMABZO9aqN+nU5HT548Ua/XC2DmUyZ9vDSAMf57ZjPgtI/RWbvd1n6/13K5VJZlQW0eHx8Hx19po8vIhrSUW5rxjb1ysOFuZENzpM54PFa/31dhnnaZAY8Rirq6tyAsJM6jR4/0d3/3d4qiSLe3t5rNZvqf//kfvXz5UplJ+MSkCDQDFwwAYgqT+Ur4A7HrCZ0kiV6+fBlmizfOLZ/aMDR2Q83IpApgkvlI+v1+mIlF98MIdDs9EUcRPXC/36vVaqlvjj3qNRgMNJlMdH5+rq985Ss6OzvT2dmZjo+P1XeTgQAXcMEEiJOalN2b0VhagFFsqmxvNk/PJt5Qkf7yoM1tlFiYIw81hcqN41jr9VqfffaZrq6uAigxXgFvWZZhSL41n0lhhnlqEnG73erzzz8PLofNZhPsm8lkorOzs2CX4sBUY5LS15m6QJ9YJqpkqIxMKiCG/RWbwYN6oufm5mNJGjPWPo/UhTy2zfHU7/cDEGEWlQS4/X5flRu95HmuIwvyoTcAMCQjaguxyrNts38ANSACyDCFOlQ2MpLzZextOJyZuiRPRnUd83PQQxkh4TJAknRs7icy2wb3PzQeDAah46G2GFExqgI01Dty4ZJ4vQFwlmX6/ve/r+VyqXfeeSfYTLGNAOmw8A1+AJg3JEvHjLrYejQM8ExMzb6IXOBNbBFqAwvg8YChoVS6Z86i1GaTYWrbQvzaNtnWtsiy8/NzxRZ6UJblGw41Ly1kE4a3t7e6vLzUq1evQjzMdDrV/f19GHmULi42t1FY7uaoZL0rNmkAfWDW1oxaudlfQEkvJyEVeIYeWtgUyPHxcRh1VmagV+YthQaou9JCTgHw2uJ19jYJuNlsAg3zPA9AyCzk4J133tGHH36oo6OjMLSPzNgHdPBYLryhMq0zHA6/AEtkcyhIBy/a+AQkXCAxd7PCSIrahpY0YrlcBv2MTm6Z1d8xq73b7arf7wfQ0VORFqmpuZXN+8gkIrp9tVqFeJrpdKqbmxvd3NxosVgEcTydTrVYLBRb701NhdJO7B/UBWqRjlHY6MZLso75LgAaaT6f6/Xr18HfUpufBjUPSFGDudkxu91OqUlr1JkHzMF8SHz36nljobGZzYMh2TY2T/btb39b3/jGN/T8+fPgYiA/2UAHeiBR4XcAiwdC6gzCZk+LnIoiI8StTI3xPoUVRaG5hS+u1+sgqlFJSJezszM9evQo/B7bZNnR0VEgdmIqbW8BQp9//rkuLi50d3cXgIvEQOIAfnrJZrMJzKInAQCkX2LGc27DfMCfOb8RebScx7XVamm9Xuv+/l6ff/65Xrx4EfwvRM8tLaKeetHp6HCxRfLTCVOz+XIbKCRu1p0OtN1uNZvNtLQgtINNmbTN03xxcaGPP/5Y3/3ud4NKA5hIPs9v+MwFn2MamTjdL2dvAKLYGXl1Y8RTWRhCYqMN3qMHt8xCn06napkfo2VeyydPnuj8/FzHx8dh1DA0J1Wv19NoNHoD/ZXFYtzc3Ojly5cBLM26IzlgSuaMdozXyI10+H2wmVnyi00dxSbi6Qg8h5iuTQLd3d3p+fPnIe4ncX6j29tbMWk7tQAxxD/1Rp1FNvvctSUrqE4P7tTMAlTU1lZV4N6gA+R5HgxbIggw1D3w4TF8hT7QPpYZW6DcvxCbNEFKkGo33wG6W2b0jkYjZU6NoUZg0uvXr5WZP6dlk2M4vRDTo9EoLNEAfHme63A46PXr13r58mXoQRiHd3d32llMDb0kNduoZW56mICRuLe5HM8IVNvOXOL06JZN6Zdm8wBggLO0APOLiwvN53MV5rvJskw9C8YuLXZXkl69eqVnz57p5uYm0IlnkCa9Xi84HqlnYc7LwqY4YGRinX273Wo+nwdJg8242Wx0cXERQFqaKoOfdIaOTRPQCQBjVVW/8eCWbohYmXVMrwM09FSARIrNQeXFI+8CHJ7fbDZqm0cQ6UADmJUFSEiCyIaF9EhAIrc0AiLFLn6WcgCOr8vKAqRKM1zpmYxa6G3+ou2V2WP06HuLN37+/HlYrEfnKyz4vW1GfGSjH8B4fX0dohSpW2xzSrFNMQBQeMRz0QMOxMjsQlTe3kZv0+lUv/jFL3Qw29HzMHajrsima6hH7SRsLCcpKDy10QYjjrb5EriHEyy3AGOYQMFq2Dk0BpUEEGEgxN/ZLC+E5d7l5aVevHih5XIZmFa7MMzKfBaRBQTJJELL/DEYzUhQiOoJQZ0rmx1n2N4cElOvlUW57fd73dtyEjoMdEDqpBaMlLoYY4aukjSbzXR5eRkAnJjf6PT0NDA/MnMAiUVeqP/c2VeFOeym06lev36t2Wymw+EQAroqG91Bs9ikCh2EIT24qJjclKW0EQHftyDlx48f6+zsTEdHRwE8HTNQ0af0dA+6yPkp6JEwarlc/lZPis3OoAzqNJvNgoqhARADYy21GJfj42MNzN0OwCFmbL2UoTo62vcyvnsA0ZbETU0geVELshALRL7c9Edt80iAgHwoH2asLCJw6wLdc/MNeaAgvWNnKrTM6MYuiWwSdWvxzPf392F2vjA1lptDtHYDESQXwJNTb3Vd/0ayxG6MzUM9Fy+Lx5PRymg00pEtQ6ASnvEQGFuEnkCjDxbfSi+ReXeJA83zXIvFQh999FGIa+F9vvct3PHk5ETHx8fBWUcZELQ2tYJ6Ozk50cBiPzKzbyAIbYdRlEVHon0A9ubmJqiUjs0ZpTar+/Tp0+Armk6nQd0D8shUNuXvXbxubGBlhJa6YW1ptkZhKytXFlQNs2kTEpsR2nQ6VW6jLEALPeXMEX7DQ74HyQKDuWQg4mGeadloBpHlh3OJLfHUlwy3yZsKUeHEhSAkxE4kie7u7t7oafROnh0Oh8pcKGdqYhkVBMM7bnUA33s2s4t+RjzXbl10YkNo34nkaLWz5bur1SpIsclkEkBbW+DR3patyMUmUw7faxeshfpNTBqfnZ2pY3HKPAedoCWqCnp6HnIVRRHAV5gmoEzqwnf/P/yL5VQQhbXMdxC5aXUyI3MqIBt6l2X5RjARz8j5OmLrlTCGBkU2TBxakHGr1dJ8Pg9AodK9Xi94S9vmR4jdqAfQkLa2e0PdUIWJC9Lq2xwT0g5mekD7DkR9Di6udW/Rd6enpzo/P9d4PFZiHWhnsbS8U9d1KJe8Y5MG/K4t9BTpeHp6+oYHODDPMdKrkNSkOM/yPbaBCHykTc18kPjUhSuW08sUhp4nkSkZ0WgYgITZ2podKhK7CSpEPvmA4rIsA+MpdzabaT6f62B+jLa5vvvmIYZQqVvYXVqcLbG9d3d3ms1mWtgKgfV6rcJNvHmC52Y/lKYa4kaHgD6lG5Wgemm7LKi67WZt+Y86rmy3Cpn7fDKZBHVIuamNJFe2HIZ6Hh8fByMZJkbWmRMn0akrF/zJbTBybYsJ4V3ibBK5MNFutxt4RL6xrOcnDUdabFY/PQzRVJiBxP3IpBGMJA8+aSwMkvOIxm6YC5AO5rwDKD3bjwXDNXFu9sR8N6iD+XyuxWLxxrwJAN/bSIUeCMF9+2GwBznMof2VC9DKzIcyGAxUmX0A4GlzlmUaDoc6PT3VeDxWboZlZi754+PjMMqibZV5mq+uroJ6GduaI+qOZIbm3rgWzG042Arb0ADawjs5NQR9JpNJABF8C5KF3gRYIpMmiGePMjlRzH3fC/n0BIPA3AMwgCy3uZjFYhHE7XA41NnZWVCLuRnbqI35fK6bmxvd3d2FkQC92YtsQJBa0BOSDYLJ2WNIBjmD79Dw6/Bc20ZVEHltm+cUFk2/2Wy0sFWCeZ4HQxwjPrGQCeycvgXIA/CZLRGhHX2LpgOMJHxDapgHPtG+LMtC7C91AAykJEk0mUxCp4GnoUQKgbmgUm5YBVHIQEbQ2ownKunRrIbTCCDyDkPxLMu02+2CU6tlgT5Di01tWaB3bOtjrq6udHNzo5XtZgRoM/Pgpk4VtMyLS9kw3xOVXuoBXdm8y8biaWiDBx8SJbYREstNmNhcWrjA69evdXt7q7quNZlMwnqn3GakifjLLBqRCcCXL18G1XB2dqaTk5NQ38SMXGy7yqQfIPcAik2KyyY5sfvixgiWq2srHis/HSETtXljbM2D/KZyTRTSizAkfeHNitCTAdt4PFZtBt9isdCLFy8CYDu2zVbm9mXZ25YXV1dX2ro1vehrelzttjijzvRO6oERB3H5nw7BO6Sqsb6IdiXmYkhtBeXl5aW2221oM+XXJkmn06levXqlwoKhqA80qS1uZm1rsrMseyNGNnHRbJHrsCTukSf3uE+HQGKWjTXppYub8fcFWGi0JxaV8QVSqdhGR9gL+AZ4jncgOPd4T6ZSRha1DgAjE41pY+Ks2+0GkXxv0ezkmThnX+FsisyFCnqwwjg6g7dlsHGoJ6BFAmTmZCPtLJwgsmW/GLCz2Uy1dQLAm9qIDVBuLaxiZztibW1y73A4BGlYm6F7cXERQDqZTHR6ehroFbmVCkgBf8kkiwdMXddBYkEXMMAzm81GIwuR4N3fKD6X6KlUgl7hAbXb7UL8CGKQAnk+MpG/dguzIVzP5jz6/X4wRon1oOy2bXk1tcVjXgrApNhUBkzInWe2dHNeAMgThP8Bsozgmdkl6PjMzTXF5qrfWCAS4CDcEWP6YD4h2gPwkyTRzqY1oM3G4lAAU27D+k6nE/6PTKqgPqAxvIL+0CRxGqDZYWQ8HlggN7wBNOQ7sGUr5PcGWDDcqBhEhPAUlNhQbW7bTdDbYAIVlqS12xWRBsZxrJELaELnp7ZgqjJ3NEyAMfRuUmx6OLLe1bOgqfF4rNPTUz169Einp6ca2WY39DCATH2QmKTM2WwADEB6etSmAvGl8Bk51zyMip0PBGlMuaUZxzvbQSF3zsTMpNmt7YIVuZHPwbzg0Bua0y74xT34hMmBkU4daBPfR6NRyCeOzSknsz0gOAWTOQ8DhrXFi3pQeaBELk4iNkcQDK/c0BMRhyoqzG8Rx7Hubb+2g03E5TbKAcyxrWsa2m5PI9uGgnrSaMCHgYxKgYkQVg2bJ3H2WWxA9gDzQClN7/MeDJ3P5yptEVvasH9WtocN9sfGJv42FpwFXSeTiZIk0c3NTZAiHVvbVZlB26y7B4YcT2pn6EZRpFevXmm32wWJWZv0rky6ggXaG8BSWc/t254eXBQG4yMXIAQxeS5uTL7F1jsrsw24j4+E/0kQDqBgZNVulJaZwcuIYmhbmeKJ9WCInH+E+qQ2yUgPpk2+zpTJxT3fRjkGUS6qqmPB2Ei6o6OjMJynV/N+am6EwuZ5rq+vQ2B6YmqVqEEZbcmzdstWYCqJ9ugBV35knfn+/l6xxTjTYekMBzN+2y5MJPYZgzqIQyH8Tt0GfhTqCdy8IEhkYjsyAxZPJKOBgzPqFouFbm9vtVqtVJvEAlCtVitE1PUsdpXyYdpoNHpjYnFs62yoT9XYPhXVEnpPQ6ryu0knGAlA+jZb3rd5q7abQEWsVybhcDJGFqdTmFu/tKB0Fvr7GXT8K5RJJyRfX3fq6n9DS88X2uH5Rz02tpi+bxssRYAlNn1KBciQngWRU9uxiBCDujHRCCqpGESPDHioLgjQt2UesfX4pW3FgdqSNRrd2rawg565z2MHbsr3oxt6B8DMzYEWG7CagGm2gbr79vn/KT8zYxzAQ5PEXBD4grA1kIapG8HBrNrmhS4vLyWbiff1RxryjudRaqoS2lN3/923o3Z74vn35Oyhnq3IqHykHD0EY7NZkdicTnsbXnKvmTyBeZfv9KCRBWiPbSeAbrerlcVzlM4dL1NNLbM3MpsDqp1NEbkRF46wu7s7TadTzedzzefzYB8g3XgXJnQsMJpEGR40/ObyDEKitW2UUte1erbh0NHRkYYWU4xIh0Z0GiQk91FJr169UmIjIKQK7U3NjqudivZg4YL2zfbI7NSbmxvt9/s3TAPqUtm8nLBbZUzv2Xodel7tAnWpEPMuzQpxUQnfS2M3L5SYQ+ndd98NYHn69KkStysmlc3dTlIQAcbEJirXtgP1ymI6ADpAoBcy1EXkA5zK7e5N/QBg5UIKPNF5LzI7rtvtamiL6L0U8FIQlYn0RprEZqQzhI1crM/BdsacTqdK3BBcJrHapprk1i9BJ2jYrPvB7SVD+3CmQgPeTUwq5m5b+VhuNyMYUdlEFpIARm1to2FAoQeISca1U0WJU1Xj8Tg0sjL7gRELoGKU07HtNCifuhU29Q94K7Pe22bVy/sG7DfSAvG6N1+IV1WAC1DA1Mp5fPPGDlcwW2ZT0bbtdqu7uztdXFzo4uJCL1++1J3tu7+3tVPULbNA966b6Y3Mznv58qWWttUpNMpc9D/SRa5T+3aQPEhoM/978Pp6AdyuRUTGMm9dZKMUmAEjYzfBBnAAB98hLhWK3VATwERRpMlkou985zvquM2ASxtaIsIBLsQhTyTJcrnU0pY7AEgaClHkrH6IBtOpL0DBxuE/6gQdNraN18Htao3qyswHAlF5jw4VO083huvV1VWYM0JyR+Y+YMSUul2biqLQ5eWlCnMr8D98Sc2Arpznnc7ZbDP3KJP7t7YnMSBMXNjCer0Os+Wx3BpnejgZQug8z/Xq1asQ3hg1Iv0pHFAg6pupbXEptTNEAWW/39fx8bE6Fn+LaE1sW63lchlmcGE0dSnNmF1baIIHwsFNx1Ovyh3QQD0gPmqidKsdIhc3gkSRMxwL5+uAoTDHM1hm45RlqdevX+vKTiFJ3fQGkpd3Ilu/PJvNJCeNkWC8C8+SB+bx+A+eeJUW28Ts4XB4Q5K3LKCtruswSx7LgnZyC46RWcIwQ8bkpc2kwiA5HU6hgEvO91KaOM/c1qKMpiAyKCdPVEpie7xOp9Pgyd3YAqrMzSyj78mLOiIZPQEpo7CVAQe3t/3GQiABRuSci+Tl79E+3zFiN0ICXC036krNSx3ZxsmoGd4b2AZCfdsQGcCw62Vk9lxuNgp18uUDlMStgqBD0f7KjWZ9h4Du1F3OrIhlw7OWxYjQ02B6Yj2tWRnPXH/P36eggxmevV5PVVUF694zNTLJhIpaW5Dx2iLckAKe6bHzj3iQoTZhmCdIZWoBCRoI4VQsKqHtNkJumSFcN6QijKA+nh7+8oBL3Lrl+Xyuy8tLbexwBv7HMCYlNghA/dYm8QEM9yo3KahGp63MtqPNkfM6L23pK34VEmDNMttFAZXiiceVpqk++uij4O2jcP9dBg4YTmEePHwWbsUfzxcuRDGzk0MWtqAdNUKvhDgk3unZMo+xO0HEA6dlxjsE8vdbDR8GbfGgzNyCcZiC1IwavT1pBFzFzo9VWtgFHfNwOGg2m+n6+lpb240qMunVsz1gYtsehPJiswmHFrAOXSvnwVWD/vwHfzxQKjtLYLlchvJ4H74MBoPfDJ3jxkpEGYhGo1EQ1xDKg8QXTiNiNxJJbPeh09NT7W2Nsa/4zhZbYXGv7BgZhsKecc1yGYl0bQ1TU6rkLgYWP5IHCe80GQ0YPC084blHPRIX5wo9Ujc9AdGRRDCJvGJbIXl5ean1eh2A1bbhMW2RLUhb2T4u0IR6NcHh2/CQuQDfZJIHienpAA/G4/FvwNJkBA3mAom+UjzjgeEJx39923KzZeGRPJckie5t05k8z4O/BDBRYa7ULR6D4agtT7hm3SE2agWmZg1HFs9TN5Kvg28/7wCKvLFiALC2zX+FVPXSAVpXdn4jHuzExeScnJyEPAghzSyysOWOyPM8BCCAJXKjHAzX2joF7cCQpuPC89pGqUGeUxCZkvHz58/fGKaSAc/xHmBJTfxC7JaNMCLTex9++GGIvL+8vNRsNlNhi9sXdmBBbagnwYCuLSPt28Rh7mKFfd2pS9aIX+Fe5NRlEzDcp/3VA34J/2zmYl9aboMi6tt3u1DCWLm9UJqgXCwWurMtRKDZxB0+RSwMPDi2rUybvCE/EnTBxgIEnpeAtec2ZaLMJLF4FgqPnYQB1Z9//nnww5Agoi+QRB6IwI7bHrwoCn344Yf6/PPP9fLlyxBeuHM7b3vVk5rexl3ueyISwI9GACqXZ1DiDF1AzSf5UmfaCgOQCr690AupAvMxhlGFPJfbwjZsKS+BqJcs+m5lS1cy52ikjNj201+tVurY7lEwG7B4PvAf+aeNoTb0lNk9Ww6icnluLUw0lg2VCzfigRgQD3Hme5cHiQeLR3Vl7vSjo6PgxOp2u7q9vQ3T8IU73yhxy0a7ttkPKC9dhFzt4i4oB0MYApEglK9XbkaxlyjNd6KG25wyoAXE5ErdPA/ghAm186xih9A+wJO4YLPKYnVTCymlHn6kuLO9cyk/dnaIGlKWKzJDnNEgz3ElFsV3bztdkhfvBsnykAPr+fPn2ptrGmLCIJ+axPb3eRaC93o97WwfldLtExfZ7PLA9mfBhQ4oqTySJ3FxMqgwJg4Xtt0EYZ8rF+NK+2KTTkihJkAgfOyGunQYOo0HChKGtgJs7rdsRweA2rH4XO77Hl/ahOf19XUwOGFmyzZGQjUw5M7cdmfwwjM8suW2W7cnnudrZCqvsMnFjtuUKTwvp3IgIKOHly9fhl4PEmWAQfdBYC7/TNsmAQGcbGvQzMb6Pn43M4eUd/XLgQxiZRblf2OHgnuD0EsKueE8kmjtNuyTcxmkDTUkE8leevGbdgAWgOZT6Y4y3rtTzrxtgy0zsJWWSBkPYtkZQkhkmf0mO0T9YM5Jb7d4sHmwR+bpXi6XoY50RDk6b22fHNrmaRPLDd9St8dKy/ZHa6oeXwmfQCmMKm3tDwE8Po9OpxM2B0S9YAQm7phf6gPiMYpvb2+DlGjWid4EuGAkRCxML9NbyMO/W7hFYhu3yU/ldpJMnLQBzHLrq5FqhEss7Tjj7XarzGJwYEbiRoxDt/PlaDTSX/7lX+rP/uzP9PTpU7XtKF7oiSo/PT0Nnd1LJy8dS4ur2bjwVtpOqk2lF2ZHpiYdoVMspy5oQG07BdXmrfToI1N6T+UmHEEhz3sdDvgS80ReXV1pY1tLoItTF5fBrHNp25bf2dnL9FTKI2+IRR2pJ3WBMLXbQqNy0guw8L5vC3XEaOW5yvXEmW3LhbrbuqkEue0xpnY62NIWvtcNY54QzDRN9Sd/8idBanDSGG3ObGv3XuNMbCS+B4pMor9+/Vq12WyeTiSkSWlzV2iG2rYfi2WEBwCZ6d3Ly0vVNmwiNaUMCPZE5z49O3Y7BJQWH3F3dxfyAExyw0kqiRhnziZy64ogMISjDABDPSGK702+t/DpiUsduubsa7llrbQLsO3Mqbi3sAfK8PRAhVGXw+EQhsilW+SVu61ARqNRWEK6tuUgjx490sg2ZITOsTk2KZe8Imd/+XbTyT2voBUd5mBH3ACqBONblrjZs4BnFnOVLlCodkNGGOMJTQXR7ZmbOa5MAs1td4TMbcwHcRNTPQebM8HdHzspAtJrZzN4sHhi8b10Uf5ctIverYY6Ju+28/AivXgWYnOhAjyYUHe5m32OLNoNb3VskotyW7bPS25hoMPhUMe2wTLStrajCGkjo0bqBy/gYavV0uPHj8M9AEDbSdCttDjcxHuaZcSM3DQ8RKAiiExeAlgUDGB4vqnfIXJqEeWygKt2ux0aDvDwMwAUOUJTcd6BIGljvoj7NJreTzupL/f4DdPJw+cFAGQqhf884HbmK3qIEdSH9/m/tO28Suca6NrpIrSJesstP61NKlMP5ongmy+P8gEwoPT1i5yjEUDP5/NQJzEagvBti8G9urp6ozBGEZ5Isdk3uYvUit1GPVSKgiNz7my32xCwfLCYE97D3U859G4IRF7UN2n4N7xh7BsJGL2KIx8A4+tN/iSeJS8ARVmJG23wLqMe6kAn2Noa7ciNXLBl9jZSRCKTFnZ4OC4HL+EAAbtDUVdPI0B0e3sbOqDvINCnCejb29tAsxinHA927QAoIssBRe1iPbjvKwJjYtOfNMRLn8iCeHJbCkKDUlM7SwtwwkZK3drgyOwTJAy2BGD1YMkb20hQT/8czOXTEwli872Z/POxWyWQmpoEgICYHgwoE3fKWexm3Ld2kAWuCjlVR4cpLVqQcgubEU5NGrXd6kLq6sHCoj2fNwD3if/mdmpsAKacmxwduLTgJIge26wo4pIewWgoN926tSGmGpOFkduSczweqzTRDdGmdhgDdgXvA6aWW3PcdrtAMYoCvHLA9yomMhXbcmEKvs0wzoOG5H9DVJ6NnbTKzNGWm1e6cHsCQ8OOrSQc2YJz5o+g0db2+l3ZgnkAidFbFIVev34dmFiZh7y20YqXmHwySChsIx9UCzTzbaZ91Odg0YeUFYbOMJx5ICSFJz7qiIzJvLY5nbmtfaaB5FHbWhgIW1jkXGbbSTCBiDpoMhkpQsP8J/nXjVlWGkzjkYCR622eSLQFIvIfybeVK3aqGAnTtnkfQMJ/qTPM5dwKLRf1LxP/TLTWxvS9xfDKhsCvXr3SfD4PPKOt1Imrsq3rp3YiysFGYRtbkwXtoJlc+6HnG3jgpdxCBK6urpQ4r2bsJt7mtgbHZ4yUqdz63di2mep2u6pNBO/3e00mE6XOiJvZ1l6V2Qp7513N3crF2IUcwBykARKoKUG8avASiHu8gySDQJ6hnnD+grgAL2+c7sHcDyBP3OlspRmrqEzaIgfq/X6vi4uLYKfUzjcU2/kAy+VSR0dHiuwQc0BVuC1maStCQAbG58+fB3rBP9pDewEhB2Ylic06F0Whth3ZxulWnogeqTie5HobjEZXVu7gB+558PV6vdBbqBSMyC0mBIbmLtQwM+Muc7PIvq4QFKkFsSBy4mwVfscmpWgLdWwCBjpAYP+bd8gv9vvdW0fsWrgC7SndaRzUFfBWNhXy7NmzIKkPh0M4VX5kRxNCMwBB2T4faODbgVcagEBD8osNaJVJJspKvve9733v448/1nQ61Ww204sXLwLxIAapMoTSUyB8Yd5Jz6iRbaxcmO+h1WoFdB/swIaD+VDaNhPrpQHleQZwr2jscxeZfqVnVTYER/R6QgAwDxRfJnkDfnoZzH8okQ9MkbURoADsxKYyMrf0lrwpt3AxvUtbPpJlma6urvTpp59qYSssJKlvW83XNgC5uroKecg6j2ypDzt40s7dbqeRBer7BJ0jN7qbTCZf/CcX47B3+/AjCXwGMp2JaIRIRVGEeR5ZwBPvwUgY1e/3dX9/r8K5uhHflEtCpRUWxsC1tbkdCI1oBxCFm/+hXRDRS0BS7KSCTGJSv9KFG1IfaAMAADVSsWUThdCybUNPnvcgAjix9V6kNsy6vLzUr371K71+/Tr4i1BxS1sVcDCPbOqOl0mczSbnq+H+1HYE5TcdKjJJSR0qd450LEPozuIYeBhGc9HYwm0B7pkBcauq0vn5uTqdjnYW9pdbDEVi8RJ7t2FP1+I1qKxPpZ3RM7cNlAEBw3gPGi+FAAaMhWieKACtmTxweAYich+ayCSUTJJsbZ5o7tZYFzaMzs0fVZqEQppxIXEOhy+W4ZAqd8B5arYeuzDEps5SO13VMxkQl+aUXCwWb/CxMlVHx+c9vnva4UqJZV7B1Wql2Wz2Rs+uXDCRL2iz2QTDtHTT3oCMoSGEpiJpmmpqa3e75qVk6OfL2tjGNltz4gEwAOKHg7zLVZpIl3OawWDqR9vknGyR82Cn7sTY1A3dyYv8eL92qxLpQIB6uVxqaov0927LdD6RLrgEhnZOJXSr3RlCtVuTzLVzp5FRF96HHqhV6EuZNzc3QTp5mvAc31cWFx3LVAsufQgip0Y8IxOL1WQSbGd7qpF5xXEjznFU2FB5azOyTMfnbgsMRDU9czabaWMuf1QfxrUnBD0VJkIwz0gPEg+uorHmBwbEZk8g7hm5ABjy8PWgDonN7cSmPumES1ukh/uBd6BpbqOoyWSi4+NjxW5dt2w70sJUUGaGfmQbH9YWrlDbgCAx1QIg4Qv8RKotba1QZB0JesFL6AafY1kMRul2aaQgjy4aFVsM6MY8jRsL5vYVhKGpmzmO41iLxeKNXkuZgIZot72FRdBrYCqE83XzjYOBNBIi+It3PNAi51cgf4jlpQn0adapdIYw72VuCUjhloFsbCNl1BRMhFHYO30Lt4TZAKKyoDLqTAdH0sMH6kHetBO6IN3WFqJJoh7+/SRJvhgVySzjwnQ8D/oEkeU8qxBqtVq9Ib4xblMzmnc2qYiUwPdAw9rmol4sFiHqDbD4SpcP7FLp61WYGgAsPEuCgBCZvD3ouMjfg6Fyqo536XHcP7gRWm4+FO5jp9XWCe7u7kIwFHXn3cp2Hh/aOZHkh4ONOiYWJVBZRyP/5lUZUGkXKTWzYG4HetEOOjHPZ+ZljyUFIxLJATHkiCnnV+He1gw6j2TEYK/XC88nFpqQmzezst7UtV2c8TDKKgxz6NW1m1upTYphOPtGAZDMjEbejZwkip2/hfKoJ8T1gKJM/icPTxdfZ/9c6ra/AFgYr6WNshaNE1m5Kltq2rGgq9RGVZvNRrvd7rdcF2VZBhVF8h2hasS68O7KHX0cNfY69jRaLpe/AQuhAxCKF3g4dmIYIm4tGix1C7Mg0MA2qJGk1Wql5XKpXq8XehKg2ltwk5duiPDI7S9P5XMXIY+obrtApZ5FjmGUUid+o+9zt0kNxCzddAPEbBKNCzB5acczMC+16Le2C8PkvcLtTA5goAvD78wty6UthU27II22Novd6XT09ttvq21bl/j6+jbBYzqTzA+zswlg7vEcNCjL8guw4J72iINIHiSABntjbWtbeN4Tcr/fB0ZvbH6BRrRtdd3SPLj0OhpVNOJIWxbLy/oh36sAAFczAWI1VBHtAijc5/IdBgaT+E3e0IpyeI//+C4bTNB76XQyNbqwzYkSd+RxZoHsI9s3WJKmdtB52+KBkNinp6fquF29qy+xPwFEbNJ4Y+uQaCN8oM50iJiXfMNpPETxPUrGAEZBSWOaP4oiDexIlZ0tPYjsMO/dbqeORafjq9k2nFAQr91uB2AMbAsuP4QFHC23xXnk5joAmicU7aFXch9w8rxntCc2ZVBfaBS57SpaLlTCSxzyQw11ba4ocf6Qg4Vq7Pd7dd30QGbH0BD9T8eKbbBBvUa2vb2vm+ehb4ucIc7o0/MdetDWAJbIMfuh3yDVExPw8FzilmL0bDF3ZN7Z1JaD8D6GrCc0V9f2aOtZmCBlIMFQKV491c6b7K/YAZ92JG7ikfLl7AzSQ/n5Z/3v2I2aKBfwtF2QN59bOwGNNsfOptnZNMV+v38DfLXb+SFyG/xAo8TtVRc556NvG/X1tOG9rY2IaVttUo/nJHPK+dQk0kPELd3RaGRGgyvnnfRoxh6Zz+fB0KNyiR1Ny9mCmdtQj/Jjd5ysTFQWNiyl3NKFh9Ij+fSMIV9P3NqpGhjH6Ir2U5YHFr0aIHTdonLuA27mclDDSBmAhOTc21lDGzsDGyCmaRp2v5zZNh0MEvr9fjCUAUMTND55viWmKVa2OwOXzyeOG5Fy/OFT6fQrzwIWnxmVjMzjh7EGE3NbYnB3dxeIFJnk6dsiq64FAvEfzKZMfBQ451BzW/OW7syns7btwnjmYJ5Vyk0ba6IzU21yc1+8t7ehfNlYiQi9ajNym8RvfgKWrjn5kAiolKwx8qlsOHyw09Eym4WnI+7Nmw2t+v1+qCvJ8wf+wSM5vqfmD8OxF5skob0RdqzPmMQD9CgvVegRVWOYCBHHtqc8EkZOTOOIohJY/RAJQw1mJjZaWlrIJSDZ2kIuDxAYCjgPNseyt9EWAEJa0JsBJOXWbv6GvGgr7ySNOF8Y4Imfud0aAI3caSd0jJaFiXoakGfR2KcWkKRpqsFgEEZDgBXJR7nwBd55oMh4Tps2NsUCb/y78DDYLM2MeEhOusS2hmVrq+r9uxDl9PQ0jPcrE/Fti5XBNV2Y17HTCDDObKjYtsBx3NFbt3Br72wdek2zDqkLFCJ/DySISpt4F+YnbvkDQJEbFUBkwFGa2kKSVc71DzMiF1rKvbYZ8cylkTd1qC30AIdbYuqiKAr1bMnOfD5XbIYu9OZq1j9qaA3uJaZK6XheonjaPihZ4saQErTWNqlVmDfQMw3CYMEnbtmBbG0uDaI38y5lwoDKgm7wJ3i7pHDrcLBhyIc6fdlFqkw6ci8yBiERWi7SjnvUGYBAHyTYxiYNt+Z7Qtod3M4L0BG6IFFQh20ziAFTaQbmfD7X9fV1kCqlC/xm8vdgu00yGvJt49PTKQDAScPSVhrUbkjv84nlxtU+c77T0NoF/5KaDOC5xFa10ajNZhM2qEHtAIDERHFkc0pIE9B9cMe0wEgA4hviiUKduefrCXAoH4ZAPEABI7no7fR+8qTNnm6lSRoAv7IAbA/6yIVWUjZgoT7kv1gs9OrVK93d3antdtYGzJQ/tNM9ALIeoM1D9yKTLjsLU4FG0Ie2xpKChe0z5DvMT+y8ZXSkL4RnSzNC6RUAaGX7ww1sl4S9W4OEQbfdbjWzY2Ng5tbsE8Q3PcBLIA8EEo0leeJAgMLNJZUuwOkh5tMOJKrvnZ4piHPqinRFwqCKMZ6pI1KFPKEJdFnaEpmbmxut12u1bI/aKIr06NEj7WwisG0ecznt8BB9hKSwdtAJ9nZG0kPvxKih9957T0+fPn2DqGr0GoBQme70iXciGwkBJllQ0M7mMugRWeMYuaVN35MQ6zSIhlfON6GG8eaB4yXAQwnme1BUpiZk7fBSgFS4QC//XzMfgNKURqVbSAddsHGgPSBJTf0Bqtq84uwHjFE+HA7f6JgHN9J8iOnNRLkAh87Efz7FkvTBBx/o448/foPovMhL6LLMRdXHbu6IQgGTN2ojO2kVCeUlFYcxYbhio2Q26pAb6kJAbKLc5lEYjtIjW24hO2DzYEJC+frTZkApB0beo318R9VyATgPcAjuwbi3ER72jWcwqTQVjWrhP7YgRTVC+zzPtTVnH6nZHu41QSBHk4pJQ2uDHB1iWY+hIfwBAfg9nU5V2CiG1GxcbDqf3re2WImxHRWD7RHbUXjz+TwYsZ5hXKXZKfSih1zk1A/wAih+Y+dg/Pme6xmoBmg8Ubnvr6oxSefz8c948FTO4w19kFYbO1ijNmCSH/NhuTvrgFn6VqulvYWrRubVLRvxyORHu0jRA8ZuYpOdDKF5jvaHobN/kUpR2M68e/UDbnVfoeFwqNPTU0U2DFtb2EHLIuYi1wOmtrZ3b0NiyqNipTnykBxdt9AMECDlqJNnPswMDW0M9am7H63QjuZzakgZwBG5xXgk/vd58B5gAeyVi3Vh8LCxwLLYJFNZlhrbAaEYxLPZTPf39+r3+2/UF4nAAMDXvZn43/MzsYHJdDpV1VCxEaMhTwgS30Fa5JY6UAgXaoctIVILfIottJJn+nb83NwOmqxtKI5RS+NyW2Dmww08E2InQTxYyMO3hTzllkZ45skBiwThmgDjHZ6FMUgy/qcevm6eXtzb2EqFgzk5sdWgXeyM1NjWWyFpY5uUzMyf1ev1VBSFTk5O1LFtUH3dKZPvPvn78MTTOjIpHyQLl4x4PiOGU6kbNsbGMP/uycmJarM7iAJDtLXNa3l9fa2DW5YBcWtTJW23/DN2E5ZykfQ8X7pRjbcfqGtmbnz/Hm0kj8rtq0Liv8iNcLgeAkPi5na87wQQkYeMtl7dFGajHdxpbFvzUMuNFiOboCXfuq41m82U2ebJjKiePn2qnkXPkZr85bP5P+2IzUyAPtQ1gKXJAB7Yu1PU6W1UhEZANAyx2k46X9vBUfy/ttlUAEBlosbe95GzymlY5hZHYRMxBEV8r20KAGlFj5WLa/GMo4fRdg88ytmZf8SD1qdASOejgU6ZeWnx1SAZ6ECRmz5Z2cY+tIHyZWqcfAm3jMzA9imzDZaRNp7OzeQB48GCXYf09wAL8ggm+wKKotD19bVqFzXun4fwEB1DLHKRWICoLMsQunmwWBLeZSQDEEvnuIJQpXN0QUxAje3jGY3uBzz8Lxdb8hBAvZTyoKFOAIvEd4haOUkFHXK3TTs2GAa33N4tSJWdDak3tuRmZ5sBytZ4nZycqGXhqaVF5AFkL/399fsSPIxt+uL6+jpI6ZgwEDlrXw3xvDVDFKbLEYWe438zPC5s6IsqiNw2HnLMSm2Yy1xSbeKd91rurGG8oagvr3aoP/lSp9o53BDxiFfAjlgHvJ4ePMfv2ElX3ue9prrzeXDJen/ilrECpto6Z2SDg5XFxvpAdsAN+OiAlQ13E4uVIR/45tvWTP4/vh9sRww6YwCSGsSBoaU54eTQ6hMiC2kgd6iV/15ZZP/CVsSlNieSWgBy2x2GBMFbdtYgUgjCHdwiroObf1EDxGoMgz3BShe2Wbk9aKgbwKmc7wiiJ424k9QNwSkrNVsLIPAMwOUTsNNZkHCJdTakC+3fbrdBGpU2UoxsY+XNZqOZnQONZIIWHgj+k+++fb6dsRnQpRvZxWrMMUCkwraJ4mUK8b2EwngP6ZGYNADpt7e3Kt1Qs+PiNrh8AgRLOwuREUKTiEgW6uHr6BPl0vMBCv8ljY0MvY0Qm7rKTK1SjqdJaasymz4jyqKOdCz+I4/IjFc83NC8NrcFl5z9At1QV7U7Pq+wqRSkrho08fSiDR4sqXWarTn5AEyQLHu3drg2O2Br80CITjIGUJ549BqMXNTK/f29ZrNZIBhSg0YjhiGkVxnYDEgV6gSYvJikLk0gcwFyAMYFoWgbwMndGQIt58xr5oX0RD3ObZ3zzc1NOPl9aXG11AtAkScSCwccHRdmA+CdTQ1A48QM3plt/7Uz+8rXsQkSzzPa7P8DLFEU6e7u7g3wxxBIRrTcFrHP7Tw+epfPlM/ExX92Oh0d3KGM7XZbq9VKFxcX2ls8aeY21mm5oKfCvJn0TsCwsREOZQIMT0gABlFo2JcRpG6sSyYPnx+/uUcesYsFpqzChWvUzmvrU2UhF0wIIhUr56/hGto2pvymY+33+6COaSMdcGtB8UgU2t/sQPCR354+/h2ew/3Bs79BgQOAV0EU6InuU22no3/jG99QZEPgqLFfCvm2zLmWWKxqlmVaW+AxQ+2N7ZDA3AmMhXk0FObw2zPoobryrP/Pv9/Mz3cS7pcNtwLEJV+YyH9qDB4qm4HHhpvbUl2ZKYDEiOM4BJEh0Q/msLu5udHGYnNrc6BVbklrr9dT7OxI6vIQTUj+/+Z3j4FYzrUvM0zXFn7o1Q+XJyqZprblQ+QCs9kXzYtvOXSXtkgNNbOzoTAgK22Gdmfe3dIM7o3bzZGyUWdIq647FIr/sAF8G/x3UvN3U8rUzpHn7acmgT3dEmfAy2i8dwvM1rbJX2QjocIWwBPADkABzNw2lJY59ZgOSSzwHROAunteNZPnLcCgvrK6ViZtYzUItLXtHSAwzPWJZ73IwpYALHPbWBBm1g3bYucOYUIdFGacIY14lopDsIOtguzZ6SWpjUAS0/0wRa7HMpKgTb4utIdPiOdBI2cYN+vqGUK95WJnmszyKnDrAr72FgmHlGhboFPilsQUtmPlzc1NeE62Dol36Bj/L4n8YrNdsDfj2OJZQKFsKeNisXjD+ieT6AFRG7swyMSirRgV5baNRGanesBQ7BHUC0SP3UkZldsJmh6SOOMTScKFU8/XuVlXjGnaVpn31DPcJ9pMqhu2kv/flyMnkTwwCrefjP8sy1Kz2UzT6VSyFaLknee5jo6OlNsE7Hw+193dnS4vL7W001LlFuJDP18v6kv9PE+bif+5WGEQeZslMhWCxQ3hfapNAsF0fvves9/vw0lYTCzCQP6nF1EO/zWZ2XLrlVsW6HN8fKyTkxNNJhO1XTR87nadjgzEEI0ezn9IKojYBBXv890nQPDQfRiiB+yhws2FcY96QWuvgpGOtL1rO3+i+m5ubnR3d6fBYPCG5PW8aNaR33zyXLOTJaYya3OGQp+AhtgixOduU93E6S4ZQWSiPWvsgIiqSWyznzRNwxQ6edEz1hZ3oUbUXG6jJCRS11YnctTvkydPdH5+rtPTU43HY/XtjEHfk+jB9Gi5xpOixtSGBwup+TsyqYoU4h5ARdIBXv+/XMwQYEOd7mxVQGJe3a3ttF2aJK3NjYFUjc2gPrilri3b3HHvpjS+DCi/K8HL2EZ9sXNnlMw6Q5jVahXmb5IH7BUIlrjZSYiFFd61FXIQDkbsLWpu62JXUufu77q1MxipvV5Px8fHOj4+1mQyCbHCACR1S0Y9E/Y2AYjhDMi9tGmmysWWwEjUZG1SAmDJSa/c/DHUmXZzxTbXQkeiHOp3sAEFUoe642cCZEgg3+b1eq3r62sNh8NgJPs6PvT7oQRI+E6KTYMwqAhgWdv6HKTGQz2RRE8ls8ScQ7WJwdhUSG7D6NI8nCuLs+VdL0nabl1wq9XSaDTS0dFRkCB+NV/utsJqggRwygCADeZHUZTtpQB2077h+OM6NA7sjJwPivZQbmZrtjG+oRe2GwwEkJU7DYXR0Mq2KalNVRzMbhgMBsptYnVtJ6YN7SyElh0AhupQQx0+9LuZ+A9wJxb+WhTFF2DJbAPCpmHrL58ZIJEDEiJ/NptJbohMQwu3X13kRB3GKT0etdRz+5p4UMlAQB6+Dp5hccNH5G2Gym1F6uvk3232Tt/uJl141ifuZW4Fou+EOwsxpS0AZOdCI/iuhiQbDAbBsAVosXXQjXP9exr8ocm3jfentqtlLOtVeBfpCV9WAETDZpEVsDcvLWApzUjLLLYCqRC5xeKZW7DesuEt+7DkNrPKRT6875kcOfvqIcb7usMguTkxrzJok+9hkZtbStzwnDoAPk8zb9sAMjpCZduAobK9WuJzY97r6+tr7Sy4KTE11rIpk9wiCm9ubgJjkYK/S3p8WYKW/nvizoKMZecJ7ewsG4/IJvEgNo3mXuwWiDNDGrkj6ujFiQuuoSwqlLuFXbk7QQwJpgcYLzdVASObz0fOSSYDMYTInN3lQUvdfJ48S56VmyLYuQVlMKoJHjmwol6hn9yeeABMJn0Wi4Vub28DPWlLq9UKISFohFZjbxYv8bhP/f1zTWDxnKdfic2yWCy0s3OCefihRKYtM0oTc9ufnZ1p7/ZZ5UobM8wtdwoGDEGCMPrh/6aKoPKJSQ/PDBjp/+N/nvFEiZwkQmoljXU+lN+2GGDq7OlQmU20tonPtXlk2XYNaU2Hii3Qi7XNT58+1WAwCHXEnklclD35c1AUE41HR0c6Pz9XYfNq2DS5DSoK8+l4IHwZX0meXnyPTYssFosvwLK1oOHY2QC/K2N6GpUj8pxekToRDcFhCMyAeDCGnk0v92DwFec7F8+RpwcKybenNvuqcj4eCBq7xWwQ2+fjASvniSXP0kYtGNtbCx4jWr5n+9z2bJ+48Xisx48fa2gbJdMG6rl3B7BjzFY2C53aCbWAbWtGectijHzdm+34fcnTC3re39+/6e6HGLzQzECNCbvaxC3+Dgw08qktHLPrTh0DFIhNgOR7NeXQSM8kgID9wn98B6iJc+v7xqM6/AWT5dQa9OB70NvOz3FwPg3Kb/7u9/saj8fqWbxKp9PRcDjUZDLRaDTS+fm53nnnHb399tt6++23dXZ2FtQJ5TEiu7+/18LOckayI0nmdlApajxpHK3T5OcfkqB5ZeutY26Cap8xn/Q8QMVv/ywVg/hyk3yoIaQGn9gvnqnk0yyDcjxDSP6Z6EskkE/8BiSURQK0AEON9hVuHTZDX4Ac26iEnaxOTk50fHwcXPhyB4R2bcJzMpnoyZMnOjs7C0PjtvluKvO9IKnmtsXGaDQKdUttE0Ho2KSRb0MzNenTpFvkpHcASxMovCgHEogVGUM8eOJGrAeob9ogMMKrpiZQyJ9PX7faubKp30PPxc6G8fcgpK+7vwCqb5+vGxIGoJUuCi41Gw2vs993BYJD79RNcDK07rutWkejkR49eqTMRoHeAAbgdLq27WejRgQBZdFe/0nyNHyIrvJmhX/JE1ONjPleOW8oCXWSuC05IQYNQjQCIm/DNBtE/r7i/9dEW5qAeSg1JZkcmPxvEmBSY8SVZVmI4M/M6Cb58gGL7zx0rJ7t79vv94PHOrOQA9kko+wsItoXuWN6aMvvau/vSw+9lyS2TRgZ+0uOYHyvGsfvtmw/OL5L0shO2YJ4AAK1w8V9yqJHNAHbbDz/+8vf5zvt8mDxz1AmyYMhckNKvlMPOovPT6Za8CVBH1/HZqLttBkJ0bd1QV0Lah/ZIV/eI1zaioWdTWUgbWI3tUAbfX3/Lwl6Q8NWq/UbsHhg8JBPqKDMjNO6rtXtdjWZTLSyddBk2nLLTSEaxGi5aDASjYORnjn6EjA3LxLMAYwAFZCnbsTxkE/EM9jXydcLVUT9EjcEb9aJT0ABkCiLsqER9AN4mQ2XT09P1e/3Vdpoa2M7TUVuVh01RXsfogvtIfn6Nu/zHr8DxxCJvytBHIBFb2L+BdRTcYaVEIJel7iF4R4oekDnfln6MkABDgxEANqx4CfUoYzJpQuV5CLFbtEbV2U2lQcfTPWEbRKf+0hb/qPtPJ8639NoNAqjqbEd8du1w7wweiMbVu8tFDWOYx0fHyvP82DHNNv1hyT4Iq9q/Z+/L8OmSKPnMl2QuYkyCMvzENMT6aEECH5fgsj+oj6pG3X53sR3f19WZuEWr/lP2tO85Iz43CZMqZe/SM06NJ+hU1F/pFXPznTme9ci4g42W317exueL22Kpd/vK3WrFCPnS/pDUrOe4Z4axqRvoE+AicbwbGIngHCPZ1BXEJMezXNy5QKQJhh/X6L8JkgAgX/Og6kJqMotOUWCMPrY2YQf7fdA6dpW8Rj1no6+bH+Puvj7dSMQijakaRqG3X2LKYbWpR0J+Mknn6iqKp2cnEi25gp6+zr8X5OvL59vUBWCeClTOcOusihyHEKpxcEeHx+rZdPjgIT3QSgEIb+HyuC3J6RvKP+TAIVvEPX0z9YmUhNTf7Wp0Kyx06XPy9fJ5wdzZdMMqZuMRGK9QeBGD+U39fJql7IiN9maNqZJUtsDt91ua7FYSBZ/6/fFReVSB09Dku+ovm3+fvP53zbTG8k3vLaNjhGFtYlO7mFwoZdlhWSN0zqolCcWDP19CWLTKP9brr5IByQEkgMJwPNIQRhN8u2O3VDXg8NLS9oJQ5ttiR+YuyI1wVIbmFs2qdm0tzIboud2cPurV6+C3UQHTtyRNQCwmXwbm/9zL2o65b4s0Qjfy2hsZFb41jZQxkOZOt8B3yESedIArj80NRvnL1k9AQhiHRDyH4SjbIAAkz0QIL4HBpLTMxyC0m6+R40e6uvvwd0Eugdn7KLx+ATsPTtMnVNzU1tHnpsKgta+Dv/X5Gn8W2ChwiRfWNU4gRwGxExhWyPlGpy4kQ9XsxH+k/Kbz5AnjIAZMITLqzo1eg1GbFEUDwI6c0Y47fTqxT8LUPikbjwHqMgPUPCbuvHbP1c724gyU/MO525ZzWg0Us8d+FW70E3fCcm/SU/++0NS9BBYmskzsnSL2/ls2T4hSzuul0pCPO553UyCOBDod1W8SWxPYOpWukDqL0ulObRiUxu0xYOLvHwZzbLlAI3Ko3y5+SUPGPLgXZ9fM18ADwBjkzD8n9vBEScnJ4rjWLPZTJX5wXz9fb4Ppd/1n0/RHwIWEiCg0akN0Y6PjyULcwAUMCJ2uwY0pUuzIRCO5P+PnerzifIoowlGObCTyIOeSN34j3o8xEzalTQOFW3aRZQJnR4CjM+3ed/Ty0vsyNSdV0mPHj3Se++9p7u7O9XW4agP9fgy2vyhKdSxeePLEigH6ZkFJY/s/D4vCr0IhqieoVSc8n5XuRAIYvrkifp/IUjqgrQ9UeUAAyD85evp28D9yi0V4X8PdPLmu2+/v+/L9O2rbOEe3uLUbJR33nlHtdF9Pp8HKf//V6KesZxzrUkMGowkoFeBdIxA2cQWPZQhH/kcbBrf50nyhPL/1w/ME3G/dgD0xPT1Jz10z9cBJvjvvpeTAMLWnfzB5Zn+ZXVL3ZyaBwr09Pf45H0vweQmbjPnx8KlsXlgt0uf50Ppof+a9dTvAotPEJGGyS3n2NkmMxAtcrG3MLZ5PUSYyIlieqP/5DnPXH4/1DCfmuVDwIeeIQ+Y7P/HFnjo/WbZMJr/uKCz7wgeLL6dHnTYQ9AE6Q2tCbdE7UVOlZLfQzR6iH6+ftQtjs3PsratLh4iAvdK27x3MBgodi5zItATt2LOMxfifhmTfPLP0HAPFv8/n83G/6EJRvo8fV7+O88AoIfa4f+PGgHdJOgG7TyTmgyjnNKtXpQznFMbXBCykFjgdm1boLTt0AdA9mWJuj7UpmYKMh7XNqJOrnfxyTQ5SItsN4StbfgCMWiw711NYn5Z8nnr9/To5u8/JMEE6tMEQLNHybXjofL8ux4Y/Nd8l/Z9GVh4xue5d7tlUkZic0cdW2VRlqWurq602+2CL8bXN26oc1LdcFeoIQn9FcsywunESz4T2ZxDYiEIiD+MWE9YpIvPC2I19bMnihp+FJ98Yx4iPlczNe/Vzg7y4KOtvtdin5EHZTbLJz++N1MTkLEbIfn8H6JJkw/kEzVGZokZ4zjnWha03azDQ8mX5+vyUApgoQIU4itMJWloYjqz67YklRWCiCVRyS+rgCcSdeBZiOWJ7e8305eV4ZMHa+3sAoxIhsDNUU1k/hfaQx3Ii2eaydefd6EzdXmoLc22c4+UuZAP+LJvRPf7dx4qQ66jUPeHAE/6/wBt+gw/ervn8wAAAABJRU5ErkJggg==&quot;&gt;" style="rounded=0;whiteSpace=wrap;html=1;shadow=0;container=0;" parent="ra58XeEpIMUWKlB5J7gt-26" vertex="1">
          <mxGeometry y="204" width="140" height="130" as="geometry" />
        </mxCell>
        <mxCell id="TDeMeSc5tqtRhKriEZUa-3" value="" style="edgeStyle=orthogonalEdgeStyle;rounded=0;orthogonalLoop=1;jettySize=auto;html=1;entryX=0;entryY=0.5;entryDx=0;entryDy=0;" parent="ra58XeEpIMUWKlB5J7gt-26" source="TDeMeSc5tqtRhKriEZUa-1" target="TDeMeSc5tqtRhKriEZUa-34" edge="1">
          <mxGeometry relative="1" as="geometry">
            <mxPoint x="200" y="70" as="targetPoint" />
          </mxGeometry>
        </mxCell>
        <mxCell id="TDeMeSc5tqtRhKriEZUa-28" value="Noisy X-ray&lt;div&gt;image&lt;/div&gt;" style="edgeLabel;html=1;align=center;verticalAlign=middle;resizable=0;points=[];container=0;" parent="TDeMeSc5tqtRhKriEZUa-3" vertex="1" connectable="0">
          <mxGeometry x="-0.3083" y="-1" relative="1" as="geometry">
            <mxPoint x="-85" y="-96" as="offset" />
          </mxGeometry>
        </mxCell>
        <mxCell id="TDeMeSc5tqtRhKriEZUa-1" value="&lt;img src=&quot;data:image/png;base64,iVBORw0KGgoAAAANSUhEUgAAAIoAAACRCAYAAAAcliA8AAAAAXNSR0IArs4c6QAAAARnQU1BAACxjwv8YQUAAAAJcEhZcwAAFiUAABYlAUlSJPAAAEeVSURBVHhe7b1LryRJUrdv7hGRmede1d3TDDMwiAUbJBYskBAjsQO+z4gdm/psfAY2iGnBzEBPdU9P1alzzUtc3kXZE/2Uc/p/3SFcCmVmhLu5XX5mbu7hEVn+6Z/+aYn/Lf+fy+9///v453/+59hut/EP//AP0XVdW+V/RKntif8t/+/K5eVl/O3f/m383d/93f9YkMT/AuX/f9lut/H555/HMAztpf9R5X+B8r/l/1Ep//iP/7hM0xSllI8nSol5ntfvERHLsgR1uq6LcRyj1v+OsXmeY1mWWJZlrTOOY4RonU6nOBwOUUpZrz88PETXdXE6nWKaphjHMZ6fn+NwOMQ0TXE4HGJZlthut7HdbqPv++i6bu2vlBKllNjtdnF2drbysCxLzPMcwzDE8XhcZYiIGIZhjQLINc9z7Pf7OJ1OcXNzE33fR2TU2O/3cTweo+/7KKXE6XRa6R+PxzidThERUWuNaZrW76WUGMcxuq6LrutimqZ4fn5e+aLdZrOJYRii1vqJDpF7GIbVDsuyxH6/j1LKqq+IWPlFBvg6Ho9rHeqjt/+7cnFxEdfX11F+8YtfLFY4jM7zvBpgnuf1d631E0Asy8dcuJSyChcJCD6tvHme4+npKeZ5jr7vV0D0fR8PDw/x/Pwcy7LE6XSKruuilBLv3r2LcRzj1atXqzLpj89hGOLy8jJ2u11EghvgRcQKlK7rou/72Gw2cXFxEX3fx/F4jEhFPz4+xvPzc1xeXsbFxcUKomVZ4nA4xPn5eUREjOMYp9MpxnGM/X4fDw8Pq0yRBoEv+J3nOQ6HQzw9PcWyLNH3fUzTFMMwxPn5+VoPfuh7GIbY7/ef2AEbIeMwDKssz8/PKw/jOK6AwTEfHx/XPv6vCsNqKSUqYFiWZWXUhsAYeIQZNbNGMGAJRSgUi7FqrXE4HGK/369GjTQwikNpXBuGIeB3mqaotUbf92t0AOS11rUP6tsBoEUEivRCtzll5FvSEbg2z3NsNpvYbrdrFCDCQd/9d10X5+fnKyjmjCR938eyLCtgkaXv+6i1Rq11lelwOMT9/X28e/cu7u7u4unpKUIRfLvdxvn5eQzDsMq32Wxit9vFxcVFXF1dxRdffBE/+tGP4osvvojPPvssrq6uYrfbRfcDCXitNV6/fh1XV1dxPB6j+/nPf/4m0kA1hxPAwHdKyTAa8igUOU3Tqogxhx0MSqgzPcC22WzWvlDUdruNUkrc3d3Fd999F/M8x83NzWpwA4J2DEsIDj8Aib7hf7fbxWaziTm9HKUTtnEAADmO4ypLpL74DrAAPR4+DMM6VHJ9zqiDfuCj1hq73S6maVqd7ng8fjLk0Zb+pmlaAWGa6LqUsoL4/Pw8ttvten4YhnWYfim6vHr1Km5ubuLh4SG++eabqOM4xjzP0eX4uWjsmjPUcW5Jz0cQlAdg8ICu61YhCX3jOMYwDOu1cRxXz8S7MMj9/X08PDzE3d1dHA6HuLy8jM1ms3ppJOIdoeyJyISSlmWJLkM4cj4/P6/tlxwGIiMH9fwdI0REHA6HeHx8XEGFkTebTYRA5PaOIjjiMAxxcXERm81mBcvpdIq7u7t4fHxcdY/+kbNLZ+i6Lrbb7QoU5Li8vPxv/J8y0tPv1dVVnJ+ffwIyg/f169fRdV08PDx87Otv/uZv3gCIksMEoACZcyZsz8/PK9IZB/G+iFivj+MYh8Nh/exyyAI0Dw8P8fDwEPv9Pp6fn+Pp6SkOh0O8e/cu3r17F2/fvo1vv/02lmWJ6+vrNUSiIHiKXMewYmoOD6EEGiVHGrHkcNRnBDtlPrTb7VbZSymx3W7XPIYIFRmtHh8fPzE6Cj8ej2tfZ2dnq05nDdE41eXlZWy32xXU+/1+zcdwoFBSPGXEhneMzZCDTegfp0Un6KPmsBYJepwwMi/5sz/7szg/P4+vv/467u7uPrahMQRRFGiOVAxe9P79+/jVr34Vb9++XQ1M9PDx/Py8jvuUp6en+PDhQzw9PcXj42M8PT2toe23v/1t/Od//md88803MU1TnJ2dxcXFxRouAZqBDCCGzGl2u13UWuP8/DzOzs4+ARcGo4waOhmyoNv3fZydncV2u12VjX74PWS+VDPC4VgAivrUhQd7b80hFPlub2/jdDrFbrdb21AvlKPB39nZWQzDsNqHMuVwCf1SyhqxauZCyMrQBdj/9E//NG5ubuLDhw9xe3v7vWMxPUZQDHE8HmPOIen+/j6++uqr+M1vfhOPj49rCPv888/jyy+/XGcChLcxcxIrbMnx/+HhYaWBh86Z4OFZNRFPJEHhfY7Tp9MpNptNvHr16pOIEwmAKYfDSAdYcihgOMD7ACPy7Ha7OObsiLYXFxcx5PT66ekppsx7ANqY+RiJLREXOXa7XczzHA8PD2tEnec5djk763MG9t133616ubq6irOzs9UJiSwAgHwDgz8/P8fj42OE8qVeSwjYA3Bgbxxlv99HrTV+9rOfxeXlZfzHf/xH/PKXv/wEfOUXv/jFEmlkoxtF393dxb/+67/G119/vQ4nVuQ2s/+aU+Dj8RhF6y9d163XESxSoJoRDGH2mQwCCpTfpbdvNpvVOBcXF/HjH/94jSL0VzPMMiQSRVAMfDIFPj8/j+PxuBoVoADyq6ur6LpunaEBKvRAn9uceeBkAAn5qQtYapOU//a3v13Pn52dxWazWWnUdJySQ+bZ2VnMObsqpcTT09NqL85TrIOaORD9AJpSSlxfX8ePfvSjuLu7i1/+8pfxu9/9brVzRET313/9129A3JihfcpQ9vXXX8e//Mu/xNu3bz8x4JAZvT1rr8QOpUSO04ecZpYMmwBgt9vFbreL6+vruLm5iZubm9hsNmtb+qINILi6uorr6+t12uloMmZeBI2QJ+JhJRM6+AMYRIQWZNA26JCH0I1uyEu4fjgcPjH+ZrOJPhNPHO13v/td7HMBjVwH/gFDzah1eXm5yrBo+J1yRoZsRCGAWNIhoYvzbbfbuL6+js1mE09PT+v0G4cEnN1f/dVfvQEcS3rd8/Nz/Nd//Vd89dVX8f79+4iI+MlPfhI///nP40/+5E/i8vJyJYLRURgRpstxnTWCLsdqFLXZbFbldRperq+v4/Xr13FxcRGhtQIUsyxL3NzcxNnZ2drf6XSK29vbuLu7W4c2Rz9o40Uor89pNX3sdrs4ZcKJcfpMeKEFKFEyeQKABYD0EbmmAahDySTAvLu7W4GKAbEJDlUz4u12u9jv92vuVjJRPxwOcTgc1nyLa2MOjdgX3aPb8/PzVZ+Pj49xd3e36gAb11qj+8u//Ms3c47ZKPw3v/lNfPXVV/Hw8LAa8o//+I/jz//8z+NwOMRPfvKTdeqK1wOYqmlWpMdi1D6HHoRDkZ3Cc9/36xiMgAwHXdetq6/QXJYl3r9/H99+++0nsy4i3UmzDJTDMWido8tZz6x1oCHXGgYttZ+dna0ymkfqY6T9fh+HXJ9Bpk2uGRUltYBkmqY4z9VZO+5ms4nr6+t49erVGg2Ox+MnznM8Htfp9C4T06qhZcrZUk3gR0ZIhm+i/ocPH9YVZiIUwK2HXPX7/e9/vyYx//7v/x5PT0/RZTjFyMfjMf7t3/5tnVXQMQcMAhKYDaH7mDMk+vz973+/hrqtFtqen59XJaHAXa40dhmy50wSmarSbyT4MDozLECDgifdk2mPJcN664lEETyaPqiHZzOzOxwOK4Ax1pD5xiGTxaL7VDim9db3fVxfX6/L6RivaAW55tCEbABiznxtyaEOvQzDED/+8Y/j9evXcTqd4ne/+916z82jArrsfvrTn7755ptv4je/+U38+te/jq+//jpKhlWGh77v49WrV/HTn/50ZZLpMYqFcRRRM9yjRBSF8Hh1yWTs/v5+jRj26k2O63g83llrjee8T/T8/LzWR8E1E7eq5BZAj1pkxOAokmg053Bkw+I4jk4ux+Mx7u/v16Q8Ms8CnHg23+F7mzf9qEvbRdPXWmvc3Nys0XW328WYN09tp+12u4J8WZZ40n2lTQ77wzDE559/Hn/4h38Yh8MhfvWrX8Xj4+MnIwK6OB6PHyPl9fX1m7dv38Y333yzMo1CEWBZlri6uoqf/exncX5+Hr/+9a/j7du3K0GU2Wc4tXERnDqglN/Uw8PwWAy8aHGqauaEApb04lFL6wARBXGeiHXKZLXmVBOlVC3VQwceq1aEaw43AGrK5J9ZUWixbcphyd4+ajYzz/M6RYde5MLXxcXF6hxjzgrRFTogEmM384eD1Eym6e/y8jK++OKLGIYhbm9v4/b2dtUHOu20ut51XXS//e1v3zw9PcUxVxSvr6/XaGIjfv755/GjH/0ovvrqq+i6bl0FrAkWmMcYtAUYgK/PfKBmFEI4vOnh4eGThbZN3jQj3G+327i9vY2SHk6IP+VyPMYIrVByzr85zs7O4pj3OoZcvDplMouHRd4bgk4pJfZ5D2aapnjKhUdkA8wU9AIQj7nWEhFxfX291qPf3W635mlEASLR6XSK169fr33TH20A4S6n+kSkXc7MhmGIV69exdnZWXz48CHevn27rqM4kgJOHLKGwi5rBjYqHkVkeX5+jj/6oz+Kq6urlfnS3HG2ws7OzuLq6uqTSAVNFACDtPnw4UOM47iCY8jQv8mE9+rqauVnyTCLgBhi0nI78gEgjAiNUEK9yTB+lsnyLldJkQ/6fCcPKUrQ4YVos2Q+xG/4JUchCiD/MAxxOBzWHO7Dhw+x3+/XoZ6h7ezsbL19Ad+llHU9B7kik9fPPvssvvzyy5imKT58+LA6e5+3KLBln84LPxERXa31zZDDxnneNxhyNkDInXPt4vXr1/H27dvocrUWrwAAJoznbbfbuLm5iV3OUEIeHZr+1pxFALY5p26Xl5fRp4eOOSbD3/n5+doPBj0/P19voZN041UYCn5RCiACOHgq0aTLiEkb6jDk1QztyAj4KQbprM1RGJj7SZvNZl1lpc6YN1O32+0K/lprHHO9h0jFrBWagKDrujg7O4tXr16tILy8vIxlWdZbBsiKLkM2PeUaWVdKeVNrjVevXsUuM28IohTAwl3dp6enNVxBnLp87zLMYUDTOWnvCZGEyBHydMAAeJ+fn6Nokauml0MLATEs15EFY85aqUTRSyaOeDx0qbd6lhLe2iwFIBuyI9cmtzMg65TJPX1vt9s45FT6MTcVIQ/XierIdczV1aK1kprDB3kJAP3Zz34WwzDEw8NDLJnTfffdd6tDYDeGvpoOUjLHuru7i25Zljc1N6mAXHsAhscTQrvW6ABEorCS3gdI8GIEJYpMmehREK6U8kmegnLnXJPYZP4zKZ/YaOqKUjvlSJ1yB873mbCHAEYksPciX1UuhX4W3aZwvU0mr8gOjyWT9jmTR0DX5VYAAAUfOBDXupze0r6m8x1yWg5v+1zp7fs+fvrTn8YxZ2RT3vk+nU6rQyIvDlIUIE6nU3z48CG6iHhzkbugUGKfYxQKxJtQvkECs1YeiiJCWHFuN2rlD0XSP5ENxud5Xj3QgIMGUccgwIhchxb9lIwy9iRooihk4zt6saxds9+kS3A+PDysQKFdaFMVfU65AQn9n/J+TGjYgs6iqa/lYyg65ZoJw/L19XWM4xjv379fE1qWIpZcrEOX0PP3aZo+rq/UWt98+eWXsdXdSJTNd4AC43OGboYAEw8ttKEIhgnXQeBQBNrk0jIblfDyKRNC80j7Uy448YnCpswh8EQMRV8GDXwBJtoXDT8orktH4Tp1APsphx4AR6RD/mABSw7XAiUU0WYlxLvcAcewQ5/o1AYnD/nJT34S33333coLa0+hu/3YadaQS5+Re1a6ruvefPHFF6uhUKiFCXkO3uBhClChvEU7yGuOsS8VvKRLj8QrGXbwfGhRf9ZGoL32wAASZj2EdbwTGeAXZdOvhwvAZWN0iraLZlwYNVKp+1xPoT9khB48oCf68Hnkdf/bXEw76mkAeMWoXQ6DJaMMM1kW6969exehFWXzh77on3L8uHTSvbm6ulo9GGF6zQwsBEba5dY/CFYt8sw5ltIpzCM0AED4M91YY8gBKHhhyMsABGM9ioLPRUNFr6kfPHfaTAU/yI+BkMl1q4bQqiEIwIw5XX7//n2cMmFvk054nHPX4JKRzAYGfFyjPQXjTpmjEQEXbbqKjBiPj4/xB3/wB9HnsgOrwfDidILo68L52hoDJqrG5l7rHVYejIHILiMOdTaZpzBboe6Q01imzZu8u8qsBOYxgAvC39/fx2Nu9OkyQgBK+OETWWZFCQDOeX77e3utNRgFuR8eHtYlfNcDQE9PT2voR09DJpQk4QAXxwntMQEQvRb05mb4XbTHZJd3w7uuiw8fPqzbLG0jaKA7DnQEre7m5uYNXgbjVOKggPTQw0Z4ftWyNkZmfQCFezihDoYDMBttV8D4Y64QcmcT8ByPxzWq4OU+UCb9wzfyIfMmI2PNRyPs+YAQ76uKJHjzfr+P29vbePfu3Trz2OViHfXhb8pZxz63CuAUkTkffQG+p6enT4YnIgcRCxknPSgXCWpkPj8/j7u7u3XWgx6wIXJS7JzorhpNMEJFDOXrJlhyqvesJ9/wEIwQyQjeUHLsfMwHrY65nO07wAgPMJn6MeSMuZKLMlhcImeyQQFG1VoIdJkmIjc8UhcF0t5t8eLn5+e4u7tbF69cD3DZmOj2cDjE7e3tCnTamG90CUiQBdBVTd0pUya7+3w0ZBzH+Pbbb+P+/n61Sycn5XvkbQo70pJD3zAM0W02mzeg395sdG9y/O5z/NvkwtQuVz8NKMIfnUSiu2/ubMKgjd4mx3gqC0VDLv0zxuIdKCj0qCiKRo5WqfTT5RDlKIKsrlM1nUe+fe4BBvDISl8Mqeix09oPxuE79YkyS975JYoaQNSvGaEABzkPdAE93+GbAzsQ5Xe5KYq66Hn5CKrv78gCCgBwfX293ldhWIBh6lPonGshgGCoWVsLuN4ajO9zLvDtcwZh5qEBuNj7ao/j+pSrj+faDGVA8L0qJ0OJRACuc+2Ysyrq+Hto7WOfM7FFS+PwteT4P+rRFupZF8iE/OYVHYYiWMnoOGUkfsjHYhgmabNkfknUgXdKl84aLEbudrs3TqS2eYcWlPVaCa3awrfNjUOEboDAeNpr/yhKDgEKY6Cccz1useR9CLZhYtw5Q/SQD04Bqm2zvoJCIw0zaFaxybUaFINhUDIyL01oRgbADgjaofD8/Hw9+oxUXQJ/ymgyaksE/NAvsiwJtENuSmp5HfW4Cd+hYeACEEda9IlMyLnZbNYhHp4ZGitMoFjQCGKjCaed9r5WJbB8Qq82kQrm/Js6AJV2JKkoBzB1GR4BCTxBG55ROAChH/gnxONRoZVWPNNKROnopWRuts/ZzaCbkUQtjBXa3A2PHPQHTQAA6Lb5FCBALVpQa/lGTnTG75qOh3O7DZ8GLg7ENdrXje6LDHoZDEo1UzTiGLSlb988bW8FUGhnA/eZS/AdwIWGsE3eQsf4tO9eWMxCWQCt14bmTgk53lVyNZV2s5bwkb0KLIuGP/q4uLhY9/KiozmjbTukoO/QLZEhcxL6pp+tNnFxHRmiybPa89bHkPfbxsw5Ru2uR+4xFyaxD47B9e7q6urNRT7/ypCz0eJb0YprNEgDDCZKJ5FZtMFHu04zJwyGd5N4HXKtYdA9HJQdCQAEpf4xN1Zj1PgBj8NwBjQAxCjw6jY4gXOUksN1pxuKBu+mWZTEqNZDbRzGBkIOQOI2oUdULFOXDm4ZHf1oXzLC9dquWRTVOFLP3w8JRAgbzJ3NiiwwDMAwZFHSVpr9HhjFxkNpJWc5eFOXwwxDhPvttEI85won4/lJq4v7fLQ1mjUgCjwCCJyDa1YmshTlMchNnrbRDGvRKy12euIxUg6Sa/QFrSnXTqA55JMA9EnBwXBSF+SH16qZDzpEZupGOoOnyNZHRSiUAYGiu7Nco3OMyTnOuw4dGKkllQ7DCNrl/szQWoIVWdMzd7kdcc61E4AAjV6Jd8uXgWK+kRcnMZBDOUQI2ERd+iGp7TKqwBdRkVzDCXufudnFxUWc556b0DPRLLR16YBEpqVxOAOw5XfOaIBeoN1p6MX+AAbnhAbXqz2z1xJ7p5tTRl0o3LktTButtEcxhFaYYIhbtEHagsEDIJgzhLJ24fEWhXYZbbqMSBttGgIgVgK0ARPAnLQAR/1oZh41HarLqPLw8BCnfIAOY7PJa8xEH8BgqLPczjhknkJUZPUW+V+/fr3yBaAP2oNCgTd4RfbICBu5UhsCEvYDA7XZZF5r/fg2AxSGEVEQxLjONdBPJwYN9AAHQECAJfMBzm9zs7SRHjk2dzn1LZkws3cU47Q8oCDOAwKAX5qV59DYb/5RVjS5CQfn6WPK+zxPT0+f9AcAWQxjNXpJB0LPJ70Pjr7gKXKYiRyeqoYLbIQulozWp1wvoWA/dDXlcAXoLMdRzx8VjwC9xn8Y5oAIhqAsOccnvEKYa0QOK9eMDTm9DkWnkNFLGmvINxy8f/9+vU9RMtlCsaExmX7bvkOLYIumhih01FYErg963Rc0ABVg6zKSoId9Lmy1uQqGwKAA4qRZ0TE3EGEPwPece4RrretbDjA6ERkanAdM8IiuSinrjUsDudMMdNYTlNDq+/7jLvw+N9GCcKMp0oAwO+stiKCvNQphdtSiEAaETiQ49/v9OkR0mj6WjCJMQQFjrxlFJACIUBgD3hnXLQ+GC4ECGeEJg4aSRuoj05grquzCX7TSSjs+kW1W/uAobEOxBDBp8zayb/RWCHgAtBzwPzdrP+ifOttcMJ20CLik8wBYbDpN08ehZ9F2ASuchswqIEAiieINqJpehJcClCnDJF6AYJFAnTXTOuUNNysdxbd90R5jDHo7ZNXuOnhHLujgGEsCiPMoFsXbACjY0eCQj2yUnL1RJu3oxyDIXZULsZTQ515j+OR6aWajLAUgFzKctLcWnSF/l1EEQPa6s48ux9z1j7PieDXSWy/yhTH2JoxB5VkbrGHOSkSRXLNiMM6cEYjIQbJZMmoBsCmHmT6HoEGRqMvIc3V1FawBwXvVlj4MsjT3SHxgHPinDwPSAOrlaQAGnrocloiE0LWhMDznj/mCHmZvGGiTMytH1XEc4zwfp6VgI/qIHwA/oOryobn7+/u1De3sJPQ3sUaGMrkvAzEa2EDuELSDXtBZNEyhTBjAKBip05i60UtyJt3phB/qDXmfh/k+Eapq3l/l/bQ3b0SfRVNNZLRhUSAFpeGVXSbbTOWRb5d347mhakNaH8i9LMu64ck8c2uDc7XW9fYF54ryv9AQiv6Qkf5rRrH9fr/qwnyBB/imbUWpIJnKeIs7OWmpG0FpwxAzNLcBbAiM6ogD0KZpivv7+zjk2oP7jZzfs5cWY1IAHWsAjlZtQVkcgBM52r4BGAXlE8HoZ6MtGuYPGvDHUMiwDO0514Ye8i2MRC6GCL7XF9a9DI6aDgON+IFhtKY9zOuck5ZxHFfAr21LhncUxCfMhLzspF1VKIA6gIvvFga0GzCAiE8SYz7pp9P9HADQKsnKhn+M39ax0riGDIsijNu0epjl9Zwzn7TxVJj2ADkyQnloPmn9pGb0NM+hGR59hBJmywpNzlEfO03azV8024KPUO44z/PHHGWbby2ygVAy3o/yx2allu90dMwbSxydkjJQ6hBdcp1h0SwFAd0/CsW7oAkIp3yNxF63/5m6wyeyYVzzTYH23Ez50cec4KbuVjfupsyruJPsG5mhBS4AwxSU88jEXmCAZ0dFB/SPnpDHn9DF2NbZPt9RY4AX5TjQ53vd5sYfK9BKpSGzkEm7vT3WmzmU3NJ6KbdgahmKOKH8qCRoARd14cUzK/px345Qc84aTtqkbNCY/zm9jmsYEllRMAbvMjJWDeXIyjkAhvKJkD6PM6Lv2uReJcGJbjhnMLg/aPo6fZFK9Bk5kG1spvgREZUNNos2+wCGSONNeaMqlN1TWiWieA4USHi0UKAbsC0ZVQjNCA1IDAxymdaANYc2iuXg0+0wuumEgEjhOnW7zDkwFE6Dodl4xSMS8A344GOT2yU9BC25DZIbmvCE3gfdCpk0ocD5Zi2Qzkp6rSeuIWPRBi/4wBH6vo96yiX5mp5MQwCBkdxZNOMmBkeBVVsQ6PCzzz77BKH0UbTS2m5gQqBT3jfByxAWJVEvZFC+d3pojXauT91FU/fI/he9J77XfTD0EcrH6NeKLzmssvcVGQAIDmKDmL+j3lnbZxSGT3jmNwDElj5XNLwh15I51P39/Sov9hy0qfuMV5Vu8q7inGEZJiA86v90UAgFJltFwYjpABIbo+SzJ4zztOH6pDcZYbCTVhFRAl4MT8gx6S2OIfDNuj/FeYdyQn1pok00yeRJTyUiY818ivbIjY6Oec8HIwLkIZfNXX/U/xbBs5NW9Gw+ASqjBABANmjXBNNzPnOFM+HoobdZzvMcdUVMEyE4N+f/6xzynfacQ2EoMOTBIU/r8hWiME6xkaBHe5S3z5fH7HOfyl7vsu2UhLV8oTzOWbFTjtkeCma9wqrT6qvlqgITeU4oKtKnowP8VU1ZkZ0/Rli0b+Uy340PnS63Xzzn4zDQdB/YDd6R0bpGRmRCnrN8QnPIrZyAkDams+6ZnZucoeqVDFnxE4XQDsa5ZgD4tz2Yzpcmr2kZJXrMWpJmeZv27g8eoeE+kOegJ+qQBY9CBui1stmBXM98hJwAEJkngHrIHfJESurhxYueS54yN6M46swa4uGNfgHaUdNgjO92T/kGUJzEeoFe7TP5IYQiaM0bdre3txFSCAwgHAaCOTqCjjtGWfxGGZ1eB3rILY0IhMHow0rgkwR4p1dwEsqpR6kJSA57aadtCfCHUjmgYfkHrfZaH2Ou5ZBbUB+HnHKR8UkvLkRG87bL9+ZjSPjE+PCI/QA3uoZv88y1U67d0C99nLRrr+fusdEFAYTGYKOmxtQxMIoQCPOd3gsHc9HkCgCh5N1ixv1RG5zdD8rwmI5xbXCub/UsDxGJsL1oDK9KAOcmj7JiXb9okxW/ASDGRAa3ta7nfJMVYEHHyAPd/X6/DlUv0UL/FM7btjUBbBsQ4RiGo5lkdLx9vNfiDcyXZlGqPY/hrFAYQUCEZe3ExYp3JGGoealgkCGncPDX8hjJZ69HMTAa9Thcn9+ABXms3BDv5oHvjizwG3oaEGdrwTLl0HJoXv4HqKcchvF8+GvBAZ9cxxGxWSs3+lly+Ins20CZvk9FPiq6KBpsNps1iYIw11oAcQ5vhnEUR0dtUsr3Oe9Ik31DuybodrlXBSOwiEX/NmwoAhRNnzEkygHgyGIZqYdSoQ9t6iIzNBxJitYkuF61ZODzU+ZGc04a0H+n54+4Dt9TTq+5ZtAsCUjrw7oyOLg2Z3Jd0sEsO0n7eve4KN8Y8l8xHx8fozThDKVVJcGlme2MuaeBvZlL3h3lDilbAvEkFAgdGEYZeCa8mCf3b8PVHNIwWCjxBhDUpWA0zqOsRVNxzqEvlI1hoQufRcPRkDMMhkVkDe30I68xDX+HRyI1fYR0wXdkQ7dzEy2tA9Z3zDf1ttvtR6CAbIhM2pRTm8UbvocSXOrTfkk0kyOgrDmjR9VDSbP2r8A87Tpl4Z22BSA85+HDxSCgLv0OujWAsSmL3pNL4TptWqWHIujQ7Ijrms1CgGaTSeKgGUzXdWu0hVfkINc6aJ9LaVKBpXG20DDWaU+sz/O9z9sp2IMCqOucM56Qch/zpS+AAIUAKpSDoqNJ9GD8lAtfKB96JT3DUz4rGkE5QkMGQi/NtsRJz9mech8rHsqK7thMtQEDygWwBgBg5hx1DTB0gwPBN/0QTWzAIZ/XAQCjXnTMrM9goE+mushM/60t6K/PXA3+AQX10GWtdR36sCO27vs+KsrCE87OztYdUCgWw6I8OkBZpblpV/LGFfXpkO8kbgg26F33S5MbIISVyb0TaGKMRUOjQVWaJNY0Oy2wFb2ZGjl8DfAzPNjzIvVCwcHMR81chrvNVc8Xoz9AgQ7Mf9e8Z+Ys37Btwy+5gGfbRD5iC397/ZMZ18d8WdGUIwft0cO6cYmTNYeXeGHByIa0Ul5SKMwiMB4yaYUVphAURYUiVMmV0If8e1tulNEfdQ0qhOMaBeNRf/6B/GNq9qQiL7wiI7T6HFoW7Z8lki16K0HRsED07HNI4uGwbU75b25u4vPPP1/fwl3SWbv8E6clZ4xEJOwE8NHBnDmj16dCM6RRiS8yhWwBnUrnTOEcyjFE0QZeDDTmNJaxFuVDD6BwDQEcVodmm6DDdMkQfGj+ZgWFoGjqwmNJUCMwRkY51KFg6CKvhffQWI5RbQRoj3lPhvsyp1ys6nJllOGQ/APeInWL3NtcKrjKv6lFf9tm3WfU2xxtpymH3zkdFt54ZRjGRzboQWvISQw6CU1O6pJe1Ocs4ykfZcSrKGbIQKFDKx9AnfQqcwQku+Yciu80DhcNAQBkk1Pj0O0AeA95CLzUJprRB8oD8IDbvANinAA+6Yff8IBxoL/IadAbn4uiTjRDJH3hAMha9S/rtJl+YJ8JPKIP7GqeAdSYEXNOYJVS4v7+fv0NzWVZPgKl6E1LT/rHS67RADB0WpBZFO6pD6NbvY8Do2MwRxPaA46jNhvR3sp3O5APGMzDIqBwIAPKRVEYrCZQ+fR36vDd/UGT+tRFr4P2emCkWUM0euVGHTrfaGqNTACqKLLSL3SwW9d18dlnn8UmX6eGTIsAjr6IrER96paSj2uAPpTKOYQyE6E1FIwTyhPooGuGHzzA3hK6L1EFFqIVoRJmQzMtwMh5CtdLkzfBH7+pi/J9tH1RDC7T5JgVcUszAQA8XJv1NiMMj/cDfpeiCYKNypAVL/AHj4tmrC3I0MGse0ikIfSxLPl/PSjcy7iRYY/8wEJCkDowz286hTYg6HO8rcohUCiKtmJpyydHUWSDF0Bl4EUzDpsXH9TzkObzFHTAOfqhvoENMCa9pREHWLT29JwPtKNPZKO/Uyb95t/0SWhfkok6PN0A78hBH+ZpysnGlFtFuVZhjvyEcMT5uUlAadgy7fNGaQg8Dp+0IdFjpkBbgwPlkTe4D0BSNEzYuNFEIfNcFJ7dzu0NDMtvmi1dvJb6tOkzYqDXJcM/q9SOQNEsii0J5I1eIM11e/6ilWPqHPTWA4MFu+C0yMXQ6LLeFCTkeA2hNnshfA4vYBghB+n0KGNRtHAEgs4pZwIw7D5QAAcg4xPvDRl2kVeQZxUtkIWSR7cPzYioCxhROHWgadnpAwPAfxV42AKx07+KQXvO/+kZmzv0oTWofW7iAlyhXWzwA49FDs4nd54BlfkuykO75q0GQURB8UQSBDQ6nYgiPJ1ELuCc8jFJFI4AILM1yqIEF+WAchvX/cETykdgK5a6eA60+sbLUQLfl2bmZXro4yUwD9oOQD+tIaBnY5CkYuBF7zuxp8+akbBiDj0igfmxQx70Bw4Mf8gJn0szZE7adoC953n+uDJb8nUIp9xoTZZNx0v+KSSdIzDjJ0MHnbIGUDP6wFTJPbI1V2dRAkoZtVYCKOCh6Hll+keg0A0/DNPyj0KhDUBRWigHaXmgtOCacgaGwTFYp03pgI8+QzkgoI2c3XR5r4ehCH5pM+cd5l3u8oP+KRckj3kLAP6LZjAREe/fv4+Hh4fvja966G/J5X/0s8t/TFvvHjN/RgjKkuH8mEvnkxbVuLZomolxEZCC8Ra90BdjcN1bCGoCzUqn9MrcAQZ0AD5tocOxaFHNYKBuvLBt0zJRl8MyoHT6glcDifYAGT0RsU/5j1tsuyiZMzw/P8e53oINHQr0QgCEPw5HCo5objfAv52/1hrdX/zFX7zpui6++eabT1CGovx70X8HY6zWM8nCIyNOpwejSinrCmZJIzt0W6gQIGAWHub0fI5QdFk0o+Ba/MDwBDjoj3auG0ryUC4eSr2qfCqaPAza9AcddMpnaAjEMbl2n//l6P4uLi4iMjfc65bI1Dyisd/v4+7uLka9GHnIDWU1Iz79wiMycNNymqaPC25TPi5AB1UegZBLJlRtcW5DPdr4c9DLYTC2+6FflE07hLfx4Llm1IAe9W1sG2XKKGY5UQz1XGiDIkOOA+/QAHQ4zKRZYlGk8dA+aKHs1Dws//z8HO/evYvb29s1z1hyaB9zrQneet2Xqc3iJ3zDH46K3qkPDWRyP33ff5z12MPdCQ0X3c8gl4EIyVfk/hOeelv0LHHJJOmkV2IOWnRDIJhfcnh6yj/upq1zotBtBQRljQaaIS+1xwM+AAjIMGgLTgPIeimaXRCq/QYmdOCoGQ3Yej3YxTUK+i2Z2zFbCsl1nq9Thx4HdUgXqmZyT/ozBvo1TQqgSt7r+n60EMJQmsuUD4JTQDqCI/Tc3AsiOVr0Dxl4E4wRFvf5sBf1F0158SIbN5ros2jsRnADAXqz7nu0pfUsG5Zi2vAGTb4Dbha7rFN/Vm1SYvgMDaeTJgRErEiHwviztnyit1DEp68+Nyjd3t6u9awj5CqZ0wDUesq1ExTTKnlpZh77fNlLJFAmbUQCHBYaxjGIPcvKmtMzD/pfHiIXyqYPDBHNkAGQKObbIKPPl8DQ6fUaGIF69GPloh8KQ/ikCcBeL0sGpPCNzs/ynbO0hz46CQF4GIY1h6EfeKdM2vhEP9SZ5PCAy3LCE3artUYFJCgBA1DoiGtPT0+rAI4mBhXCHvUY6KJxECXA0Jgv8d1nDuT+8AgDl+vU8TVK0b0MDGkD+XApSjKRywUabbGSixyHusiCI8zalFT0ZOBW7/uHtzHXQQB9SKez1p64hryT7r2Zv6q3LsEHeqQ9tOC7nprxnqiAEWtzb4T6z7lDH2/smikfBiYqFGX9/r7of23wOPq3gfmOB8QLeQj8cmAk+oM3+kXmuUla+e0+WnBQt72OUax4rjs6YmjTwmiD3lkHz0RUaFvPgMF26vS+OM7BW5/7aj58+PCJ3bETPEHj4eEhKk+zIxRGQDg6MOOhxTYK7ebMwmGWYQLDLUosxxwDrVS+UxevsAIw/Kx5f21WRlG8wcFBP8jGZ8jQ1InUg3mkLAJPawx4oQ6fGOUlwMBfp5Vb63yfm66xR8nIFXrMFEfGoSwnB2Bj+DHvdsKqx4rr/f39JxWsDMZ1jFM0zTSxQQti0AK5x/yTIF8raZyTngoEzWYaQNEOxXkmwYECDYxOwxx0rbho8g2MAo1FUcd8ca02C32R+iu5n5X+nUMAlDFnkTzvhFzwhbzIj9HgBTt1+SQfj8Z4eAot81svfCeHQnZKrxVl+q10YCXRqCobJ+x1+TDXou1yCIAC6eyoqa3BNSnxbYGJhyEQU+6tnu+xUAhjQ8AL530OUNnwGLQt6KLTwiBytODk+9LMuqADOAxMwBaKBICDg8hCZGUriGXc5mtDIoHv4d424RN+l3xCkPOAGPtg82VZPr7sz8LCOATnTFw5X0pZV/psjKKd+OQn8zzH5eXlCiiYIexaUTUj0KD9o2w2tlehQBBv/qFjOewZSxMhQrkZ1+EJY/OdforWWVAkego5wpJLATv9ccOSK9ts6Zy04w7DoIM+14XYac+ek0M+vQAAzK9lB9DIiSz0h3xe8Y1mgdPy1viBRC0EFARyRyU9EcGo32sTcH1hxRHa0OBzk48xcNMQoFHwasIz/RINiEazciS8jrpVYDAP1OG7D7wMcMNLleNYF+gA3kJ6gVZJXcL32GwBRXeURdF7yVVbR/GQzTA037GFde3+D7lgijPgOAbesuTGJQsHERqiWDp/aT2A77QLhVKYqIlywi9l0FsJOI9HWTjohkIkXrhoqEIpnSIONPwJ75E8ongABt1oktmlSai5DlDcD8AZ9LAXffd6WSK6H7XjzbqEFnkP76LFbksCDplpB3ha2Wlb0yEf8/+fJz0+Y10uy/JxCR8BMToEbVSU46w6FLqpb2AgYJ/5ClM8DNvnuz944WBpHu4uCuN4NAKhHPKgaACEYQHTqH0xGAce3Q8HYDGgWgP0zboQ9axgZKJu1RC4aDGTOpFOxtAMffoftbUCw3J+Vt5ieiGQwAd1I2JdG+Ma562POmlMomO+W3grDmYQsOhBbIxmoIyaBqM8mLICMVrJldR985exS84gDA4KAvH9dPq4sktd+jXf8E7/0YzRFOq4Hsq053UvbB+grkFBMR8GbuhFf+gIvZ/nn0KNWpvCXkuzlmR9wAcFXVTdwkH3rfzDMHz/Ih0aI5R/12be7WscJJ78njXlYmynndGOkL02zszNIhjGc7/Ug78igwMaK6o1PIXz8Oq6VUkihe9FLxlEBnhc5AxFm4cAyqCEnQgKTeSZtbEamdDTNl8gDZ/Yj9LqrL0WGZ0AJ3Vx5Bd1AJMh5NsQEF4y8QEEnMdYVr5/e8kaY7beiWejEMIo/XKMekEvPCIQ/cI34AF8JLoo0fXgg4jQNbMc84EyoTUr2T3qZiZ9wDd8FkVfDGUeAEnoJuwx12Eih/dN/sEEvMA3bRhu6R85+E4BtF3urKO+2618IQSdRgqDAiLBsNd9GOrxO5rwNinPYUEHo4XGVsJuaC0GxXroCOVIFhQhoB/iAyDShusABWNQB2PZeJaV/i27jdpGnkl7b2iL8Wp6qWVqhx5o+M0SG23bYIiDFs4G+Klnenz3eT7ZPgL4o4my9erqKja54tlGl6LM/uHhYT0HExQju9OyMdd6Pda4NGFtyUUfg4tQODX3W4gkNmRrUOia11DUWtIpcBDzEgIan1Yo8sEH9QBqa/ii3WsMI7SBfq/k0pE1tLZih+E861OOVovs8kOffEf39HV/f/9JLgjvyFJ//OMfr8KFjMcxaspGPQ4YjBxiJu2lXXK+D1Bs3EihxkxYAdakO5oUBIkXhijqQRNDhMC7JIDnZsihHfRCslP4Dq+0gQaK5NwiQxnAyMlzU7Q3cAwyvpvPU86E0EGvt3lSD34oLU8unOdANzgDbeG1/vrXv16TLSqb0JQh1MrslFmHxnafo5Oz/MMoFAdNxvNJaytz80536NEnylmatyYinHkLJW4WeGkeT4hmXKeOry3peTYEn+gLw9Pn1Owqoxxzjyv10QmlJLjQA7Ls8298oYdMpk/uQ6FtiM9okl/rg9sD/F6UL9YpXxyHcsgPYGLMF6xgFHdghotuGM56EzQzIStm0f/7ekYEHfoHMFZm0b0iQFE0LECnNi84bnl2yIYu16Hp4v7hAeBwDZAtmp5T4G/WDrjQ2lM0N/R6/bcgZcqIy5CDPqGJXPECSMwjzoesAJp8CDkopZTvnxScm1AKg3i+gWKlYhTuySDASQ+EwawVaIUtGudhHlR3ijBj85oGvIn29MOn6/Ra87HiMLiNh0zITN2X+qK99dfWNU98Wnb4YK0JGZdlWcECvffv33/iHL3+dYRCfexFH1U3eTmHbvq+X3NFCjRqrR8jyqw1D5Q45Z3Kff73nDuGySWjDm8LApkUBNroL0q8AIYybDwb1P1Ar9MwR3uuwxv92uvNdysr7e0Mk3aH4UzUWwQk+EOmtg4HoIfvg/4MYtQsD57gt2gzetV/EDLEwMcu/8MwFNkwOv1CFz7RFcXRrdVTRSAbmA72uT2Ra3iSFTrnOz563fTa5/6KyM6rHiiKZGJWMkfdl/IcyqLxGEExpg2EQVByKH8IDSE+jw74dDHtk3aTcWAojEn/BgXt5ibqWAYiDMbCy+ljyGWE7Xa75ozw3uV/B/EO/RBYrAf6hAdknjNQDPmH5ER8ZC8eeqxImABdBkbIsDBQE60ongUilIqC3CbkdSiZNghiQywZrg0O6tInBqEedABOSIEuKAQjQZN+XJ/v8M6Bjvi+yZVX14EH2nYZZVmUxEAcyF90U7Am+OATel3ut0Xf5rMt6ATaALvXH6Wbx67rvn81F4qBOQ87Jghz0UQCEA/TPgCchUB4vLBXfgOTeBSKaRUJLYPjpHfQYWToYSgUABjpA/75BGxcM+BoZ7pFwxi6wYDc4iD6RjonhgEoyAh40Hvf9/9tlz6fgAq+LRcFGXzedWuCmXepUDcYFUCmwTLqBToYC4WHhoguhyTCpIlTb2xmFzDXaX9Je83Kn7S2wmGDoACj30oc9S446nHQZzR889tg4hy0++bFf26D8UbtMus0fSdni+THNAwa+Lau4Rt5JiWf7ZqK6YZAsmjI8/Wa71KBNmUcx+/3o8DAlGF80o06CkYCKLPerESnnf6abdSCWlXGDQ3aFi09b/ON1bQnOtDHSe+Xo62LjUlEsHIWRRn3jzy0aWlS3C9ApL/aRC07mXWCbokw9B/SP7Ijb6dtnl2ueYzN5iUiEAAxUOCNvrADdeAfPuyAhRzFSVjJ93Ccch3EjKBg0IriER4lkm886+0HochDPzCF18A0gGhDMcMKR7xgRPpCwfBPf9QpCunQ6LWAB5/wSGGIRZEYFp3Am69Df25yC3gitzgpWXYBHPA05HPc1g8FuWx0zkcztK4gaPLPo96Vi57XV5zTIYKHnviDOJ3xieLpFA+NNNR+v4+iG15V+zFoB8BKRhWGPGigPBTDd3iqilTwTzFPViz9RZPc2himAdAcXR1JQvQP+TIcvsNvKPSjC4xa8kV+HMiy6LmpUTOhiPgkseWAHvakz5cKPHBE2qTv+9jrHS2AsNYM0RiRThCE81Yev+ecGhutAO729jYO+T+EQ/NSGX5X5REsNuFxeFavlVmUBFBAPIZOgWJRggffVpiNB2hox7VRQx7XTYPvKJM+uQZPszaTjxk53RdgG/LfSKiP3qfcakBy63b8hhdAx3cKvLcHPC+6JdLnSwsAygJYqYjAvAMflMUL+QDGq7XGZ599tu4qZ8hpDYEyAAnh2x7nDcMoFb4wmj3HPHENnov2oYzNq75CQ8CUNzFRJLSRzXkUcnDAgw1PoT/aRW63QK69Hp/tFMVKPg/EC4WgMSka0h+AGpoXJx+1K46+lwQEQKZYJyGAwz9HKeV7oCDsSa+mqFpPIVKgKL7TmZliJxydAAYr0F4WzaIYSjHguI6iUAx8RHrORi/wZXYBnUkLVADD8gAYjkUOFIpEbhNSsOmRWHbpHDx3w9BEwopMi0B9dna2PtCF3qdMCUgL0EtRBOk1E8Ppooma/LbOoAGdmkMddU6n08fnelC4X89VldRBDGXALCCAKHSe8u88iDz2DEcHFE97FOWbeXy6EJXaYYl+4DVScEcGriOf5aKgbIOQ70UAw4EwmpVu/umPvpDbSSNyYyjkMfj2+318+PDhk6GpV87X/van9YjOWrnpe8hlDaJTKfnm6pJ3jT98+BDRZPazwjECE21qLs2fcjZC9g+4ELT8QCSxMYxkeIoG/aGZCfwAGgSiHW35hG/qtaVVHqAwTWSm2AjmqSiKAoxZz8qgx5KgI8J0uokauW2ApBX9Pj09rdsB2j5bueCVT/iFj5CeqQcdQLzKiCAIg4EpJoRB8WQrYEnEj/nuL69A0tmcUQSQtN5jY9Nv0fK1x28rvFX+DxmwvQ4/gGIRKN0/33190jSWc9D5oT7QF9+XZtZEZDEtZOX6mNs+WlkWRQfsZ0c3nxTLQ0FnODRyVog8Pj6+2IAjUmmD/uJtaZbrUQAhtGQkmZuX5EQKA5gAHx5EnrHL11FdXFysD2LziCZhFv5DgjO8cQ1AWrnIgCFpj5wv0TzqMRH6NxCLhiX6tCFG3dc5asme/qAPLYy/CFChmRb0DT7KnMku3w0YAGXeW3uX5r7b+u8aj4+P60kIhRTFNaIExvWNL65t9W72KfdZ7PPNhaZdtY+FnAPgABCDw0MewsHjrJmMATApYtgANqBl5Hv7GyWHcpyX+H4JOHzCE8Mr4ENPk1ZlzV+krnrNZB4fH6PqBmEIELSH51ZeCjyiRxccnyhXp5yaAgLG8RYsCEv0YP0EBdFhVS4w5j2jvd7sgxda0VVZP0wOOWsBIPZgCoohR4JX6nAe8KAw+qZfaBlYSwIFL21BMDaPjlCHm3/IVRKYJy30wXcoP6SfSf+QRh363u12seSMihcLY6sxhyV4KVrMMx8GEPSR0zavegV9RHwceniW1QKjRITimpnDSHSEscjKqd8effN3IygfgBBl6AtjYOSWL85hdCulNvdwoIny4HNp8i8KfflcqA9/p58lF7CKHAl54Jt2ONTT09OaE1Q9lIXOSNqZZiMz15ADudBtyNHhkd+0gWd4QlZGgoj4+GouHsVAgRaEA2UxdZ2UAxQ9AjonulFAyeVpogyCd9oDgRdeXl6uEaT1BhcbF75sYITmWpdhlLDu/t0GJfK9NpHHEQ09EQngE8+mPcbc5gPqtdZ1wzlgoD7HmJGYfI7zS25W3+brMJg9Ih8RlH454LmV1bqDf3RnYNdao/I37hgHghwQxiMByqw7x9QjosD4nFPlNjpURReEwQOhh3AW2ICBFuf43V43Dfp0gS8AGk3/fIfXVi+AheED8GF8fhMdzs/PY5PbGRc9S73olgQGZwiCBnXglWhunqKJENgKoCGTZaAe9vR3gFuf84WzKB2luOOiJd0ht8ttNpu4uLj4xBhFK7pszeN6r3wE2tT3+V45D3U4EMr92eMxmpWH8luFcNAH3h0CmcFiXkL5D+M4Rj3pzY8AAJ2yrYAZnYE0Kz+AzqyhfaPFuKurq+ia9+NhPwAYmh0hD7oOOQ+6QoemMeSrSPb7/cfXh1KsiLZwzYA6z3/R4LrrhfKTlq4Fw2DQjGbIcBtoueApKNpRJtQXtFECbVBOacZwH9FETQzU1uE6oAMoGz2QDkguLi7i5uYmusz34NMyL81fs2DwPofrQUsV6KsqGli3rd7Ms79jB9oc879+amgMtDL5xEAOc22UmDUlg9GSuYl/0w8MwbyFgQbGhena3A+hTTShEr583kqyUgwU9/lDILAM0Fy0dE7dTvd38GBAss130l1dXcWrV6/i5uZmPTa52w+wzRlRiFjQsTxEtqI3RZrnkH2hiczWH4Xz6P6Yq8HrOgrEMUI03mdCPs9vvMxAsKFhyuerdpLTH8XnW/7ow3QQdmlyEfrmWJoVUg4U2fJKf9SnD65bvqL/FOpzNZmcznwBpD7/26h9/hsHo0+GuHEc18iE/PBt3cFbe956hB9A3paiaB+R02N7PAUmbfwlp5AoF4J0iHEQOLR3pT2s3Dk9FObdrwWFbpEhDWquYzzOQ5/z8L806xqWyQq1/KHl9miiITkAyrde0B2AoJ+SkbfTAubl5WXs8t/TkQP+4KG+8DAXdSx/W+jbem3l83foV9Dpi1YsxUygHIwSygX4bkGo02l2hSAokT6ha+AtTR7RKsLG7JscJRR644VIZ/5RCv1FEz0413oqsneNM1CgRx/oBDn75vZFrxyk5fuku9UGSTRgsgwu1F+0Gjw2G6pcl3O1VRjFhmEM7HO/Q0TELp8MpE5JA085DYwXjIZybCjoITy/KbS3wlwsGMWgps9Jr/u20QAoBblt8PrC2hI0F+UogAPZ4IW2S7M+A53a7KPhN2DZ6N/KTG9uhktk8Xf4MU/IT13sxXcfRMj17jENrXiYQrm9Xsi7y11tRa/aouNFO9xDkaSl70J9EG7DwDR8uB9fpz3KszFQ9pT5iaMCdKKJLPBAHXQBwKABD/AVqTvrwHxzPRSdOB+arQzDEFdXV+tCJH36fpD57DR7tH5eKrVJFygAl1Jy5lNRqAWlon+jVBigDrMhFNy/sMgFfYRycmbmShrVQ1ZrENPG6PBWGy+gPjQ97EGXgqxWPL+hP2lBrSoKUM9KBmycRy92vDkXJOkbgHALo88hacgXG/c5szo2f8GyzzUc6h30hgjK3MzWWvnhyVHXpUZDBEVhBK6HFBepiClvYEHYKOfodYfVBkRhAGTWzjraUoc++U7UoK3BYUPCJ0JjiJZ+NDcQAab7LelQ8NzpQS7ot+2gb1k5AC+00UFRjgaw4b1vnu+e9GQnNLd6rBR7uQ//No/Y23rDFrXW7/ejWJl8h6gFjcw9DB6XWWMooDDoakYYhqKQIcw0/WHcVsnm+yWeodk12wnpvyqC8Z1P04F3aFAPj6c+bZd0jpKGGXR3nDJqtZj2AGeTaylD7srf6S/iBu08fP/+fRwOh7i4uIht/kHkolshAIWDvvgOKAAi5+HT9UvJrZAIZkO0yu/y9RYodsjx8+LiYmUMj6YzwAEjPmfanMND+O72tCF/MXBMA4VH9sXwFspfDJa2Du1eUiznDN4h73Zb4fbOSTcN0U9Nh4OmdYKu0b8jS83bAMx86B8ZuiYXW+Tc7g8+ACu80y+AQf5g6IGIke5CZS8goeguhyAUQyehGYmZDYXoXvnMqJfk1MazrVAMRR3qURb9vcvcJK20QQmOeNEABDlaA6+Ka5LnVrHwQt9FQzMAol/kfkk25IYeOcs0TXF7extTPp4ajZOYV/rgwG7R3MilGKhrm9DUFMEwPELySWOu0ykCwQCHr80vLKCFIkzN6EAdDOHr0QjMdQBhoNO3r7tPG7BVqouVSh0rNcQDfJk2he8GCDJ12t9j3ouiV1GORG7DG5JcZ9EGsJCstqUBattYR/RfCQqciCY/gShEQrvzo2EAgibsYQiPgx59tkLMmgVwDpo2GPxYsYCM+tStGprcVzQRjzaWoz3QDfwtGbYZGtq+0Q3toMF5F/TBd/OELnGGzWYTl5eXEZmET0rs0XWVY2ED64A62CjS/lwDONSri4YACEcDBAjBvEGAF1PmF/apQMNKC+UkMEY/tLWBLBhGMT3qu32IZ1+DpnmBtvuNlKf1NADpQrui5BqZ4wVQWi7rxnT5jsz022W+yOYlpstVG8po29KjX/RtXqMZLkPRsvLFlVuGXUiuSOAAC95AaXMdK4q+/InyEIB6tLVCKTYm/Tu0o1SK+aFYeS9db/tulUp/rayOqtEYDFkxks8jC/Tor2YiO+QywGaziS+++CIG/YEC/FhP6AWw0TfFsrQ2tE3qnB5DBzCJUqJROJ3AMOfa66GZS6sQmDPjNlhRbmGa8GpgUt8HdV9SGN/9uzaLgW6LgqFNPQ5kbAHTGsbyu5hvDN06GYua6BwAXl9fx0bPHR/yQf+X6McL+ZF5Ks1wi0zoviJQSLlj86wxCoMwxKJ5y0/koxpcgymj1mBc0lPok/rQsxLd9w9dg1cUF8rqaYOCuA4fvsZ5lAV4AAV10RuGLQKSb94hf9un9UtbvltHrZzt9z6TXAyLoc2T+fU1+PI16180/3sYsrL43emOroVye5h022g6N6jMIH1wnn7ghTqcx2hWKHW4xu+WpvmkAAT4oB2yQrMF80syux40OOCBtiWnzaVZnabfuZlNMfQPuZDHJ/W6TAc6bZU0T9aNbQFP8EXUgmb1IwJcZK4eGRWGYYjr6+u1HvN42nbNVPglBqGFEAxbCOj5vxWPN9AeZRYBwqC1kecGSCjKxcqCLrQoOAi8891REL59RMrAb3gJOQa6mHPGN+s5JfSIPLQJveQotCOu6rEOftMGGnwHdMiCHK1toL8mszCGMRGIxvybA4qEkI+Q1/MdpqzkWeAxPQqGp60VbP7MB7TMt43lPjAGRoR+K0MRGDEK5+DBtNGf9QFt6gGOpTEObZAbHqBLe+QjkpS8kXc8Htf8ZW5WrkOAdXGfAMZ64nspJSpLviHFtoaZE+3bfFQUJqs8mGMl3CREbb1J+0NAsWlgDJSDsRCoVX4oAtkI0EQerkETXnvdqUWBGMLtzEfJ/ADPLFoLidQj/Hba3QbP8BraCUh780lZNBuE/0hdASbOUcd6tC5cz3qouu3Aua7rvv/zSV+AiJmKFByjIijKcF0O6EGbo6WNQEQ1KwdBTNfXASB1fZ1P+IMObVyPa/6cdO8JOS2H6dio7o8CXehR1/IBRPRGnU63SeA/9KC8+6XPuZk1YgfqUsd14cU2QsY66n0kVIgmMUMpNAZYMA8CYYZiYaNBftFuftrBlJVJXUcN17FyXajPNdPB4NDjk5xgUtIHADASNFEy16BNv9CnHQfXMALt6ceRFcMzA0XPTJMtT9VWC2hyre3fAFiaHKotyLG+uZpGFgyF8RviNrCRSqedEjTOmVEbaUWsohIH/ESTh/i6jYsc0DEgXuK3NAkxn+aPA3p8t+HME23hxeeQ34aiva9R18bkExkAip0UHtEVQIQ2xf37aPU1O4dB4DGfd/VTbjykzHOwKNMCWhGcg9GQZ1vZbXF9fiOgv6MolMbvWc8VRTOU2LjtQV8ctG3BxDWf59N84lgUzptf2oYiC9+XdE74o/9WBgP0dPr4VGFoQQ06p3xqca9/8Zi0K+6od7Rgd2Zc/jwej1H+/u//fqFzKwvByaa//PLL2OV7SnhYaclb+qEsfM5QCeLjBSBEoyR+o0TzEfIMK9DKQrkO5UsDKvcJX9DBEC5tf/yGftsGWaZcLoDGkpGBNqZNgQ58t+05zDu6BgCDtkF+++2369OF7969i9B02v22NqAPimX6P9nfwtxvRTWGAAAAAElFTkSuQmCC&quot;&gt;" style="rounded=0;whiteSpace=wrap;html=1;arcSize=22;direction=west;container=0;" parent="ra58XeEpIMUWKlB5J7gt-26" vertex="1">
          <mxGeometry x="5" y="5" width="135" height="140" as="geometry" />
        </mxCell>
        <mxCell id="TDeMeSc5tqtRhKriEZUa-13" value="&lt;img height=&quot;136&quot; width=&quot;139&quot; src=&quot;data:image/png;base64,iVBORw0KGgoAAAANSUhEUgAAAIsAAACICAYAAADXjRhRAAAAAXNSR0IArs4c6QAAAARnQU1BAACxjwv8YQUAAAAJcEhZcwAAFiUAABYlAUlSJPAAAFSPSURBVHherb1XjyXJcf79lD3e9Onu6Z7Z4RrRQoYEIQcIutGNLvRB9Dn4PfQ1BAm6EAQRJERAJGi0s6QWa7gz2zPT/nhb5r3Y+CVjir0k9cebQOGcU6cqTcSTEZGRkZlRXdf1q1evdHd3p7IsVde1oihSXdfhdxzHb/wXx3F4pq5rHQ4HlWWp/X6vqqq03W5VlqWqqgq/1+u1JKksS0nS/f29FouFhsOh5vO57u7ulKapDoeDXr16pc1mo7qutd/v1e/3dXNzo+vra/V6PY3HY7VarVAHSUqSRGmaqtvtajQaqdvtSpL2+72Kogh1WS6XiuNY3W5XaZrq5OREk8lE2+1Wq9VKeZ6rqipdXFyoLEt961vfUrvdVl3XyvM8vD+ZTLTf77VYLHQ4HDSfz3V9fa37+3slSaJOp6OyLFUUhZIkUZIkyvNcdV1rvV5rsVhov98rSRIVRaE4jjUcDtXtdhXHcXguSZJQ3/1+r81mo7IsFUWRkiTR4XDQdrvVfr9XXdfq9/uKokiz2ewNmh8OB61WK+33e0VRpPV6reVyGfjxu9KjR4/0+PFjJd/73ve+t1qttNvtAvPjOJYk1XWtqqoURdEbV1VV4f/dbheIstlstN/vtd1utVwutd1uVRRFqCwVPhwOiqJIWZZpu93q/v4+AG6z2YTvR0dHATDz+Vzr9Vq9Xk/9fl9xHId65nmuKIrUarU0HA7V7/fDPdpEnauqCuWnaarT01N95StfUV3Xurq6Ul3XarfbWq1WiqIo5B/HsZIkCXl1Oh31+31JUhzHqqpKu90u0DHP81Bemqbq9/sajUba7XahMwGKuq41Go00HA5DO7IsU13XyrJMrVZLZVnq9vZWd3d3gbbkQXsGg4GGw2EAEKBtt9tqtVpqt9saj8caDodqt9tv0BB++hRFkTqdjr7+9a9L0hdgWa/XoSc3gQIhYiddYP5utwsIrus6gGO322m5XIZeBag8AwBhVVVqtVpqtVqqqkpJkgRijcdjrVYrffbZZ7q8vNRoNFKv11OSJIGYNDCOYw0GA/V6PXU6HSVJIklBqmRZpizLwr3VahXA1Wq1tN1utVgswvP39/dBOq5Wq9CLN5uNdrtdeA7mQy8kDf/Hcax2u63BYKA0TbVarbRarUJb67pWt9sN0jJNU7Xbbe12O63Xa02nU81mM93f30uSsiwLUrSqKhVFoSiK1O12dXR0pHa7rcPhEPJP0zR8ZlmmwWAQwJ+mqXq9nrIsC50ZkFDWW2+9pTRN9dlnnymWFERwURSSiS16Hv9vNpuQUVEUWi6Xur291f39vZbLpe7u7nR/fx9Ea7vdVpIkqqpKpakoRGiv19N2u9V0OlUcx+r1emq324qiKAByuVzqxYsXurm50dXVlbIsU7fbDcSKTMrVpgYTE/NIlKIotN/vQ6Pj+AvVmWWZ2u220jTVfD7X/f297u7utFgs3ng2TVOlaRrqk+f5G6oPiQgji6LQaDQK0gagxXEcQFCWpdI0DXWnYwByGHo4HHR7e6vPPvtM6/U6PAvjaQuSKcsy9ft9tdttFUWh2tRRp9P5rXfrug60GgwGGo/HGgwGgV8+76OjIz169Ejz+VybzUZRXdf1xcWFrq6uRCqKQmmaBokA4mD6arXSbDbTbDZTkiTq9/taLBbBTkCvF0Wh9XqtsixDz4YpRVHo9evX2u/3yrJMURRptVppsVhoNpvp6upKt7e3qqpK4/E4MAIw0KCiKNRqtfTWW2+p0+mo1Wqp2+1qvV5rvV4HxlemDpAO2+1W2+1W4/FY5+fnofxer6fBYKCLiwsdDgfFcazxeKynT59qv9/r9vY2tAebpdPpqKoq9Xo97fd7XV1dabFYBKlxdHSkPM+13+81m810c3MTpC5qwYP8xYsXuri4ULvd1nA4VJIkwdaoTI3K1GOe55pMJup0OqrrWre3t9psNsrzPGgAAF6Z3RZFkQ6HgzKTztham80m8Ov4+Fjf/e539fLlSz179ky73e4LyYIaSMwQ82lvBuLhcND9/b2eP3+uX/7yl/rxj3+sH/3oR/rwww+1XC61Xq81n881nU6DlLm9vdV0OtXhcAgSoCxLvXz5UpeXl6GS19fX+vTTT/XRRx/pf//3f/XBBx/o9evXis3o6/V6wTikx/Ldi/vhcKiTkxPlea5er6fJZKJ+vx96lUxyyNRW5CRZlmVBPMdxrCzLgl2CWgPwSLba2UOohNjZL0iSVqsVgF2WZejxkbNP4jgOgEKSdjqdYPsgRWTSPTJ74ujoSKPRSHmeB/VIQqo0L9qYmOSXpF6vFyT348eP9ed//udKkkSff/65ttvtF/kxGrq+vg4MQAcnSaL5fK6qqrTZbPSjH/1I//Vf/6VPPvkk2Ce9Xk9//Md/rLOzM/V6PZVlqel0GgqQSRGIDahub2+DXYPoRPTTEAjd7XaDmoLxext5DYdDPX36VE+fPg1MRXKgAgETkhIpc39/ryiKdH5+rk6no+12q16vp16vp8vLy1CPfr+v09PToB62220AC6Oa3W6nJEl0dHQkmXQFhO12W91uV4vFQjc3N6rMJhqPx2q325Kk4XCo5XKpjz/+WMvlUqkZ32maar1ehw4nAzwd4ujoKNhc19fXQZoCZIAFoKEJ/N1ut9rtdtrv99rv9zo9PdWf/umfar1e61//9V91eXmp0kZMQQ1dX1+H3oFtASAWi4V++MMf6oc//KGurq6CajocDkrNIMPqlqTVaqXS7B5SnudBTbVarVDZ2BnURVEE+wj9ned56GF5nivLstBzoyjSkydP9K1vfSsYatvtNohYSWF0JTOqsQGiKNLd3Z2SJNH5+bna7bY2m406nY56vV5QFUVR6NGjR3r06JH2+72m06k2m00g/Hw+D7ZRmqY6OzvTYDAIBiq9vd1uq9fraTabKYoiLRaLAOLY7Jqbmxt98sknQWoMBgNJesMUaLVayvNc7XZb/X5ftQ1KtmageyBDW6SHnC3lQbXf73U4HDQej/X1r39dg8FAP/nJT/TjH/84GOMCLM+fP9fl5aWiKAqFynrH7e2t/uVf/kXPnj3TcrlUZLYClaBiu90uMFLGfBDdsmEbPTc34wrmxyb2GRKvVivd3d3p+vpa7Xb7DTAm5peIokjj8VhvvfWWzs7OQk+7v78Pw3PPDHoHdVubD2O/32symajVamm5XAYp8Pr1ax0OB+33ex0dHenx48eh4wDU2gzdqqreqOfZ2ZnKsgwG/9pGm+PxWJ1OJ0iL1Wql9XqtyWSi29tbffDBB9rtdsrzXKPRKNAYKYG0xY9UlqWSJAkjsN1up81mo6IoAj0j86kgUUqzYyqTrvzudrtBhU+nU718+VK//vWvg/EeRdEXYHn//fd1fX2tyDlzDoeDXrx4oR//+Mf6yU9+ou12qzzP9Q//8A/6i7/4C11cXOgnP/mJPvnkk1AJxKRMX1YmqdD9i8VCeZ6r3++HEQI2QW0iOzNjN01TLRYLrVarN4aNqY3QBoOBnjx5oqOjI52enqrVaunzzz/X1dWVVqvVF9Z7FKndbgdQjsfj0JsWi4VSG5mMx2OlNqzt9XohLwjZ7/f1+PHjoGILM6oBS8+G6zLn4NnZmbIs03Q61Wq1Cn6Ro6MjnZyc6GBGNhJJUrDXoigKdhY0LctSo9FILRuNjcdjRVGk+Xyu4XD4Rud+/fq10jTVcDgMdUJNog0SG4XVdR3cAmdnZzo/P9dms9GzZ8+CvXl9fR3eSb73ve997/nz57q5udFyudTl5aWurq70q1/9Sv/5n/+p999/X7U5qlqtlv7xH/9R3/nOd5Smqd555x09e/ZMMjWDfs6cLwAR2zNnGtIBYCGpEhtu52bIdrtdHR8fq9vtKoqioFdlxthkMtF4PNbJyYl6vZ5Wq5Xef/99vXz5MqgK9DDgT5JE3W5XBzO06TGMtBJzYnW7Xc3nc8kMy36/r+FwqNqMdGyFxAzdnvl+JAXpkue51uu1rq+vNZ/PVZvj7fz8XLkZrYnZQ7PZTK9evdLhcAjqBeYWZrCORiN99atf1XA4DKoEdUg9l8ul5vP5GyZBZCMfJKBMlWU2mpOkr33ta/rmN7+pJEl0eXmpi4sLrVYrxXEcykjT9IvRUFmWur6+1ieffKJf/vKX+sEPfqAf/OAH+vDDD1WWZdCR3W5XSZLohz/8oT744AN961vfCnYFzyAdAEzmHGGI0+VyGfwTiLtXr16FkVPbPKig+vj4WCcnJ0Gy+GF0r9fTfD7Xy5cv37ADErOH6Jnr9VpXV1daLpfa7/dKzZhGzPs6p2mq3IayqDAI3TUH2nA41GAwCGD24FutVrq9vdXt7a1ubm40m8202WyChKnrOozyNjZcRZWNx2N1u13lea4kSVSa7ddqtTQajfTNb35TT58+DdJXzpNemWe51+spMnsxcj6nwg00ahvFPX36VN/+9rd1fHysV69e6de//rXKsgymA9IsiqIvJMtPf/pT/eAHP9DPfvYz/exnPxNqCYYMBoPQW/7mb/5G7777roqi0PX1td5//31FUaTcDTsTG6IhWeIH3OE0krTb7XRzc6PpdKrBYKCTk5Pgq8jzPHhahzZ/0ul0NBwOtd1uA0Om06lqM+z4lLOtSvMT9Xo9yQF4MBgoy7JATJkjEgaUZalut6tWqxV6LZ3gYKOU2gzFoih0dXWly8tL7W2+praRnkyaLJfLoCIWi4XuzVuMCiRBwyzLdHJyorqudXZ2pvF4rLu7u1B3OsBgMAh1TM1PVte1NpuNNpuNEpPebZvrOjo60l//9V/ryZMn+uCDD/Tzn/88gLYyD3BsNqSkLyTLp59+qv/+7//WL37xCz1//lyZuYVTm5gDKDT4L//yL3V6eqp///d/V13XajkfTW6jl+FwqMlk8lu+jpYNhbvdblBN/O52u9rtdnrx4oWKogjOKpj93nvv6cmTJ6HBu91OV1dXKmwUBSBQM5WNWGRiWs79jyG/MBd/ZoY2kgYpQQ+mnW3z/ubm0U3NttiaF/z6+lrT6VRLc0yOzY1PR0El3tzc6Pb2NkiNo6MjTSYTVVWl/X6vOI7V6XT0+PFjvfXWW+r1eqrrWs+ePdPHH3+s8XgcbK29ec37/b4mk0lQhagiOk7HnJa73U6S9NWvflVnZ2e6v78PbgSeh9c4Bauq+kKy/NM//ZP++Z//WRsbMnc6ndBIRi+A4W//9m91cXGh//iP/1C73Q6zxUiQyOYpEOsQFIkDob3kQY2lphqKotBsNtPbb7+tttk4fZuIG4/HmkwmOhwOur6+Vse8pxi2iHmAA1hqk2J784QiGejRmQ276SDeZgFIPZuWqJ0jbjqdar1eB7UDnTqdTpBWSLAkScJweLVahXeHw2FgShRFYQg/Go00GAyCcXuwUcxqtVKapjo/P9f9/b1qp0aPj4+V2ZQB9D0cDhqYaz8zVX58fKxvfOMb2u12+ulPf6pf//rXoZ4H8/rCm7u7uy8ADMHkZhkZNdBgGInkmM1mOjs709///d8rslEPDOBChEG4yWQSJIVsZEPekelVRB+99dNPPw1SBNvAS7GTk5NA4Mrc4PSiwrzOMFxuOL/f71U6z21qkoP8kYyDwUBHR0cam/OM9tc2itiaH8r7XpA4tAmbA/rEcRxGJ0VR6P7+XrvdTv1+P6ihnk05tNttXV5e6qOPPtLHH38cpBagmc1myrJM5+fnOjo6UpqmevLkSTAbOm5uCNWS57n+6q/+Sk+ePAk2ynw+D3WsGjYf70ZR9AVYEDmZuZjRzy2zmj0QNubkuri40LNnz9QyHUsPRExTWGRifDKZ6Gtf+5ree++9oOIARmxSKTX9TJnb7VYvX77UcDjUaDRSp9MJxJako6MjnZ+f6+TkRCcnJ3r77bf19OlTPX78WO+++67+6I/+SG+//bbeeustvfXWW+G/NE21tSl8JBmiNzJRDKGoZ5ZlgfG+HluLJZEZv7SN0RvAgD48X7ph+M78NsfHx3r06JEmk4nu7u702WefBRXBEJfOVZuqvL+/13q91vHxsdI01YsXL1RVlY6PjyVTuwDv/Pxc7777rvb7vb7yla/ovffeCyo0N7uwa/E08ALe5Xn+BVgSN+wbjUaKbVrdqx8I9m//9m/6/ve/r1evXunnP/95IF5m0oQeyju5eW5RRx1zWtFoubkO6oKdlNh0Q2Q9HvUzn8+VuBlb7CMABZO9aqN+nU5HT548Ua/XC2DmUyZ9vDSAMf57ZjPgtI/RWbvd1n6/13K5VJZlQW0eHx8Hx19po8vIhrSUW5rxjb1ysOFuZENzpM54PFa/31dhnnaZAY8Rirq6tyAsJM6jR4/0d3/3d4qiSLe3t5rNZvqf//kfvXz5UplJ+MSkCDQDFwwAYgqT+Ur4A7HrCZ0kiV6+fBlmizfOLZ/aMDR2Q83IpApgkvlI+v1+mIlF98MIdDs9EUcRPXC/36vVaqlvjj3qNRgMNJlMdH5+rq985Ss6OzvT2dmZjo+P1XeTgQAXcMEEiJOalN2b0VhagFFsqmxvNk/PJt5Qkf7yoM1tlFiYIw81hcqN41jr9VqfffaZrq6uAigxXgFvWZZhSL41n0lhhnlqEnG73erzzz8PLofNZhPsm8lkorOzs2CX4sBUY5LS15m6QJ9YJqpkqIxMKiCG/RWbwYN6oufm5mNJGjPWPo/UhTy2zfHU7/cDEGEWlQS4/X5flRu95HmuIwvyoTcAMCQjaguxyrNts38ANSACyDCFOlQ2MpLzZextOJyZuiRPRnUd83PQQxkh4TJAknRs7icy2wb3PzQeDAah46G2GFExqgI01Dty4ZJ4vQFwlmX6/ve/r+VyqXfeeSfYTLGNAOmw8A1+AJg3JEvHjLrYejQM8ExMzb6IXOBNbBFqAwvg8YChoVS6Z86i1GaTYWrbQvzaNtnWtsiy8/NzxRZ6UJblGw41Ly1kE4a3t7e6vLzUq1evQjzMdDrV/f19GHmULi42t1FY7uaoZL0rNmkAfWDW1oxaudlfQEkvJyEVeIYeWtgUyPHxcRh1VmagV+YthQaou9JCTgHw2uJ19jYJuNlsAg3zPA9AyCzk4J133tGHH36oo6OjMLSPzNgHdPBYLryhMq0zHA6/AEtkcyhIBy/a+AQkXCAxd7PCSIrahpY0YrlcBv2MTm6Z1d8xq73b7arf7wfQ0VORFqmpuZXN+8gkIrp9tVqFeJrpdKqbmxvd3NxosVgEcTydTrVYLBRb701NhdJO7B/UBWqRjlHY6MZLso75LgAaaT6f6/Xr18HfUpufBjUPSFGDudkxu91OqUlr1JkHzMF8SHz36nljobGZzYMh2TY2T/btb39b3/jGN/T8+fPgYiA/2UAHeiBR4XcAiwdC6gzCZk+LnIoiI8StTI3xPoUVRaG5hS+u1+sgqlFJSJezszM9evQo/B7bZNnR0VEgdmIqbW8BQp9//rkuLi50d3cXgIvEQOIAfnrJZrMJzKInAQCkX2LGc27DfMCfOb8RebScx7XVamm9Xuv+/l6ff/65Xrx4EfwvRM8tLaKeetHp6HCxRfLTCVOz+XIbKCRu1p0OtN1uNZvNtLQgtINNmbTN03xxcaGPP/5Y3/3ud4NKA5hIPs9v+MwFn2MamTjdL2dvAKLYGXl1Y8RTWRhCYqMN3qMHt8xCn06napkfo2VeyydPnuj8/FzHx8dh1DA0J1Wv19NoNHoD/ZXFYtzc3Ojly5cBLM26IzlgSuaMdozXyI10+H2wmVnyi00dxSbi6Qg8h5iuTQLd3d3p+fPnIe4ncX6j29tbMWk7tQAxxD/1Rp1FNvvctSUrqE4P7tTMAlTU1lZV4N6gA+R5HgxbIggw1D3w4TF8hT7QPpYZW6DcvxCbNEFKkGo33wG6W2b0jkYjZU6NoUZg0uvXr5WZP6dlk2M4vRDTo9EoLNEAfHme63A46PXr13r58mXoQRiHd3d32llMDb0kNduoZW56mICRuLe5HM8IVNvOXOL06JZN6Zdm8wBggLO0APOLiwvN53MV5rvJskw9C8YuLXZXkl69eqVnz57p5uYm0IlnkCa9Xi84HqlnYc7LwqY4YGRinX273Wo+nwdJg8242Wx0cXERQFqaKoOfdIaOTRPQCQBjVVW/8eCWbohYmXVMrwM09FSARIrNQeXFI+8CHJ7fbDZqm0cQ6UADmJUFSEiCyIaF9EhAIrc0AiLFLn6WcgCOr8vKAqRKM1zpmYxa6G3+ou2V2WP06HuLN37+/HlYrEfnKyz4vW1GfGSjH8B4fX0dohSpW2xzSrFNMQBQeMRz0QMOxMjsQlTe3kZv0+lUv/jFL3Qw29HzMHajrsima6hH7SRsLCcpKDy10QYjjrb5EriHEyy3AGOYQMFq2Dk0BpUEEGEgxN/ZLC+E5d7l5aVevHih5XIZmFa7MMzKfBaRBQTJJELL/DEYzUhQiOoJQZ0rmx1n2N4cElOvlUW57fd73dtyEjoMdEDqpBaMlLoYY4aukjSbzXR5eRkAnJjf6PT0NDA/MnMAiUVeqP/c2VeFOeym06lev36t2Wymw+EQAroqG91Bs9ikCh2EIT24qJjclKW0EQHftyDlx48f6+zsTEdHRwE8HTNQ0af0dA+6yPkp6JEwarlc/lZPis3OoAzqNJvNgoqhARADYy21GJfj42MNzN0OwCFmbL2UoTo62vcyvnsA0ZbETU0geVELshALRL7c9Edt80iAgHwoH2asLCJw6wLdc/MNeaAgvWNnKrTM6MYuiWwSdWvxzPf392F2vjA1lptDtHYDESQXwJNTb3Vd/0ayxG6MzUM9Fy+Lx5PRymg00pEtQ6ASnvEQGFuEnkCjDxbfSi+ReXeJA83zXIvFQh999FGIa+F9vvct3PHk5ETHx8fBWUcZELQ2tYJ6Ozk50cBiPzKzbyAIbYdRlEVHon0A9ubmJqiUjs0ZpTar+/Tp0+Armk6nQd0D8shUNuXvXbxubGBlhJa6YW1ptkZhKytXFlQNs2kTEpsR2nQ6VW6jLEALPeXMEX7DQ74HyQKDuWQg4mGeadloBpHlh3OJLfHUlwy3yZsKUeHEhSAkxE4kie7u7t7oafROnh0Oh8pcKGdqYhkVBMM7bnUA33s2s4t+RjzXbl10YkNo34nkaLWz5bur1SpIsclkEkBbW+DR3patyMUmUw7faxeshfpNTBqfnZ2pY3HKPAedoCWqCnp6HnIVRRHAV5gmoEzqwnf/P/yL5VQQhbXMdxC5aXUyI3MqIBt6l2X5RjARz8j5OmLrlTCGBkU2TBxakHGr1dJ8Pg9AodK9Xi94S9vmR4jdqAfQkLa2e0PdUIWJC9Lq2xwT0g5mekD7DkR9Di6udW/Rd6enpzo/P9d4PFZiHWhnsbS8U9d1KJe8Y5MG/K4t9BTpeHp6+oYHODDPMdKrkNSkOM/yPbaBCHykTc18kPjUhSuW08sUhp4nkSkZ0WgYgITZ2podKhK7CSpEPvmA4rIsA+MpdzabaT6f62B+jLa5vvvmIYZQqVvYXVqcLbG9d3d3ms1mWtgKgfV6rcJNvHmC52Y/lKYa4kaHgD6lG5Wgemm7LKi67WZt+Y86rmy3Cpn7fDKZBHVIuamNJFe2HIZ6Hh8fByMZJkbWmRMn0akrF/zJbTBybYsJ4V3ibBK5MNFutxt4RL6xrOcnDUdabFY/PQzRVJiBxP3IpBGMJA8+aSwMkvOIxm6YC5AO5rwDKD3bjwXDNXFu9sR8N6iD+XyuxWLxxrwJAN/bSIUeCMF9+2GwBznMof2VC9DKzIcyGAxUmX0A4GlzlmUaDoc6PT3VeDxWboZlZi754+PjMMqibZV5mq+uroJ6GduaI+qOZIbm3rgWzG042Arb0ADawjs5NQR9JpNJABF8C5KF3gRYIpMmiGePMjlRzH3fC/n0BIPA3AMwgCy3uZjFYhHE7XA41NnZWVCLuRnbqI35fK6bmxvd3d2FkQC92YtsQJBa0BOSDYLJ2WNIBjmD79Dw6/Bc20ZVEHltm+cUFk2/2Wy0sFWCeZ4HQxwjPrGQCeycvgXIA/CZLRGhHX2LpgOMJHxDapgHPtG+LMtC7C91AAykJEk0mUxCp4GnoUQKgbmgUm5YBVHIQEbQ2ownKunRrIbTCCDyDkPxLMu02+2CU6tlgT5Di01tWaB3bOtjrq6udHNzo5XtZgRoM/Pgpk4VtMyLS9kw3xOVXuoBXdm8y8biaWiDBx8SJbYREstNmNhcWrjA69evdXt7q7quNZlMwnqn3GakifjLLBqRCcCXL18G1XB2dqaTk5NQ38SMXGy7yqQfIPcAik2KyyY5sfvixgiWq2srHis/HSETtXljbM2D/KZyTRTSizAkfeHNitCTAdt4PFZtBt9isdCLFy8CYDu2zVbm9mXZ25YXV1dX2ro1vehrelzttjijzvRO6oERB3H5nw7BO6Sqsb6IdiXmYkhtBeXl5aW2221oM+XXJkmn06levXqlwoKhqA80qS1uZm1rsrMseyNGNnHRbJHrsCTukSf3uE+HQGKWjTXppYub8fcFWGi0JxaV8QVSqdhGR9gL+AZ4jncgOPd4T6ZSRha1DgAjE41pY+Ks2+0GkXxv0ezkmThnX+FsisyFCnqwwjg6g7dlsHGoJ6BFAmTmZCPtLJwgsmW/GLCz2Uy1dQLAm9qIDVBuLaxiZztibW1y73A4BGlYm6F7cXERQDqZTHR6ehroFbmVCkgBf8kkiwdMXddBYkEXMMAzm81GIwuR4N3fKD6X6KlUgl7hAbXb7UL8CGKQAnk+MpG/dguzIVzP5jz6/X4wRon1oOy2bXk1tcVjXgrApNhUBkzInWe2dHNeAMgThP8Bsozgmdkl6PjMzTXF5qrfWCAS4CDcEWP6YD4h2gPwkyTRzqY1oM3G4lAAU27D+k6nE/6PTKqgPqAxvIL+0CRxGqDZYWQ8HlggN7wBNOQ7sGUr5PcGWDDcqBhEhPAUlNhQbW7bTdDbYAIVlqS12xWRBsZxrJELaELnp7ZgqjJ3NEyAMfRuUmx6OLLe1bOgqfF4rNPTUz169Einp6ca2WY39DCATH2QmKTM2WwADEB6etSmAvGl8Bk51zyMip0PBGlMuaUZxzvbQSF3zsTMpNmt7YIVuZHPwbzg0Bua0y74xT34hMmBkU4daBPfR6NRyCeOzSknsz0gOAWTOQ8DhrXFi3pQeaBELk4iNkcQDK/c0BMRhyoqzG8Rx7Hubb+2g03E5TbKAcyxrWsa2m5PI9uGgnrSaMCHgYxKgYkQVg2bJ3H2WWxA9gDzQClN7/MeDJ3P5yptEVvasH9WtocN9sfGJv42FpwFXSeTiZIk0c3NTZAiHVvbVZlB26y7B4YcT2pn6EZRpFevXmm32wWJWZv0rky6ggXaG8BSWc/t254eXBQG4yMXIAQxeS5uTL7F1jsrsw24j4+E/0kQDqBgZNVulJaZwcuIYmhbmeKJ9WCInH+E+qQ2yUgPpk2+zpTJxT3fRjkGUS6qqmPB2Ei6o6OjMJynV/N+am6EwuZ5rq+vQ2B6YmqVqEEZbcmzdstWYCqJ9ugBV35knfn+/l6xxTjTYekMBzN+2y5MJPYZgzqIQyH8Tt0GfhTqCdy8IEhkYjsyAxZPJKOBgzPqFouFbm9vtVqtVJvEAlCtVitE1PUsdpXyYdpoNHpjYnFs62yoT9XYPhXVEnpPQ6ryu0knGAlA+jZb3rd5q7abQEWsVybhcDJGFqdTmFu/tKB0Fvr7GXT8K5RJJyRfX3fq6n9DS88X2uH5Rz02tpi+bxssRYAlNn1KBciQngWRU9uxiBCDujHRCCqpGESPDHioLgjQt2UesfX4pW3FgdqSNRrd2rawg565z2MHbsr3oxt6B8DMzYEWG7CagGm2gbr79vn/KT8zYxzAQ5PEXBD4grA1kIapG8HBrNrmhS4vLyWbiff1RxryjudRaqoS2lN3/923o3Z74vn35Oyhnq3IqHykHD0EY7NZkdicTnsbXnKvmTyBeZfv9KCRBWiPbSeAbrerlcVzlM4dL1NNLbM3MpsDqp1NEbkRF46wu7s7TadTzedzzefzYB8g3XgXJnQsMJpEGR40/ObyDEKitW2UUte1erbh0NHRkYYWU4xIh0Z0GiQk91FJr169UmIjIKQK7U3NjqudivZg4YL2zfbI7NSbmxvt9/s3TAPqUtm8nLBbZUzv2Xodel7tAnWpEPMuzQpxUQnfS2M3L5SYQ+ndd98NYHn69KkStysmlc3dTlIQAcbEJirXtgP1ymI6ADpAoBcy1EXkA5zK7e5N/QBg5UIKPNF5LzI7rtvtamiL6L0U8FIQlYn0RprEZqQzhI1crM/BdsacTqdK3BBcJrHapprk1i9BJ2jYrPvB7SVD+3CmQgPeTUwq5m5b+VhuNyMYUdlEFpIARm1to2FAoQeISca1U0WJU1Xj8Tg0sjL7gRELoGKU07HtNCifuhU29Q94K7Pe22bVy/sG7DfSAvG6N1+IV1WAC1DA1Mp5fPPGDlcwW2ZT0bbtdqu7uztdXFzo4uJCL1++1J3tu7+3tVPULbNA966b6Y3Mznv58qWWttUpNMpc9D/SRa5T+3aQPEhoM/978Pp6AdyuRUTGMm9dZKMUmAEjYzfBBnAAB98hLhWK3VATwERRpMlkou985zvquM2ASxtaIsIBLsQhTyTJcrnU0pY7AEgaClHkrH6IBtOpL0DBxuE/6gQdNraN18Htao3qyswHAlF5jw4VO083huvV1VWYM0JyR+Y+YMSUul2biqLQ5eWlCnMr8D98Sc2Arpznnc7ZbDP3KJP7t7YnMSBMXNjCer0Os+Wx3BpnejgZQug8z/Xq1asQ3hg1Iv0pHFAg6pupbXEptTNEAWW/39fx8bE6Fn+LaE1sW63lchlmcGE0dSnNmF1baIIHwsFNx1Ovyh3QQD0gPmqidKsdIhc3gkSRMxwL5+uAoTDHM1hm45RlqdevX+vKTiFJ3fQGkpd3Ilu/PJvNJCeNkWC8C8+SB+bx+A+eeJUW28Ts4XB4Q5K3LKCtruswSx7LgnZyC46RWcIwQ8bkpc2kwiA5HU6hgEvO91KaOM/c1qKMpiAyKCdPVEpie7xOp9Pgyd3YAqrMzSyj78mLOiIZPQEpo7CVAQe3t/3GQiABRuSci+Tl79E+3zFiN0ICXC036krNSx3ZxsmoGd4b2AZCfdsQGcCw62Vk9lxuNgp18uUDlMStgqBD0f7KjWZ9h4Du1F3OrIhlw7OWxYjQ02B6Yj2tWRnPXH/P36eggxmevV5PVVUF694zNTLJhIpaW5Dx2iLckAKe6bHzj3iQoTZhmCdIZWoBCRoI4VQsKqHtNkJumSFcN6QijKA+nh7+8oBL3Lrl+Xyuy8tLbexwBv7HMCYlNghA/dYm8QEM9yo3KahGp63MtqPNkfM6L23pK34VEmDNMttFAZXiiceVpqk++uij4O2jcP9dBg4YTmEePHwWbsUfzxcuRDGzk0MWtqAdNUKvhDgk3unZMo+xO0HEA6dlxjsE8vdbDR8GbfGgzNyCcZiC1IwavT1pBFzFzo9VWtgFHfNwOGg2m+n6+lpb240qMunVsz1gYtsehPJiswmHFrAOXSvnwVWD/vwHfzxQKjtLYLlchvJ4H74MBoPfDJ3jxkpEGYhGo1EQ1xDKg8QXTiNiNxJJbPeh09NT7W2Nsa/4zhZbYXGv7BgZhsKecc1yGYl0bQ1TU6rkLgYWP5IHCe80GQ0YPC084blHPRIX5wo9Ujc9AdGRRDCJvGJbIXl5ean1eh2A1bbhMW2RLUhb2T4u0IR6NcHh2/CQuQDfZJIHienpAA/G4/FvwNJkBA3mAom+UjzjgeEJx39923KzZeGRPJckie5t05k8z4O/BDBRYa7ULR6D4agtT7hm3SE2agWmZg1HFs9TN5Kvg28/7wCKvLFiALC2zX+FVPXSAVpXdn4jHuzExeScnJyEPAghzSyysOWOyPM8BCCAJXKjHAzX2joF7cCQpuPC89pGqUGeUxCZkvHz58/fGKaSAc/xHmBJTfxC7JaNMCLTex9++GGIvL+8vNRsNlNhi9sXdmBBbagnwYCuLSPt28Rh7mKFfd2pS9aIX+Fe5NRlEzDcp/3VA34J/2zmYl9aboMi6tt3u1DCWLm9UJqgXCwWurMtRKDZxB0+RSwMPDi2rUybvCE/EnTBxgIEnpeAtec2ZaLMJLF4FgqPnYQB1Z9//nnww5Agoi+QRB6IwI7bHrwoCn344Yf6/PPP9fLlyxBeuHM7b3vVk5rexl3ueyISwI9GACqXZ1DiDF1AzSf5UmfaCgOQCr690AupAvMxhlGFPJfbwjZsKS+BqJcs+m5lS1cy52ikjNj201+tVurY7lEwG7B4PvAf+aeNoTb0lNk9Ww6icnluLUw0lg2VCzfigRgQD3Hme5cHiQeLR3Vl7vSjo6PgxOp2u7q9vQ3T8IU73yhxy0a7ttkPKC9dhFzt4i4oB0MYApEglK9XbkaxlyjNd6KG25wyoAXE5ErdPA/ghAm186xih9A+wJO4YLPKYnVTCymlHn6kuLO9cyk/dnaIGlKWKzJDnNEgz3ElFsV3bztdkhfvBsnykAPr+fPn2ptrGmLCIJ+axPb3eRaC93o97WwfldLtExfZ7PLA9mfBhQ4oqTySJ3FxMqgwJg4Xtt0EYZ8rF+NK+2KTTkihJkAgfOyGunQYOo0HChKGtgJs7rdsRweA2rH4XO77Hl/ahOf19XUwOGFmyzZGQjUw5M7cdmfwwjM8suW2W7cnnudrZCqvsMnFjtuUKTwvp3IgIKOHly9fhl4PEmWAQfdBYC7/TNsmAQGcbGvQzMb6Pn43M4eUd/XLgQxiZRblf2OHgnuD0EsKueE8kmjtNuyTcxmkDTUkE8leevGbdgAWgOZT6Y4y3rtTzrxtgy0zsJWWSBkPYtkZQkhkmf0mO0T9YM5Jb7d4sHmwR+bpXi6XoY50RDk6b22fHNrmaRPLDd9St8dKy/ZHa6oeXwmfQCmMKm3tDwE8Po9OpxM2B0S9YAQm7phf6gPiMYpvb2+DlGjWid4EuGAkRCxML9NbyMO/W7hFYhu3yU/ldpJMnLQBzHLrq5FqhEss7Tjj7XarzGJwYEbiRoxDt/PlaDTSX/7lX+rP/uzP9PTpU7XtKF7oiSo/PT0Nnd1LJy8dS4ur2bjwVtpOqk2lF2ZHpiYdoVMspy5oQG07BdXmrfToI1N6T+UmHEEhz3sdDvgS80ReXV1pY1tLoItTF5fBrHNp25bf2dnL9FTKI2+IRR2pJ3WBMLXbQqNy0guw8L5vC3XEaOW5yvXEmW3LhbrbuqkEue0xpnY62NIWvtcNY54QzDRN9Sd/8idBanDSGG3ObGv3XuNMbCS+B4pMor9+/Vq12WyeTiSkSWlzV2iG2rYfi2WEBwCZ6d3Ly0vVNmwiNaUMCPZE5z49O3Y7BJQWH3F3dxfyAExyw0kqiRhnziZy64ogMISjDABDPSGK702+t/DpiUsduubsa7llrbQLsO3Mqbi3sAfK8PRAhVGXw+EQhsilW+SVu61ARqNRWEK6tuUgjx490sg2ZITOsTk2KZe8Imd/+XbTyT2voBUd5mBH3ACqBONblrjZs4BnFnOVLlCodkNGGOMJTQXR7ZmbOa5MAs1td4TMbcwHcRNTPQebM8HdHzspAtJrZzN4sHhi8b10Uf5ctIverYY6Ju+28/AivXgWYnOhAjyYUHe5m32OLNoNb3VskotyW7bPS25hoMPhUMe2wTLStrajCGkjo0bqBy/gYavV0uPHj8M9AEDbSdCttDjcxHuaZcSM3DQ8RKAiiExeAlgUDGB4vqnfIXJqEeWygKt2ux0aDvDwMwAUOUJTcd6BIGljvoj7NJreTzupL/f4DdPJw+cFAGQqhf884HbmK3qIEdSH9/m/tO28Suca6NrpIrSJesstP61NKlMP5ongmy+P8gEwoPT1i5yjEUDP5/NQJzEagvBti8G9urp6ozBGEZ5Isdk3uYvUit1GPVSKgiNz7my32xCwfLCYE97D3U859G4IRF7UN2n4N7xh7BsJGL2KIx8A4+tN/iSeJS8ARVmJG23wLqMe6kAn2Noa7ciNXLBl9jZSRCKTFnZ4OC4HL+EAAbtDUVdPI0B0e3sbOqDvINCnCejb29tAsxinHA927QAoIssBRe1iPbjvKwJjYtOfNMRLn8iCeHJbCkKDUlM7SwtwwkZK3drgyOwTJAy2BGD1YMkb20hQT/8czOXTEwli872Z/POxWyWQmpoEgICYHgwoE3fKWexm3Ld2kAWuCjlVR4cpLVqQcgubEU5NGrXd6kLq6sHCoj2fNwD3if/mdmpsAKacmxwduLTgJIge26wo4pIewWgoN926tSGmGpOFkduSczweqzTRDdGmdhgDdgXvA6aWW3PcdrtAMYoCvHLA9yomMhXbcmEKvs0wzoOG5H9DVJ6NnbTKzNGWm1e6cHsCQ8OOrSQc2YJz5o+g0db2+l3ZgnkAidFbFIVev34dmFiZh7y20YqXmHwySChsIx9UCzTzbaZ91Odg0YeUFYbOMJx5ICSFJz7qiIzJvLY5nbmtfaaB5FHbWhgIW1jkXGbbSTCBiDpoMhkpQsP8J/nXjVlWGkzjkYCR622eSLQFIvIfybeVK3aqGAnTtnkfQMJ/qTPM5dwKLRf1LxP/TLTWxvS9xfDKhsCvXr3SfD4PPKOt1Imrsq3rp3YiysFGYRtbkwXtoJlc+6HnG3jgpdxCBK6urpQ4r2bsJt7mtgbHZ4yUqdz63di2mep2u6pNBO/3e00mE6XOiJvZ1l6V2Qp7513N3crF2IUcwBykARKoKUG8avASiHu8gySDQJ6hnnD+grgAL2+c7sHcDyBP3OlspRmrqEzaIgfq/X6vi4uLYKfUzjcU2/kAy+VSR0dHiuwQc0BVuC1maStCQAbG58+fB3rBP9pDewEhB2Ylic06F0Whth3ZxulWnogeqTie5HobjEZXVu7gB+558PV6vdBbqBSMyC0mBIbmLtQwM+Muc7PIvq4QFKkFsSBy4mwVfscmpWgLdWwCBjpAYP+bd8gv9vvdW0fsWrgC7SndaRzUFfBWNhXy7NmzIKkPh0M4VX5kRxNCMwBB2T4faODbgVcagEBD8osNaJVJJspKvve9733v448/1nQ61Ww204sXLwLxIAapMoTSUyB8Yd5Jz6iRbaxcmO+h1WoFdB/swIaD+VDaNhPrpQHleQZwr2jscxeZfqVnVTYER/R6QgAwDxRfJnkDfnoZzH8okQ9MkbURoADsxKYyMrf0lrwpt3AxvUtbPpJlma6urvTpp59qYSssJKlvW83XNgC5uroKecg6j2ypDzt40s7dbqeRBer7BJ0jN7qbTCZf/CcX47B3+/AjCXwGMp2JaIRIRVGEeR5ZwBPvwUgY1e/3dX9/r8K5uhHflEtCpRUWxsC1tbkdCI1oBxCFm/+hXRDRS0BS7KSCTGJSv9KFG1IfaAMAADVSsWUThdCybUNPnvcgAjix9V6kNsy6vLzUr371K71+/Tr4i1BxS1sVcDCPbOqOl0mczSbnq+H+1HYE5TcdKjJJSR0qd450LEPozuIYeBhGc9HYwm0B7pkBcauq0vn5uTqdjnYW9pdbDEVi8RJ7t2FP1+I1qKxPpZ3RM7cNlAEBw3gPGi+FAAaMhWieKACtmTxweAYich+ayCSUTJJsbZ5o7tZYFzaMzs0fVZqEQppxIXEOhy+W4ZAqd8B5arYeuzDEps5SO13VMxkQl+aUXCwWb/CxMlVHx+c9vnva4UqJZV7B1Wql2Wz2Rs+uXDCRL2iz2QTDtHTT3oCMoSGEpiJpmmpqa3e75qVk6OfL2tjGNltz4gEwAOKHg7zLVZpIl3OawWDqR9vknGyR82Cn7sTY1A3dyYv8eL92qxLpQIB6uVxqaov0927LdD6RLrgEhnZOJXSr3RlCtVuTzLVzp5FRF96HHqhV6EuZNzc3QTp5mvAc31cWFx3LVAsufQgip0Y8IxOL1WQSbGd7qpF5xXEjznFU2FB5azOyTMfnbgsMRDU9czabaWMuf1QfxrUnBD0VJkIwz0gPEg+uorHmBwbEZk8g7hm5ABjy8PWgDonN7cSmPumES1ukh/uBd6BpbqOoyWSi4+NjxW5dt2w70sJUUGaGfmQbH9YWrlDbgCAx1QIg4Qv8RKotba1QZB0JesFL6AafY1kMRul2aaQgjy4aFVsM6MY8jRsL5vYVhKGpmzmO41iLxeKNXkuZgIZot72FRdBrYCqE83XzjYOBNBIi+It3PNAi51cgf4jlpQn0adapdIYw72VuCUjhloFsbCNl1BRMhFHYO30Lt4TZAKKyoDLqTAdH0sMH6kHetBO6IN3WFqJJoh7+/SRJvhgVySzjwnQ8D/oEkeU8qxBqtVq9Ib4xblMzmnc2qYiUwPdAw9rmol4sFiHqDbD4SpcP7FLp61WYGgAsPEuCgBCZvD3ouMjfg6Fyqo536XHcP7gRWm4+FO5jp9XWCe7u7kIwFHXn3cp2Hh/aOZHkh4ONOiYWJVBZRyP/5lUZUGkXKTWzYG4HetEOOjHPZ+ZljyUFIxLJATHkiCnnV+He1gw6j2TEYK/XC88nFpqQmzezst7UtV2c8TDKKgxz6NW1m1upTYphOPtGAZDMjEbejZwkip2/hfKoJ8T1gKJM/icPTxdfZ/9c6ra/AFgYr6WNshaNE1m5Kltq2rGgq9RGVZvNRrvd7rdcF2VZBhVF8h2hasS68O7KHX0cNfY69jRaLpe/AQuhAxCKF3g4dmIYIm4tGix1C7Mg0MA2qJGk1Wql5XKpXq8XehKg2ltwk5duiPDI7S9P5XMXIY+obrtApZ5FjmGUUid+o+9zt0kNxCzddAPEbBKNCzB5acczMC+16Le2C8PkvcLtTA5goAvD78wty6UthU27II22Novd6XT09ttvq21bl/j6+jbBYzqTzA+zswlg7vEcNCjL8guw4J72iINIHiSABntjbWtbeN4Tcr/fB0ZvbH6BRrRtdd3SPLj0OhpVNOJIWxbLy/oh36sAAFczAWI1VBHtAijc5/IdBgaT+E3e0IpyeI//+C4bTNB76XQyNbqwzYkSd+RxZoHsI9s3WJKmdtB52+KBkNinp6fquF29qy+xPwFEbNJ4Y+uQaCN8oM50iJiXfMNpPETxPUrGAEZBSWOaP4oiDexIlZ0tPYjsMO/dbqeORafjq9k2nFAQr91uB2AMbAsuP4QFHC23xXnk5joAmicU7aFXch9w8rxntCc2ZVBfaBS57SpaLlTCSxzyQw11ba4ocf6Qg4Vq7Pd7dd30QGbH0BD9T8eKbbBBvUa2vb2vm+ehb4ucIc7o0/MdetDWAJbIMfuh3yDVExPw8FzilmL0bDF3ZN7Z1JaD8D6GrCc0V9f2aOtZmCBlIMFQKV491c6b7K/YAZ92JG7ikfLl7AzSQ/n5Z/3v2I2aKBfwtF2QN59bOwGNNsfOptnZNMV+v38DfLXb+SFyG/xAo8TtVRc556NvG/X1tOG9rY2IaVttUo/nJHPK+dQk0kPELd3RaGRGgyvnnfRoxh6Zz+fB0KNyiR1Ny9mCmdtQj/Jjd5ysTFQWNiyl3NKFh9Ij+fSMIV9P3NqpGhjH6Ir2U5YHFr0aIHTdonLuA27mclDDSBmAhOTc21lDGzsDGyCmaRp2v5zZNh0MEvr9fjCUAUMTND55viWmKVa2OwOXzyeOG5Fy/OFT6fQrzwIWnxmVjMzjh7EGE3NbYnB3dxeIFJnk6dsiq64FAvEfzKZMfBQ451BzW/OW7syns7btwnjmYJ5Vyk0ba6IzU21yc1+8t7ehfNlYiQi9ajNym8RvfgKWrjn5kAiolKwx8qlsOHyw09Eym4WnI+7Nmw2t+v1+qCvJ8wf+wSM5vqfmD8OxF5skob0RdqzPmMQD9CgvVegRVWOYCBHHtqc8EkZOTOOIohJY/RAJQw1mJjZaWlrIJSDZ2kIuDxAYCjgPNseyt9EWAEJa0JsBJOXWbv6GvGgr7ySNOF8Y4Imfud0aAI3caSd0jJaFiXoakGfR2KcWkKRpqsFgEEZDgBXJR7nwBd55oMh4Tps2NsUCb/y78DDYLM2MeEhOusS2hmVrq+r9uxDl9PQ0jPcrE/Fti5XBNV2Y17HTCDDObKjYtsBx3NFbt3Br72wdek2zDqkLFCJ/DySISpt4F+YnbvkDQJEbFUBkwFGa2kKSVc71DzMiF1rKvbYZ8cylkTd1qC30AIdbYuqiKAr1bMnOfD5XbIYu9OZq1j9qaA3uJaZK6XheonjaPihZ4saQErTWNqlVmDfQMw3CYMEnbtmBbG0uDaI38y5lwoDKgm7wJ3i7pHDrcLBhyIc6fdlFqkw6ci8yBiERWi7SjnvUGYBAHyTYxiYNt+Z7Qtod3M4L0BG6IFFQh20ziAFTaQbmfD7X9fV1kCqlC/xm8vdgu00yGvJt49PTKQDAScPSVhrUbkjv84nlxtU+c77T0NoF/5KaDOC5xFa10ajNZhM2qEHtAIDERHFkc0pIE9B9cMe0wEgA4hviiUKduefrCXAoH4ZAPEABI7no7fR+8qTNnm6lSRoAv7IAbA/6yIVWUjZgoT7kv1gs9OrVK93d3antdtYGzJQ/tNM9ALIeoM1D9yKTLjsLU4FG0Ie2xpKChe0z5DvMT+y8ZXSkL4RnSzNC6RUAaGX7ww1sl4S9W4OEQbfdbjWzY2Ng5tbsE8Q3PcBLIA8EEo0leeJAgMLNJZUuwOkh5tMOJKrvnZ4piHPqinRFwqCKMZ6pI1KFPKEJdFnaEpmbmxut12u1bI/aKIr06NEj7WwisG0ecznt8BB9hKSwdtAJ9nZG0kPvxKih9957T0+fPn2DqGr0GoBQme70iXciGwkBJllQ0M7mMugRWeMYuaVN35MQ6zSIhlfON6GG8eaB4yXAQwnme1BUpiZk7fBSgFS4QC//XzMfgNKURqVbSAddsHGgPSBJTf0Bqtq84uwHjFE+HA7f6JgHN9J8iOnNRLkAh87Efz7FkvTBBx/o448/foPovMhL6LLMRdXHbu6IQgGTN2ojO2kVCeUlFYcxYbhio2Q26pAb6kJAbKLc5lEYjtIjW24hO2DzYEJC+frTZkApB0beo318R9VyATgPcAjuwbi3ER72jWcwqTQVjWrhP7YgRTVC+zzPtTVnH6nZHu41QSBHk4pJQ2uDHB1iWY+hIfwBAfg9nU5V2CiG1GxcbDqf3re2WImxHRWD7RHbUXjz+TwYsZ5hXKXZKfSih1zk1A/wAih+Y+dg/Pme6xmoBmg8Ubnvr6oxSefz8c948FTO4w19kFYbO1ijNmCSH/NhuTvrgFn6VqulvYWrRubVLRvxyORHu0jRA8ZuYpOdDKF5jvaHobN/kUpR2M68e/UDbnVfoeFwqNPTU0U2DFtb2EHLIuYi1wOmtrZ3b0NiyqNipTnykBxdt9AMECDlqJNnPswMDW0M9am7H63QjuZzakgZwBG5xXgk/vd58B5gAeyVi3Vh8LCxwLLYJFNZlhrbAaEYxLPZTPf39+r3+2/UF4nAAMDXvZn43/MzsYHJdDpV1VCxEaMhTwgS30Fa5JY6UAgXaoctIVILfIottJJn+nb83NwOmqxtKI5RS+NyW2Dmww08E2InQTxYyMO3hTzllkZ45skBiwThmgDjHZ6FMUgy/qcevm6eXtzb2EqFgzk5sdWgXeyM1NjWWyFpY5uUzMyf1ev1VBSFTk5O1LFtUH3dKZPvPvn78MTTOjIpHyQLl4x4PiOGU6kbNsbGMP/uycmJarM7iAJDtLXNa3l9fa2DW5YBcWtTJW23/DN2E5ZykfQ8X7pRjbcfqGtmbnz/Hm0kj8rtq0Liv8iNcLgeAkPi5na87wQQkYeMtl7dFGajHdxpbFvzUMuNFiOboCXfuq41m82U2ebJjKiePn2qnkXPkZr85bP5P+2IzUyAPtQ1gKXJAB7Yu1PU6W1UhEZANAyx2k46X9vBUfy/ttlUAEBlosbe95GzymlY5hZHYRMxBEV8r20KAGlFj5WLa/GMo4fRdg88ytmZf8SD1qdASOejgU6ZeWnx1SAZ6ECRmz5Z2cY+tIHyZWqcfAm3jMzA9imzDZaRNp7OzeQB48GCXYf09wAL8ggm+wKKotD19bVqFzXun4fwEB1DLHKRWICoLMsQunmwWBLeZSQDEEvnuIJQpXN0QUxAje3jGY3uBzz8Lxdb8hBAvZTyoKFOAIvEd4haOUkFHXK3TTs2GAa33N4tSJWdDak3tuRmZ5sBytZ4nZycqGXhqaVF5AFkL/399fsSPIxt+uL6+jpI6ZgwEDlrXw3xvDVDFKbLEYWe438zPC5s6IsqiNw2HnLMSm2Yy1xSbeKd91rurGG8oagvr3aoP/lSp9o53BDxiFfAjlgHvJ4ePMfv2ElX3ue9prrzeXDJen/ilrECpto6Z2SDg5XFxvpAdsAN+OiAlQ13E4uVIR/45tvWTP4/vh9sRww6YwCSGsSBoaU54eTQ6hMiC2kgd6iV/15ZZP/CVsSlNieSWgBy2x2GBMFbdtYgUgjCHdwiroObf1EDxGoMgz3BShe2Wbk9aKgbwKmc7wiiJ424k9QNwSkrNVsLIPAMwOUTsNNZkHCJdTakC+3fbrdBGpU2UoxsY+XNZqOZnQONZIIWHgj+k+++fb6dsRnQpRvZxWrMMUCkwraJ4mUK8b2EwngP6ZGYNADpt7e3Kt1Qs+PiNrh8AgRLOwuREUKTiEgW6uHr6BPl0vMBCv8ljY0MvY0Qm7rKTK1SjqdJaasymz4jyqKOdCz+I4/IjFc83NC8NrcFl5z9At1QV7U7Pq+wqRSkrho08fSiDR4sqXWarTn5AEyQLHu3drg2O2Br80CITjIGUJ549BqMXNTK/f29ZrNZIBhSg0YjhiGkVxnYDEgV6gSYvJikLk0gcwFyAMYFoWgbwMndGQIt58xr5oX0RD3ObZ3zzc1NOPl9aXG11AtAkScSCwccHRdmA+CdTQ1A48QM3plt/7Uz+8rXsQkSzzPa7P8DLFEU6e7u7g3wxxBIRrTcFrHP7Tw+epfPlM/ExX92Oh0d3KGM7XZbq9VKFxcX2ls8aeY21mm5oKfCvJn0TsCwsREOZQIMT0gABlFo2JcRpG6sSyYPnx+/uUcesYsFpqzChWvUzmvrU2UhF0wIIhUr56/hGto2pvymY+33+6COaSMdcGtB8UgU2t/sQPCR354+/h2ew/3Bs79BgQOAV0EU6InuU22no3/jG99QZEPgqLFfCvm2zLmWWKxqlmVaW+AxQ+2N7ZDA3AmMhXk0FObw2zPoobryrP/Pv9/Mz3cS7pcNtwLEJV+YyH9qDB4qm4HHhpvbUl2ZKYDEiOM4BJEh0Q/msLu5udHGYnNrc6BVbklrr9dT7OxI6vIQTUj+/+Z3j4FYzrUvM0zXFn7o1Q+XJyqZprblQ+QCs9kXzYtvOXSXtkgNNbOzoTAgK22Gdmfe3dIM7o3bzZGyUWdIq647FIr/sAF8G/x3UvN3U8rUzpHn7acmgT3dEmfAy2i8dwvM1rbJX2QjocIWwBPADkABzNw2lJY59ZgOSSzwHROAunteNZPnLcCgvrK6ViZtYzUItLXtHSAwzPWJZ73IwpYALHPbWBBm1g3bYucOYUIdFGacIY14lopDsIOtguzZ6SWpjUAS0/0wRa7HMpKgTb4utIdPiOdBI2cYN+vqGUK95WJnmszyKnDrAr72FgmHlGhboFPilsQUtmPlzc1NeE62Dol36Bj/L4n8YrNdsDfj2OJZQKFsKeNisXjD+ieT6AFRG7swyMSirRgV5baNRGanesBQ7BHUC0SP3UkZldsJmh6SOOMTScKFU8/XuVlXjGnaVpn31DPcJ9pMqhu2kv/flyMnkTwwCrefjP8sy1Kz2UzT6VSyFaLknee5jo6OlNsE7Hw+193dnS4vL7W001LlFuJDP18v6kv9PE+bif+5WGEQeZslMhWCxQ3hfapNAsF0fvves9/vw0lYTCzCQP6nF1EO/zWZ2XLrlVsW6HN8fKyTkxNNJhO1XTR87nadjgzEEI0ezn9IKojYBBXv890nQPDQfRiiB+yhws2FcY96QWuvgpGOtL1rO3+i+m5ubnR3d6fBYPCG5PW8aNaR33zyXLOTJaYya3OGQp+AhtgixOduU93E6S4ZQWSiPWvsgIiqSWyznzRNwxQ6edEz1hZ3oUbUXG6jJCRS11YnctTvkydPdH5+rtPTU43HY/XtjEHfk+jB9Gi5xpOixtSGBwup+TsyqYoU4h5ARdIBXv+/XMwQYEOd7mxVQGJe3a3ttF2aJK3NjYFUjc2gPrilri3b3HHvpjS+DCi/K8HL2EZ9sXNnlMw6Q5jVahXmb5IH7BUIlrjZSYiFFd61FXIQDkbsLWpu62JXUufu77q1MxipvV5Px8fHOj4+1mQyCbHCACR1S0Y9E/Y2AYjhDMi9tGmmysWWwEjUZG1SAmDJSa/c/DHUmXZzxTbXQkeiHOp3sAEFUoe642cCZEgg3+b1eq3r62sNh8NgJPs6PvT7oQRI+E6KTYMwqAhgWdv6HKTGQz2RRE8ls8ScQ7WJwdhUSG7D6NI8nCuLs+VdL0nabl1wq9XSaDTS0dFRkCB+NV/utsJqggRwygCADeZHUZTtpQB2077h+OM6NA7sjJwPivZQbmZrtjG+oRe2GwwEkJU7DYXR0Mq2KalNVRzMbhgMBsptYnVtJ6YN7SyElh0AhupQQx0+9LuZ+A9wJxb+WhTFF2DJbAPCpmHrL58ZIJEDEiJ/NptJbohMQwu3X13kRB3GKT0etdRz+5p4UMlAQB6+Dp5hccNH5G2Gym1F6uvk3232Tt/uJl141ifuZW4Fou+EOwsxpS0AZOdCI/iuhiQbDAbBsAVosXXQjXP9exr8ocm3jfentqtlLOtVeBfpCV9WAETDZpEVsDcvLWApzUjLLLYCqRC5xeKZW7DesuEt+7DkNrPKRT6875kcOfvqIcb7usMguTkxrzJok+9hkZtbStzwnDoAPk8zb9sAMjpCZduAobK9WuJzY97r6+tr7Sy4KTE11rIpk9wiCm9ubgJjkYK/S3p8WYKW/nvizoKMZecJ7ewsG4/IJvEgNo3mXuwWiDNDGrkj6ujFiQuuoSwqlLuFXbk7QQwJpgcYLzdVASObz0fOSSYDMYTInN3lQUvdfJ48S56VmyLYuQVlMKoJHjmwol6hn9yeeABMJn0Wi4Vub28DPWlLq9UKISFohFZjbxYv8bhP/f1zTWDxnKdfic2yWCy0s3OCefihRKYtM0oTc9ufnZ1p7/ZZ5UobM8wtdwoGDEGCMPrh/6aKoPKJSQ/PDBjp/+N/nvFEiZwkQmoljXU+lN+2GGDq7OlQmU20tonPtXlk2XYNaU2Hii3Qi7XNT58+1WAwCHXEnklclD35c1AUE41HR0c6Pz9XYfNq2DS5DSoK8+l4IHwZX0meXnyPTYssFosvwLK1oOHY2QC/K2N6GpUj8pxekToRDcFhCMyAeDCGnk0v92DwFec7F8+RpwcKybenNvuqcj4eCBq7xWwQ2+fjASvniSXP0kYtGNtbCx4jWr5n+9z2bJ+48Xisx48fa2gbJdMG6rl3B7BjzFY2C53aCbWAbWtGectijHzdm+34fcnTC3re39+/6e6HGLzQzECNCbvaxC3+Dgw08qktHLPrTh0DFIhNgOR7NeXQSM8kgID9wn98B6iJc+v7xqM6/AWT5dQa9OB70NvOz3FwPg3Kb/7u9/saj8fqWbxKp9PRcDjUZDLRaDTS+fm53nnnHb399tt6++23dXZ2FtQJ5TEiu7+/18LOckayI0nmdlApajxpHK3T5OcfkqB5ZeutY26Cap8xn/Q8QMVv/ywVg/hyk3yoIaQGn9gvnqnk0yyDcjxDSP6Z6EskkE/8BiSURQK0AEON9hVuHTZDX4Ac26iEnaxOTk50fHwcXPhyB4R2bcJzMpnoyZMnOjs7C0PjtvluKvO9IKnmtsXGaDQKdUttE0Ho2KSRb0MzNenTpFvkpHcASxMovCgHEogVGUM8eOJGrAeob9ogMMKrpiZQyJ9PX7faubKp30PPxc6G8fcgpK+7vwCqb5+vGxIGoJUuCi41Gw2vs993BYJD79RNcDK07rutWkejkR49eqTMRoHeAAbgdLq27WejRgQBZdFe/0nyNHyIrvJmhX/JE1ONjPleOW8oCXWSuC05IQYNQjQCIm/DNBtE/r7i/9dEW5qAeSg1JZkcmPxvEmBSY8SVZVmI4M/M6Cb58gGL7zx0rJ7t79vv94PHOrOQA9kko+wsItoXuWN6aMvvau/vSw+9lyS2TRgZ+0uOYHyvGsfvtmw/OL5L0shO2YJ4AAK1w8V9yqJHNAHbbDz/+8vf5zvt8mDxz1AmyYMhckNKvlMPOovPT6Za8CVBH1/HZqLttBkJ0bd1QV0Lah/ZIV/eI1zaioWdTWUgbWI3tUAbfX3/Lwl6Q8NWq/UbsHhg8JBPqKDMjNO6rtXtdjWZTLSyddBk2nLLTSEaxGi5aDASjYORnjn6EjA3LxLMAYwAFZCnbsTxkE/EM9jXydcLVUT9EjcEb9aJT0ABkCiLsqER9AN4mQ2XT09P1e/3Vdpoa2M7TUVuVh01RXsfogvtIfn6Nu/zHr8DxxCJvytBHIBFb2L+BdRTcYaVEIJel7iF4R4oekDnfln6MkABDgxEANqx4CfUoYzJpQuV5CLFbtEbV2U2lQcfTPWEbRKf+0hb/qPtPJ8639NoNAqjqbEd8du1w7wweiMbVu8tFDWOYx0fHyvP82DHNNv1hyT4Iq9q/Z+/L8OmSKPnMl2QuYkyCMvzENMT6aEECH5fgsj+oj6pG3X53sR3f19WZuEWr/lP2tO85Iz43CZMqZe/SM06NJ+hU1F/pFXPznTme9ci4g42W317exueL22Kpd/vK3WrFCPnS/pDUrOe4Z4axqRvoE+AicbwbGIngHCPZ1BXEJMezXNy5QKQJhh/X6L8JkgAgX/Og6kJqMotOUWCMPrY2YQf7fdA6dpW8Rj1no6+bH+Puvj7dSMQijakaRqG3X2LKYbWpR0J+Mknn6iqKp2cnEi25gp6+zr8X5OvL59vUBWCeClTOcOusihyHEKpxcEeHx+rZdPjgIT3QSgEIb+HyuC3J6RvKP+TAIVvEPX0z9YmUhNTf7Wp0Kyx06XPy9fJ5wdzZdMMqZuMRGK9QeBGD+U39fJql7IiN9maNqZJUtsDt91ua7FYSBZ/6/fFReVSB09Dku+ovm3+fvP53zbTG8k3vLaNjhGFtYlO7mFwoZdlhWSN0zqolCcWDP19CWLTKP9brr5IByQEkgMJwPNIQRhN8u2O3VDXg8NLS9oJQ5ttiR+YuyI1wVIbmFs2qdm0tzIboud2cPurV6+C3UQHTtyRNQCwmXwbm/9zL2o65b4s0Qjfy2hsZFb41jZQxkOZOt8B3yESedIArj80NRvnL1k9AQhiHRDyH4SjbIAAkz0QIL4HBpLTMxyC0m6+R40e6uvvwd0Eugdn7KLx+ATsPTtMnVNzU1tHnpsKgta+Dv/X5Gn8W2ChwiRfWNU4gRwGxExhWyPlGpy4kQ9XsxH+k/Kbz5AnjIAZMITLqzo1eg1GbFEUDwI6c0Y47fTqxT8LUPikbjwHqMgPUPCbuvHbP1c724gyU/MO525ZzWg0Us8d+FW70E3fCcm/SU/++0NS9BBYmskzsnSL2/ls2T4hSzuul0pCPO553UyCOBDod1W8SWxPYOpWukDqL0ulObRiUxu0xYOLvHwZzbLlAI3Ko3y5+SUPGPLgXZ9fM18ADwBjkzD8n9vBEScnJ4rjWLPZTJX5wXz9fb4Ppd/1n0/RHwIWEiCg0akN0Y6PjyULcwAUMCJ2uwY0pUuzIRCO5P+PnerzifIoowlGObCTyIOeSN34j3o8xEzalTQOFW3aRZQJnR4CjM+3ed/Ty0vsyNSdV0mPHj3Se++9p7u7O9XW4agP9fgy2vyhKdSxeePLEigH6ZkFJY/s/D4vCr0IhqieoVSc8n5XuRAIYvrkifp/IUjqgrQ9UeUAAyD85evp28D9yi0V4X8PdPLmu2+/v+/L9O2rbOEe3uLUbJR33nlHtdF9Pp8HKf//V6KesZxzrUkMGowkoFeBdIxA2cQWPZQhH/kcbBrf50nyhPL/1w/ME3G/dgD0xPT1Jz10z9cBJvjvvpeTAMLWnfzB5Zn+ZXVL3ZyaBwr09Pf45H0vweQmbjPnx8KlsXlgt0uf50Ppof+a9dTvAotPEJGGyS3n2NkmMxAtcrG3MLZ5PUSYyIlieqP/5DnPXH4/1DCfmuVDwIeeIQ+Y7P/HFnjo/WbZMJr/uKCz7wgeLL6dHnTYQ9AE6Q2tCbdE7UVOlZLfQzR6iH6+ftQtjs3PsratLh4iAvdK27x3MBgodi5zItATt2LOMxfifhmTfPLP0HAPFv8/n83G/6EJRvo8fV7+O88AoIfa4f+PGgHdJOgG7TyTmgyjnNKtXpQznFMbXBCykFjgdm1boLTt0AdA9mWJuj7UpmYKMh7XNqJOrnfxyTQ5SItsN4StbfgCMWiw711NYn5Z8nnr9/To5u8/JMEE6tMEQLNHybXjofL8ux4Y/Nd8l/Z9GVh4xue5d7tlUkZic0cdW2VRlqWurq602+2CL8bXN26oc1LdcFeoIQn9FcsywunESz4T2ZxDYiEIiD+MWE9YpIvPC2I19bMnihp+FJ98Yx4iPlczNe/Vzg7y4KOtvtdin5EHZTbLJz++N1MTkLEbIfn8H6JJkw/kEzVGZokZ4zjnWha03azDQ8mX5+vyUApgoQIU4itMJWloYjqz67YklRWCiCVRyS+rgCcSdeBZiOWJ7e8305eV4ZMHa+3sAoxIhsDNUU1k/hfaQx3Ii2eaydefd6EzdXmoLc22c4+UuZAP+LJvRPf7dx4qQ66jUPeHAE/6/wBt+gw/ervn8wAAAABJRU5ErkJggg==&quot;&gt;" style="whiteSpace=wrap;html=1;aspect=fixed;container=0;" parent="ra58XeEpIMUWKlB5J7gt-26" vertex="1">
          <mxGeometry x="405" y="203" width="130" height="130" as="geometry" />
        </mxCell>
        <mxCell id="TDeMeSc5tqtRhKriEZUa-14" value="&lt;img height=&quot;142&quot; width=&quot;139&quot; src=&quot;data:image/png;base64,iVBORw0KGgoAAAANSUhEUgAAAIsAAACOCAYAAAAB1PtMAAAAAXNSR0IArs4c6QAAAARnQU1BAACxjwv8YQUAAAAJcEhZcwAAFiUAABYlAUlSJPAAAF0cSURBVHhe7b3LjyVZltb72eO8/fjbPdwzIjKzKiuruorHhKfUhRoBElIPesYYAWr+BMY55L/ohgETQIBgABINhZDobqESdHWTVVlVmRkZERn+fp73sWNmd5Dfz2qF3egrmNwRJpn8+Dlm2/Ze61vPvfa2pK7rWv/3+L/H/8aR1HVd/6N/9I/0z//5P9fu7q4kaT6fqyxLJUmioihU17XyPG++y7JMVVWpqipJUqfTUZ7n2mw2qqpKWZap2+2q2+2qqqrmviRJJEnD4VCj0UgPDw9ar9c6ODhQlmV6eHhQkiTq9/vNM6fTqTabjTqdjubzuXq9nvr9vmazmabTqdbrtSQ1zzw6OmraWq1WSpJEm81GRVE0904mE6VpqtFopH6/r7IsNZ/Pm2tGo5HyPFe/31dRFLq5udFms9He3p7SNG2eV9e10jTVer1uvj87O9Nms2loJEl5nitN02b8vV5Pw+FQd3d3Wq1WDQ23trbU6XS0WCyavmdZpl6vp06no9lsprqu1e12JUlFUTTP7na7WiwW6vV6yvNcvV5PSZI0tK/rWmVZarPZCP2wWq0ansWjruuGX71eT4PBQPP5/Buw/PZv/7b+yT/5J+r1epKkqqpUFEVDCHnAdV03BOK6JEk0HA7V6XSah6Vp2lxfFIWqqlKe58qyTJ1OR51OR91uV4+Pj0qSRLu7uyqKQvf39w0hl8ul6rrWcrlUmqbq9Xqaz+fq9/tK01T39/eazWYqy1IKxD46OpIk3dzcaL1eK8syrddrLZdLbW1tqdvtajabqdPpaG9vTzs7O1oul5rP51qv16qqSoPBoAFsp9PRdDrVbDZTlmWSwd7v91VVlXq9XgOOJEn08uXLpp2iKJRlmQaDQcPgsizV7XaVpqkeHx+1Wq2UZZmGw6GGw6HKstRqtWr+pmmqfr+vfr+vbrerwWCgNE21WCw0nU61XC5VVVUDoiRJmvaLolCSJBoMBsrzXJ1OpwFxURR6eHhohKQsy7dAAw/H47GSJFFVVUolablcqigKLZfLZuAAIkmSRipooNvtajgcamtrS9vb2xoOhw36e71eg+6yLJu2q6rSYrHQfD7XZrPRbDbT4+Oj1uv1Wx2t61rr9VrT6VRFUWhnZ0dbW1sN49BgRVFIBjGSNB6Plee5iqJopEbWAoPBoOlXmqYaDAYNWADjaDRSXdeNECyXS3U6HR0cHGhvb0+StFgsmnHMZjMtFosGlOPxWIeHhw09BoOBRqORtre3tbW1pV6vp729PeV53tzT7/e1s7OjnZ0d5Xne9Jdxj0YjdTod9ft97e3taTAYNNfwfRx/t9ttvivLUuv1ugFvnucaDofa3d3V0dGRTk5OdHp6qsPDw+beLMuUW6uOx2ONx2Olaart7e1vwBKPymajrmttNptGFfJ3a2tLh4eH2t/f1+7urkajkRKr+sVioclkosfHR83nc1VVpW63q9Fo9JZEPD4+arPZNBKc2PRAjNFopKOjI+3v7+vk5ESDwaBpq65rrVart6QArTIYDBogonGKomgkPLOp6vV6qmwu0zRVZZOKmuY+AJ1azSdJok6n00j73t6eOp2ONpuNHh8fVVWV9vf3lee5KmsdmA2ztre3VVWVZrNZQ4OdnR0NBgMlNlODwUCHh4cNmMfjsTabjd68eaNf/vKX+uKLL/Tq1Svd3t5qvV5rOBzq6OioEWq0P9p+uVxqNpvp+vpaX3/9tW5ubjSbzdTv93V0dKTT01MdHBw0Gqjf72t/f1+np6fq2p3I8/wbsERER9Mha5YkSZTnuXZ2dvT06VN98MEHev78uU5OTrS7u6tut9uYln6/34BjZ2dHx8fH2tvba1ToeDxWr9fTkydP9P777+vw8LBhwt7eng4PD/Xs2TN9//vf17e//W3lea6Hh4dGkjApgAGtsbe314AAqU3TtLHJq9VKy+WyASYEBCSTyUTr9Vr9fr9R151OpxEcTsD48PCgjX2pjv2Ju7s7jUYjHRwcNHQbDodKbc5pE3pXVdX4b7IPkaapDg4ONBqNtF6vdXd3p7OzM11cXDQ+Hpo4TVMNh0Odnp5qMBioLMtGIOfzeQNy6DCdTnV3d9ecaPZer9cIW7/f1+7urj744AMdHx9ra2tLBwcHqqrqG5/l7/7dv6t/+k//aYPEsiyV2T7Lkjsej/XBBx/o448/1nvvvaetrS3lea7Ly0t9+umnur6+1mq1aswQUoIU3d3dNWbl+fPnOj4+biR+OByqa2d4s9moLEs9Pj7qzZs3urq60mKx0Gg00maz0cPDgxaLRdO34XCo9957TycnJw0x7u/vVdtJK4qiAQyaUZJms5mGw6GeP3+u6+trXV9fvwX6Xq+n2Wymra0t7e7u6u7urjE5i8VCdV034MREbjYbffzxx6qqSi9fvlSSJDo8PGyYjpm6vb3VmzdvNBqN9N5772mz2ejq6kplWerp06c6PDzUmzdvdHFxoSRJGjMSaZqmqfb29nRycqJOp6PLy8sGLLe3t40JzeyjAPqyLJXbf8nzXLu7u9rZ2VFVVY0Wff/997W/v6/Xr1/r8PBQl5eX+vLLL78By9//+39fv/M7v9MwDMIiZdvb2/q1X/s1/fqv/7o+/PDDBsVZljXq8csvv9TFxYVqRzGdTkeJvXFMQVmWjc3Msky3t7cqiqKRtPl8roeHB93e3urm5kar1Ur9fr95zmKxeMuvSpJE+/v7+sEPfqDBYKDXr1834ELzrNfr5npULAQvikLPnz/XarXSxcWFFLTs1taWptOpxuOxdnZ2dHNzIw4itG632/hH+D4HBwcaj8eNw9xxFPf4+Kjt7W1tb29rNpvp/v6+0bQzR3YHBwd6/vy5JpOJfvnLX6rX62m5XGoymai0YwyTkfhut9toid3dXa1WK11eXmq9Xiuxn5mmaQMUeAufdnd3tb293Wj3Dz/8UN/+9rd1dnam6XSqra0t/eQnP9Hr16+/Acvf+3t/T7/7u7+rviOAxP7JaDTSeDzWD3/4Q/3mb/6mnj17psvLS3322Wd6+fKlVquVTk5O9OGHH6qqqsazBhir1UqFo6rBYKD1eq3b29vGbl5dXTX3wEyYyGDRKHj9m+C07u7u6gc/+IGOj491fn6uX/ziF7q7u2t+R/3P5/MG/Pg9eZ5ruVzq+PhYZVnq6upKqR34oig0Go10d3ennZ0dHRwc6PLystE60+lUi8Wi0b7r9VqDwUDD4VBJkuj09FTb29t6eHjQxcWFZrOZJGk0Gml3d1d5cD5xlPv9vj788EN1u1199dVXDQ1xqDf2H3Fkt7a2lGWZJpOJFouFtre31el0dHd315hIgJKmaSNwgAV6pA5ker2evvWtb+mjjz5q6DwajfS//tf/0k9/+lNNp9NvwPIP/+E/1O/8zu80Upfbuz45OdH3v/99/dZv/ZaeP3+uH/3oR/r93/99TSYTzedz3dzcqNfr6f3339fe3p62t7clq/iZIwX8H9A8nU715s2bt6SdyGrk/MZ6vdb9/b1ub28bUxI1RV3X2tvb04cffqjnz59rPp/rF7/4hc7PzzWfz9VxlCBrK3IWuSM52bTWda39/X2tVivd3d2p62hgsVhoPB43knV0dKT7+3txABbMQl3XGo/HbzmI+ByAJbNzfXp62kR3BAOPj486PDzU06dPdX19rVevXml3d1fT6bQRODT5yNFVkiQNH3I7zmlIKQCQ2jmVxEFIZUc7z3MlDol7vV7jK6JZv/e97+n8/Fw//vGP9ebNGxVF8Q1Y/sE/+Af63d/9XfV6PaVp2jiyf+2v/TX9hb/wF7S7u6v//t//uz7//HM9efJE3//+9yVJP/7xj/U//+f/1OvXr5U5eZTamdo4vEVT1cFJnM/nqutaw+GwCSthJN9B7LOzM33++eeN6i+KQp1ORx988EHjAGMGT05OtOUQNc9zrVYrPT4+ajKZaDKZNGE8hJKkw8ND1XXdEBittr+/r7u7O3U6HT158kSPj48qHS0BPqS27zyIrNGWy6Vym+KNHeKqqnRwcKCeE4My8OfzuSTp5OREm81Gv/jFLxoT9/Dw0AhJz6E4GmU6nTYRWMcpi/F4rPv7e63tTOOnyNEd/wNc+vv8+XM9f/5cVVXp7u5O+/v72tnZ0RdffKGXL1/q/v7+GwuhcIxGI52cnOjP/bk/p9/4jd/QX/7Lf1m9Xk+/93u/p3/9r/+1vv3tb+tv/a2/pefPn+v999/XX//rf11/9a/+1QYgDADJW6/XDWDoIHYXX2axWOj6+lpv3rzRy5cv9fnnn+vFixe6vr5WmqY6PDxsIqbCJm00GmnknMjNzY3u7u709OlT/dk/+2f10Ucf6fj4uDE529vb2t/f19HRUWPjkSi0HtptOBxqMBg0KQHZt6lt72vnYNI01ZZzTCOHxpiT1Wql+XyuufNJgKbX6zVRxXK51MqJN0k6ODjQ7u6u1k6A4qsUTqrBlw8++EB7e3va2H+jb5WdX8LvjiO0jYOFjh1dtIZClvbJkyf6M3/mz2hvb09lWerw8FD9fl8vXrzQw8ODUofjkpR98sknn/zhH/6hHh8f9Zf+0l/Sb/zGb+iHP/yhvvOd7+ju7k7/9b/+V/37f//v9fr1a/32b/+28jzXv/t3/06ffvqpxuOx9vb29B//439stEdZlm8RtgrJttVqpbUdTknq9/tNJDRwsmkymej+/l6TyaQBHwCrqkrj8VhHR0fa2tpSWZa6vb1VVVX683/+z2s4HOrzzz/Xl19+qa+//lpXV1d6fHxU4TT+eDyWnHdAS+zu7qrf7zfqHlu+tbWlu7u7RvUvnVHm9+FwqNz+zWw202QyUWVzmzhkJtGGT3N8fKzVaqXr62vNZjOtHbYeHByorusmikud++E4Pj7Whx9+qP39fXUcsfLcuq4bzZbnuebzecNc/KrhcKjaYX/q/Etmn++v/JW/ouPjYz0+Pmo0Gml/f18XFxc6OztTah8OnymVpI8//lh/82/+Tf3tv/239cMf/lCHh4d69eqV/sN/+A/60Y9+pOvr64bYd3d3+vnPf66f/OQn+uqrrzQYDBpJgeAMFHVfODs8n88bP4bOb+y7bG1t6eTkRM+fP9fW1pYmk4kuLy/1xRdf6OrqSltbWzo9PdXx8bG2t7dVFEUTIu7s7ChJEp2dnemzzz7TL37xC7169UpnZ2c6Pz/X+fl543Ps7Ow0vgmmr+85oMfHx0aikShAlYQQNk3T5vvC0RBHt9vVwcGBDg8P1ev1Gu2ahLmWytnslaO9oiia1ELtDHbPCb1ut6udnR1tb2+r9vQHmgbt2ff81mKx0NDZY57HONPgyCKc3/ve9/S9731Pi8VCeZ7r9PRUd3d3evnypebO04xCQjX75JNPPjk/P2+Y+9lnn+n3fu/39F/+y3/RH//xH+vx8bG5+Dd/8zdVFIW++OIL9Xo97e/vqyxL/cEf/EGjWUBjx1nVXq+nwrmOzF54Yb+AsBD1ndpfGo1Gurm50XQ6VVVVur+/V5qm2t/f19bWViOdDw8PyvNcA2d4AUfhqYA62OuVs75oJFT33t6eRqNRYz5Tp/77/b7u7+9VlqX6TiGgGWEovkVi5xmBwt+6urrSzc2N5iGbDfA6dsLTNNXUE6JpmmruMBtG7e3taX9/X1VVaTKZ6Pz8XKvVSl2nOTCD8An/r3JEg0CUdpA7Dr339vb0F//iX9R8Ptd0OtXp6akeHx/13/7bf2vSCPAQcKeSdH19rZ/97Gf60Y9+pH/1r/6V/tN/+k/64osvVNe1RiGdv1qtVNe1dnd39eTJE9V1rVevXjWMQdKiGUIykKjaCSwQ3nUqebFY6KuvvtKLFy/U6XT0/vvvNzY4teMJkxeLReM0rlarJirAvPB8BZ9jtVo1zl9u2405TB05yAlJnpPagWUc0TEFNORO9vb2tLe3p6Io9ObNG3311Ve6urpq/JCVne3Ly8tmdr3T6ejh4UEPDw9NagBtUTqvMh6PVVWV3rx5o/Pzc+UO+c/PzzUYDBo/bDAYvOWbRNDLjizCu7W1pb29PS0WC/3kJz9pBO6LL77Qzc1NI1yYuZGj1OyTTz755J/9s3+mf/tv/62++OILXVxcNA/p9XqNJkiSRH/jb/wNXV5e6qc//WnjwHU6Hf3RH/1RA6bSU+IbO2Ebz3/s7u42qJdRi7pE05R2esuy1PHxsTpOo+/t7en4+FhVVTU5hMwh7sJh7mAwaIiONOVhplsOH3NPRJI639nZaSSzchiZeVKwLEsNHA5nji4AiiTt7u7q8PCwAdR8Ptf9/b2mngSt7USWdmQHg0GjRfm+tp8HiPEvEL7r6+smlxKfXTpbS+if57lGo5FKaxA0KcABLIeHhzo9PZVcTjEcDvXkyROdn5/rT/7kTzSZTJr2JTWacjKZfKNZbm9v9dVXX2k+nzeER9Jkxg4GAxVFofPzc7148UKvX79ubCRH5ogH4i08abharZpOxYhEluoIkrVT41dXV9re3m7mluq61u3trS4vLzVzkmswGOi9995r/INOp6PRaKStrS2Nx2Pt7+/r+Pi4iai2t7cb/woJLByRYQY7nn+CGTB1FWo/0Hb8vtlsmmTYYDDQYDBoGM44aYdnyI52p9NpNG/iiKbrxF+n09GzZ8/0/PlznZ6equdyiNx5FWiCxry/v9fV1VXjbHc86VkURaOl0FSz2UxfffWVptOpzs/P9fOf/1yPj4+NYChUAHQ9GZx98sknn/zLf/kv9T/+x//QludBYGBlu7ey8/rd735XtbOfp6enGg6Hms1m+tnPftYQTkYlfkPfCSqI2nFUg60sQ3EO2gbzMhgMmpnP+/t7PXhCsfZk52AwaELj8XjcgHUrlE7k9p+6nu8BVLXNZG4nfOEkGxpLkq6urpo0QOXIDq2GxOU2oavVqgEBJip38gvTsvJkJkBfezoA32+5XDb0Gjg6nHq+C6ZPJhNtHBLj66ydr1ksFup0OiocKaVO849GI333u9/VcDjUxcWFLi8vdXt728zxvXnzRmdnZw3AOFL7n0+ePPlGQGQEpXaokLalZ2UfnWGczWb67LPPtPI8yGaz0atXr/Tpp5820qZQvVU6vt/a2lKSJLq9vdXr1681nU41Go0a9Q/TkFb6A2AUCq8AFqalrmtdX183uZaiKNR3WMugN5tNA8yFJwAzz1QP7LjTLv2PY6js89T2gTJPIwDATUjDd5zbiMDPg7MZtRVMZYw7OzsaDocqnHQcj8eNj7PwXFdtTbVerzWbzbRcLrVYLBpQ9Hq95rqhZ7sXi4UGnpVfLpdNYvDJkyc6OTnRbDbTxcVF0w/Gi3BjnhvN8m/+zb/RF1980cwE39/fa+UwmMGnaaqHh4cmcfb555/r1atXurq6EgcEhqij0Ui9Xk+r1arRIrVT4z1ne1ObLDrYserMnM+o7ZxyogG63W5DrI59DtQv2hCm87m0mZu53gVNVLqssrJTWzgvg3+Aau6EZBcMoU3GDJghNtKahBnw1MVEjAlGr9drPT4+Nv7iwvVBXWdbASHtAxKeRR4JAQBI77//vnZ2dnR1daXBYKAXL140pu7ly5d6fHxshAH6wc+iKHRycqLRaPSNZgHJqMrCJgRicj4+Purrr7/W69evdXl5qUcnvLCzXTuVtIn0y/kHVPZsNmvuGzmXkFrl5SHt33Vd6c3NTZP6RvsAFIi2cuZ0GWpdFFQp5msRyhEhRhQKiI8G4XkIzMAOLyYlaiLMEVoxaizGX7lcoCgKDYdDZVnWlEiU9o3u7u5UVZX29va0tbWlwpq+Ckm/2hpSwRnl+7lrqPM8176LsS4uLlSWpT7//POmrevray2cuOPZpaNBhCnz9EWn0/kGLBC0tkPDd1ycOD1OIwAgs4cNWMbjsbY9+1kHszEej5uyhJVD3el0qsSFSAPP2I5cQD10GQOO4nK5bCIMwEU/t7a2NPREJACLfYfhPSe5uIa+zF1KkDt8jG31XJNc2p9YhagDwJQ2VavV6q1obG9vT0dHR43vgVkCPLQ1dPSDL5K6Nnfh4IFZ6rXzOrVNNAAFMAj6yo547iio46mVi4sL9V2ViB+ICUVI2gLC/4+eF0vpOJ3BJFQhTY9qQpUjeWiG0tlMmEIHsau5vXc6G9Xx0GlxJq9GnvfpOulUOARNbR4q5zy2XM8BMWUVOp1OdX9/rzsXQUF4+j5y2QV9RBNE5xd/BjNYufoOnydql6qVj8Ef+OCDD3R0dNRMlHIOHGmiBTNPwEJrPqMdek5j5KH2uM2PdhuYPUAuBxqr1aqZqYfP0A2FAaj5vrQjvVqtvgFLVHOp7eDGDlnlKIAOViGVPxqNlLl6HhAhnYkdsaUd5Y3nYZCk2uq+1+tpZ2dHu7u7jWYajUZKPTkJg5BKpIbJweFwqLnLJW5vb5t5jcvLy8Z8YfqY69lxoVLtqAqQ19ZiG9tsNCqEhXgAg1xTZnM9Ho+bGdyufSGYgGDEKKrypGJl85I7C9xziLx2TQ8ntFzZz6H/aIfUM+C0Xzu0Xq1WOj091XK51He+8523/KUq5GLoB9qZ8c5cnNXMOkMQ1LccSYBeiCWrZa4HJLn9jeiHIBUr2+Esy5rUdVEUmnqJBcxc2t8A8Tyn49T44eFhM7cj+y0PDw9NLod7k7ASIbMZVUj/c3+afhOZJHasATigXDsE5trMfg+CxLM6jvq+/e1v61vf+pZ6vZ5ub28boD48PDR5mAj2nZ2dt+hKe6U1deksbm4zhPChlQFJZc2HFkY7555YnLm4irrnh4eHxm9jbIyL/mGqs1Cl+BZYKoewMJ7vuAlPnBPkZc7yEr4CFpzc0gXRUxcTZVmm2Wymq6srvX79Wi9fvtSrV690fn6u6+vrxnxMp1PVTqkfHR3pyZMnGoVa3LOzM52dnenx8bGRTCQDItPXnutBVmFRFxLFuBi/PGO7DhVwQ+dsMEdyrmTsutoPP/xQ3/nOd5SmqV68eKGvv/5aSZI0KYLpdNpUBzLrLElPnjzRnpeZIBxlyBQPh0MdHx830p6EYjCYjHZKkkQzz2ZnnlU+PDyU7Gpsb283lY53d3fKbXYAHH8zR6LQsrIWfaueRUY3GoLkVt9T4Kg4vPTKpikJDjBxuazGZTNHFFK6DrfruRYYS9s4tZPJRA8PD41EUNNy7eUM19fXmjoptXHZZW41DhEACNqOnM/CtbyFfSfGjUTPXY8STUhuv2jpKAwhgU5dL14jrQDQu563of3SkQuAX61W2t3d1fHxsQZe2zRyrY7swO94Vh3gQ1fABb0R0KWd8dTmFUF+eHjQp59+qtvb20Yzxvt7XuDHX4Rdrn5soqHUHnDH6WfWk7z33nt69uyZjo6OmvwIUkmn+bxydIEfkFjF0/5ms9HESy7qVv4Eh45nID0ffvihnjx5osITdJPJpAFf4bC18gRc1CqJTQln6SRh1+E4dh9irJ1/ub+/1/39fTMONMzG/hpqvbKthxaz2ayZQFw4HMU0dl33i9T2nGNarVY6OzvTzc2N8hBB7ezsNMxnWUhqH4JnJsEEMW7aXSwWzRyVDMzr62u9ePFCP/3pTxtfpQqObWozC422XaYJHR8eHn6VwVVYI8QNaye06DiagCOzDYfR71KTSHjuzPDcNbGo2Y3DQbRZ1xXzZVk2cyLT6VSvX79uZkRlgKPlcIqHzlvIUrf2ykZMGj4R/cpsPtEySBvAjic+ARpUFiyFQqQHzyYPXRoKiAon+WBMVP3z+byR+jJEa6mLzQF/z9Mg8KcO/lJuc1vZF1x5hvvu7q5JOQB8yj3oex2CjagEenayZd6XhM4KQKnCutn1eq3Ly0udnZ01drawE6XgGK08i4qpQlPQAYX5IqQaoKBKIXDhIqSOlyVsNhv9/Oc/b4qGU5c0PnnyRPv7+81A0AwLz0TLzOyGZBgArR3+oo3oRxb8HuiABBdhCiANdbebzaaJuqqq0u7urvb399Vz5pqorC2QZchZbVySugih+cAz1AtnYfGZaIO+5o56Kud6ADfjnTkKvL29VWZfZODwnfuilkGIMifj4E2apr/K4Hbt/YLOyiqvcu4Cjz6ek8lEdZiH6Lt2YunsKFKO1NJ26QgqDcmfvnMw5EW2XM5wc3PTLKDCy99yXcY6TKDhZ0Cs2hoCZpT2R5YOPwsXbo9Go4awMBKQbBwNbuyXcWY2JX0vjmduSjbJG5tbog7UPlKbB98qD2FrBGTmIIAKP5KdACzSD+AVoeiL35NQb5x6hSL0qENtsRzkcNAmY5b0K58FNEGktbOakeFrmyXsdlSxw+FQG9u2mYtmYruRIKkdLzrI7xA4dVp97vxJ4iwwkdTGTuhjKIOcz+fqOlk3Ho81bC3cj+OYhPXYESAwMQmSj9SptXVGZskGGIW1Jv2au2ofp5WjDtP+5JcGYUJzPp+/VWLw9ddfa7lcand3tynvUNBQsf9REHlW/LzyzDgAqsIkKQIDb1ee9Zd9nrquvwELaiu1TaXTIDxp1W9ArCyosuiXxA53nBGlk2VIVCmgufAE5sJ7jAC81WqlUdhHZeU5GVQ07Q3COmpMX+VsL+DpOvysHW7OHGYyPjQsxGecEFshGGAsaJ3aa6Kidts4ZzH0qoG+M7HL5VJLZ2/Hrh+iz3MXUFUuTr9zbU/iMBzTV9gPSZwIzZwcRWsA9MJWgjGXLujKQiqE8a3Xaz24cq8oCm17fRKC34ClcGU7jtTc6WgOGoW5SFYVJs16LpWMBO04/KqshmUVV7sqvWNnDeaD+tvbWz16/5bUzl5hf6mwaei7Cn8UFl7hEy2XSz0+PjYz6J2QV0E6S/s6dag9QQAAO+OQ6QQ46UcSZsBhUtfhMn8JQ7NQGsH9sgOJ9ptMJo2Pg5BcXFzo/v5e3bCMBp7VwQ0ALHXQFoCW/2ezWRMMIEAAAhoz5t3d3WbsWZb9ysFFQkBdYa8a55WjDo5abX+Ah4BgGKzWuhtZlQMWGF2FnQ86YW0wk2v0JfoVw+GwKbbuuJiacBEwxfsgGn3IgmmkbzCwPQZAxrVRchP7IIkjCBzfsddIYwZlGmchqbnxArTC/lPp5GVlLS+vKVp4bdXGZQiE0jA1ay0og0ZxTIC88Gw3uRv4A5h6vZ52vQMYYAFAKY3TQSKEwmpu6fQyjdIB0A0xc9tvrkUTcU3qcJT7czuXXecg+p5thiFJkjT+T2Rct9tt0v4blzPe3t42YSIOIlKLii9DVrQMle6VVfUmVARWwUeBkPQZ4nFPaY26v7/fMCFzJIEPVpaltjyTXdtcTVxkToj78PCg+/t7bTabZkrk5uZGpVcXEC3t7Ozo8PCw0Y6Y7IWr+QBKEmaTaws19Ot7bxk5GNmErcMy52zW63UT/vN7o1k4IhAiQjlAMwzFFoPaNKypQfroMN9XDsdy+zgDV3Jht4mq0Fg9ZzXZdKb2gqybmxvde20v0lOH1HXunIYM2o21IKYH6aRv3M+Ze44EYVIwx9Bms9mo57XCOzs7Ku1XrRzGrl3QxPxVbcHgt9T+G0KCUCyXy0YAdr0HDqH1rnc+QNvxLHhF39Ce8fuOi7d6nrDMQpqAZ9N/hV0lksRllTQKIXkQD4GoqO/MthcCJUnylhefeEIOZiPltEekUtqRhqFIKfYdP2PHJQxycfnZ2ZnuXaRM/zt2TgehGp+26mCPOWEO9wMY/odIuWto8SkAET5J5lnsvb09VfYJek7A8RyetXEUh38DLZPgM8zDRogdb0a4u7urp0+fqrSZGo1GTZF65FHkGYCJfJOVwcPDQzM2/CCEZuWqRjQf48zZ+YlGilATiqPLoDrOxKaOGnZckb4OHnTUJBAAbdP1hFSSJE3OYOmdmADXwktHIHDH1fqpU+P3XtZa2WRmVpn9UECFxIxc0tkmYGbBABxojEj03D4K2ig+rw41vIC570gtJtai08kYC4f4tMc4Kzv/RG2JE5z7+/tNxIcmIS0x8jwa5kgh+KiDuxCfAT+n06lyz3wfHh6+FR3Rz8qrMwhCMhzc2vUiDDASBsKtvXQzC9Vxs9lMN950B1BxPwyeeR4FKYS4hf2hNKg+YvzKZmo8Hqt2TcZsNlMetorIHZKyVHRvb09DRx1I0sZJuHWY20laWeWyVWLBGKrgy3DCBMYRr525uJ1nyhsN9J1sZJy5TU5mpxT6dzqdppALyWca49ErFAEMmmfsmtupd5gAlEnwV2hfBhNjWnuJbBY0MNpv40hz7Vl3BC6lEZyzyhlbbmSgNCYTa+MUNZITGcn1tWteo23uObwG6cIeBvvLc1aug7nzFl2Jw9SR54SY/Ua6quAfrUP6Hw0CMLKQ9o5M56SNCJo49iT4MDB/46WsHVftL1xVj+Qyfvwx+pJYo0Gj4+Njjb03TGmzzMQm2n7hkkt2ZXiXc0u7aBf+Yo5vbm6Uerls5YlYeJ56eqF0hUBuk9yYIUIyTFF8GMRCeyhskqOg3tViWOVKMFRz33kREM29IH8QVi6mVrlMAmLLu54R7bvkcdaaKS5DCAnz43MAKRKFac3C8pIILj7TBkBZhQ0NYRS+GCDsh/kjzAdgpz+AZhEm+Q4ODqSwl29p3y5xYLFer7W1tdWsN4pAibSPB99x/Y23PcN89x0FIxTdbleTyUS5zWOOz5K1SumysGOQQiSBZkByIorrEJ5xPx3DhEHMvmevO66AA2zbXjccB03naR/0zz1bS0Xa1FV3S9dyFM6XcH1kOoRLnSrgWfQ7goPPqaOKJGgCBKaw01yH+ajS4TuSjClce2EZ/kYSTNR0Om2q/Le2trT2KkMEDmYjNAOn4wF71zPUaEoOPkODTVhajGZOrLUVko9zF7OPXD6byqFq7gJkBr12eFmG0oOhs351SF5B4MjgSIBIuJ73IiFtPfD2p2QU8WUmrnnJHXWgiWDQxDs5MWAIEhnKZwjJ7zIIIEgeEm4ABYHpOEqIY+NZG/smgJOxkkzkuqhhFIqnspDN7XmqZLlcNjPYPSfHyrBEA1puWtMzmbV0GrYyZezxM7ThXC6X6jqnslwuGwCXLvRO07T5/i2wJN6jbDKZaBXW9QKILCwag3h0kIcrVITzGwMpnVx67733tLu7q8qqc+QNksfjsdbrtSbezqvytugjZ2iToIJhDsSGGVzHCXC7YddpCEefIqM3IS3OuJE6vueIWg6zjclhrJ2w+xL3I7GMMbV/R9+rYOJ2vPkhTvvG/oRc9pmEjDtaqwwmVCHKy1pOOcCW+VQ5+uw6STr31vcrr1NPcHATh67E1oAFQme27yNvnVW66ix3iprOAYDSth5CcOzv7+u9995TWZa6ublpbOKeNzzGGUaqeXZkXmKTRbQE0Cur19lspnmrbKFw+M79iSOi0qv2GG/hkJExVOGdA3FMslBsbJ65H1CiReZeNluEHaUAUemq+ZlXR/a9WfHINcaPXquDJs5d/4u2WHlxP6kF+gcAEVIFrYt2LA3y29tbzedzHRwcaHt7uwFjZac5c7Ufmi9VKClchur6yvME2DFmdBeuX+049ubhpZ1fiA1RIWiv19PTp081Ho91cXGhq6srzbx4e+CJNYiB0wkDC0/YYetxkrkHqSqc/APIub34ImycXDm64btNq7aD/kfwRMACNlkbYa7pA5KJlGdONRwdHem9997T6emp9vx2EfpCAMCUAGDBfzk5OdG+twgDvAjP0PNOsY/dsKIzteaHp5yJzdB0OlXXvg7mLl4HaEcsX+UmJKDrjB2+wsZ7rKS2YVVYWJU4bAbBHdv50n4KBN7yNl9FUejs7KxhbBmWmqI1IDYOVt9zGdSjJq73xW+JjMyDDwJR6jBTnYTJswgq7oPwSCJgwEzUYbKOA0YtnV/Z2IG8u7vT119/ra+++kqvX7/Wrbc1q51UG3uxWxH2/cUvlKT7+3tdXl4q9T4se35JBM/MrIERBABR2hdD0Pmd8dXBt5x4sjb3PJhCcm/lPNna+9ik/LhwAXQWVDXA2XGRzjpsJsMDFXwTGN8m6tDLGcbeevPq6kpFeEUNAFTYxQCJg1Bb3jt2HQqwkMg6aAWAEgkC43lGEt6jg2lACrkHCUYoIHTpUBdpRAsWYYabNjrOemdW53deJXl/f68kSXR0dKQjvx8JpvQcBIy9mdDt7a1ub2/V6/Waa1eu3MfsQf9o8ukDoIYO0XJU1hwL1xARqeIHLbzX3MYbKKcys2EaD4A4ubfs7vV6uru709qhHw/lwfE+TqSVJFpZlrq7u2ukK7Wpwa8AYKVtas9Z5cz7vkK4qfeag6EwN7cDG4EBofi+DO/7YQxZcP6S8EIufuNeJDSzDwchGU8UOrUSeFnIQ6FNKtfsstcNPpZC9hfATL1VSce7Ya0dLXY8c46AILD0Bzp3wiYF8agtgJj41G4Bwo926rAwvgilCKhm1G5VVdrZ2Wk8dAhfBY87SmwkqoJpGniB19wZw3g9apjrZWIxhzTxzpUrb7yHk5iF2pB+qCFBExKWd0M+A5DglNah8AkJTYI0woAiZHH5DbAX3lMFmkVwMraNfSMYk+e5Jl54NxqN9OzZMw0Gg6ZcoXAupe863wdva4YZnnqzxC3XKgOEJFTw1TafCNwmrGSM41h6zdWWX4JBOJ+GdUc5Di4oLEKNBoCpLWG3frcNDwMwgCaeEBbw7e3tqe/XtiB1dDQJ641Kp5cpakrt9T/6VSdJKPTZuJAItckAYRomYuiSRn7vOhmICQIoakU4cQxlKJJWmFOKQFKoFeFZ0KiwWaW9JLzGhqiw1+s1C82ISquwYH8ymej6+rrRgEzcYkYjH9etzao7YbuwLJQtpDbZlK9uh93OAVee57pnf161MnyrUIkOoXO/qxBbmVvdQzC0CQTtuWKsExasld72gQnB+Fy88IG3/eq6doMEF9IIo/lLPzYOXwmXp9Oppl4ntPREIhokC+uV8TFgItomHhAVoKq1tTkMAgQIWdZa6A6TYBB/Z7OZzs/Pm9fFxJIPTE2WZbq/v9f5+XkjUJXzMXXYNCCCIGoQ+lnbJPG9LCATF7BnThRGs1oURbNd2jfcCkcZ1s/U3qUJaS7DDG0anEFUN1LNAAFcr9fTzc2NXr58qbIs9eTJkyYRl1j6hp7IlJdKTj3dr2CSRs70Ys/l5FRM9a/tAK9d8kCicRneJbgOk4xR4pHGNMy6R+LyFyJGAalsWgEF//fsOGIKoBuasnblHOuLGC+CkNrU3d/f6+zsTDPXy2TBKR6EmpPcUVD0yzbBLeAvz6Yv965Vpl3GRZK2AUvSsrOA4eHhQUNvMsjgGACES60dUHVIWWE7jrq9uLjQ+fm5qqpqlsWSb6jDviQPDw+aOF3e9fwHk3OR0MuwYzdASEP6uw4RElJShpljQN0JlXQQEiICgtgG32/s2K7C3BDmiH4CRJ7DePLwWjxMIQybTCYaeLa6450zAfUsbPteFIWur69VFEWzE2dm/w3NG/vAmNCA8Iv+Ut6Zhb1eZMGteREGxOFBAIIBpWnabIIXD0DD/fyF6JW1BV4+JuXy8rKR4JWdZhgO85Owz0sWdovipC3aQWL5C5A5+A4ApZ5AhHH0uw6lhdyHRlWYUad9QIsJxPRBgyI4t7UFYuSipTzsyE2tK5qwdLHTwDtaru0rdsIu34vFoll8txt2yVLgBwc8pf+pw+5oBdYu/0zTVOPxuNEyGzvF6/X6Vz4LJ+pvs9no8PBQS++BEpkSH4o0AiyuKYPzBRCQhrOzM11dXeny8rKZOb71W81Q2x2H53O/3ezOb+tahrC7E3bqRkNUDuMj+COT0QCRoKhqBTOSBjPL89J3JLW4Lko+/l1lLbu2z9QGc+1sK46lbFbnLkc4PDzUlhfWpY5MoCWaCM2Vh6mXjZ10hD4LS107jtjysAcLfUJYB35THXQdeQoihUAABIJMp9PGC1dIoUdzA7EiQ2QkR2aVjhgYMNPuMqOmrldJ7BwnDucevaVqGZa75mE7EGw1fauDZktD0qrnnAj9iqZn3arNBRhtYqYhrK5s0tqAgVEABTrxDJ4XzdcmbII8DEtG1k7QsW4aWuGEJyGfBOjg4bvG0gs5KwSc3/hcOIUy9p4zud2R1LVFKZ3Ds+56CSjZwkfvSFmESTYkC8RCtCTMcA4cPjJwfqNTSDL2OA6cAVchATYej5sSSgrFs+CEMuilzRpOMoxZ2/GF0Nh01DzMp+99FwMBEMZcB1UfNVYk/jC8mQ0HX6F0dOHJS8zX0qUCccMigPL+++/r2bNnevLkicZewot2SJKkWa2I/4fZLMK6L3mfF1IY3fBiKtri3oW3it31+xbTsFVK4+DKyMU+bm9vqxcq7bmutt2PYEHqolQzYDrN/bFtiM8zAGXuGhAAN3CpAvdA5BjOp0G6+Us/49HWgEko4mY8ic3VIuzNUofkXR6caNrIrfF2vLAMgPCcgdMCJNWWXleEDzYNu3f2/WLwJ0+eaMcvA9/3O673vDU9gLjwS0zJSzE2xi8n2XZcQ4RQwSdoxf8bZ9S7nlhMXMWXk5SjUVRmZee0dBg9dD0DjW6cqErCHAnfAwDCWyRXNmUQgv+RvCSo0NolmFTOAbpb792PtoPBgBjGxIOxYT4BA31Fe0ShABgj79rAWKJgdJwm4Ox756rUziCmFelGo6DZMKWZ52BYKDdzwfqWK9hev36tL7/8Ure3t9re3tbJyYmysFEQ5qrn+lz6Xwe/Dm1ShsgsC6sYoV/t9dB3fj81jnMjkJGwPe8cOXKK/MEb5nXDJBsngMltD0Fm7vkSJLAO8xVoCKQSfwIgRi3UDeuFiRKWzgAD6I59FRkUdUtK0hAaAgpse9Q68Vr6gJlE2yi89rcK+65BeKTyXSZwGfI/gKYOJh/ATJy5TR2tLf2qGLb0SLz+uOclOGWrnCAJ6Q/6ntpvym0e10700V8EHp6unFPJvB6KsXe73V85uLJUbm1tNa9vubq60tLldZ0wRZ/aqV3bcYNpEI7OwWyYBGEe/Sq7CBSYgCTkYdE9zAOoaLWeIyHABygjOCJoYTLPrMJkY2x77dAUfwIfgz5wX3x2HeaBABXXK/iFaES+63qXh45LDWQtuPGLwQmlZ2EbjJGTdvBk4UIlnOHa2oJxz12Z1/MGQ/Q7+oXwbWMfk3zP0oFITbo/seounFQa+Z2AqNE6LGoCvZ2wRVZtKYFJqaMevG+IMvIieAi2au0AlQVpLb36buEyhTxkNAEAJgDwAkqISD+TliYB9IBLIXyG0BE4UdPAaNqiPQAIkKEDB8BFoBRot+VNBqFV6ZQB6QSuxUQxbhj+4O3Jnjx50rgMaSvDzrOhD6BHI0Ua1s4q43dllEUoODs4YfLrU8qwH0rmEj6kPqqylRM4dZh/6XvJ58aZTjq8cLHS3HM4+DOAKw97zy3CrpAMthfmnSI444DrkGTLWmUCSfBp0tYcCm1AINri5J4klF3yDKQYBtFf6BS1EUyTo8HKM/sUNyHhy/Diz8IO96I1RQGoVqtVs4k040FAxn7PUOqEG2BhTJF2qX2u+/t79Xq9Zq6uAYvMrOPjYx0fH0tes4Lk0cGeM5AMKKITpvJAQIXmyF29ju/BFELp5A9A2bT2V1MwK20GcKCtMAE8E4LAKAANEWkD6QJ4PI//s1DPSp9qAzIL9cK5tR+0iW1ubGbzkLkd+pUxE1erDT0/hs8IWMtQtpqECI6DJF30AeFd174fWgLTTT8VNKMMsKUrJ+u6biY2i8Lvdc6dgCKX0QmvgaNTa3vd264xgRkQKXVthVyvCyGWroGpvfPB0s4e0pPZdCjsl4uNhcBqOaGlw0bOpf0KwAdhM6t1wJqFCVFAtLHaj0RjPPwPYABfEuaGAF1mbRpBw70ApBd2x8rCrk+r1Uq3t7dNAhQtC2gYC3mmfb+hDS0BTQBR6pwJPO24QIp+YiEAPN/TX4BUeAPshv4KNgnkz8IGMwAJcEAQiABho0/DumPaQY3NZrMGHDA+87wEDhyDjh2GubJEl8GX4IygAhh6xywrn8vWbCy/Ay5AxLPfRchlSL1X4c3tSC/94KxsfpksBcQdTxje3983Ffe5Vz1sub4k98rAnZ0djf0+baKVKLCAgu8RbLRt6RIH5qMYG/1Acyd2nAeewB0Oh9+ABYnsuGTv1atXzUBBK0yt/FYrBlGG2le0yLHf2H7vPeJkU7YKCTQQXtqRxZkuwxISAFXZTPB5Yxu+DhX9EDQyiEEDgiLsCAVwuIdnKeRmIkD4n/YAUmH/Cv+Ca+P1uTVLx457EuZh6EsVNgC8vb3VYrHQycmJvvWtb2lvb6/JecgCse3X/eWOOllUv3ZoHH3LxMKxDPN8Ozs7jXBXIfyurDBKl3PmBunu7u6vHNzt7W3t7u5q6hcs4nhxAqSZi5di1LJ0kdHcm+9hNxdh23MYW3lqnoECENqMzmubOZuwOxNtJWG+p2PfAdWtoIkq+xHxBLiRYKn9LTQEfYn3cS20K8J7o7NgBtBQXM8zYQbamj7UDhDKstTl5aU6nY4++ugjfec739HHH3+sXniBRB0y3x1X/tGn1FMqhaNOUhibsNV831t6dMN+eO1+T7x17Tiuda6sLUajkVZOHEFo2ZdIXfMw9VtBx37zWdfOae3sH5IFgNbB6Sxskk5OTtTzDGriFHfu5A/MQAtUzrVEsCGtEAtiR43CbxAzask8aM3IcNkhzO3AQ/g0+CwwnYN7GW8dIjDGEMefhKx3J5gtBCXzJoSfffaZ/uRP/kRpmuqjjz7SycmJrq6u9Md//Md68eJFU+pI7got1wsL/QHM0FuRAOrr62tJaviAv1e1svOAC78qlR2qXnjrKUSKBKm8nDSxah56ERPOWOpZXkLvicsh6QBE5L5HL17qtV46WYXVjQCRCGHQWhsMUZCkRciexnR72SqBVDAxaWt+BABFsxW1Q7wOMKKZGGfUknmIkKBl7E8aZtKj0M3nc/30pz/VZ599pqurK718+VI/+9nPdHFxobm3P1140o85sr7n0+hLYROHIDKOR+/TO3YtDWNIgslmnPf39+rYp0oVXqc78+Y8DIqbUO8jb8mxdpV5z3M2oHg8Hjf1tufn51p6NhXGIFHz+Vy1I6ksZA45syzTXth/BXB0WyUHEBqpR4ppB8lCUgBGGTK9ebDrCtqU//mchRlaGC076D1PdmIKodcwvIyKeytrIvw0AJl55SIpBHmR2aeffqoXL17ozjua4+dM/cY2Pi9dWgBdFPJn3bB+uXbV28XFhaqq0sHBQQOwCBhAfXV1pcyRWxoJNHEFORdGu5qFpNrSK+tHbMUQCpGQjlnYdx7C971wHBVaewYZBteOtphpRePA3MhQJJUB0g+YDzD4nWsjIWMbkciJTUUvFFbRPu3RFs+MQEDdFzbfRB8AB7CX4d2LG4ewozCBl7lQm+mRsRNrCAJJTfqWhQXysZ+dsLFS7WkJoi7cD/jRHuPUmwrt7e19A5aVs7RTv0EDNZmEEFOWIpjX6XSaGWFUoMKGfZkLf1GVEJ3vluEVboXD9B2v9+l68hBCLZ1zgRCAC8YySE6AACOj5okmgCMSCIZzbRSajSfeshAOA0ruwTfheUv7bWUo5xz5vdbQbhlqcCrvwkQ5Q2YfpixL7Xv71I0Tl6wvyu2jEZUVwbcDRIwrseBwf8dLdbASUcNw7XK5/FXoXIcioHjEGwBPJ1Sl8f087EqUeBsNOph6ngjCTFw7W4SUde5Vj3t7e8r8sklyEWgeiLly1AFIooaI/cyCI8v3AJ2+R6Iwzsoh7MpRF5KP/6V3TBPEdqtQuZY53TAJ9cOrUGQ2bBVGTVzbsnZNET4av2Xe8CjzLPXCJQ+A89776NIn6CCnAyKAyrJsFq6xTgt+YQZlBTF1rU0qawOkIgsOWx3MDwTJQ5KOqCkSrnZIV9p5xR4CKmxuHYqJ8E8kNaWUG/tLdctcKcyvKMx/RIBgPgAs2gGQRJABgMh4nhtBwDO4js/taxAAOXBIvIhu6WgJx3vttVAk2aDZ3JswYjJ6Dt/5HlMf6V05MKHgOrM5ivfTL8AiT+nMZrPGPMK7Xtjls/T2KGV83xASRENq2XIIzsMAV+Kyho7zEZtQx8u9aC2QDUMy10wQQaFG+Q2p6NhpBHz91sY9WcizMEiICEBgagRPGWadq+BkA4wIkDZz4tH+PzKGftIX6LZwkjJxqcWWyzABONo3dxFWkiTNdAn+ImPueL/c0ltj4NDCr26o4YE3tX2YufchHjhTq1CyggA02k5hV8iF6yIUnMEkbKnFd/gctSUeDSFng+lg1xEUITeOHZ0YuFpMYWFZJDJqmgQSuwsAwiw41xEkqOZIHJgVQVT+KdqGdpPWhJ0CXSJoooBl9o/wVegf9Eltwkpnru+9Vqh0Gn7Lu0UAmtraYTAYaOGKuszRIvmTlfcIHgwGevbs2Vuggwb0OY4j8fud1t56He0CHblfViapQmIJ8wAjkpAfiMwgjwFRGRQ+AkzIwjwQvkZmLTD25kCb1l61qHDAMvZkG9oEJvPMyHhAAlDqVi4jaZmQ+DsM55o47iwUUUXG0494QJMy7E9DZAWt+H7hOmLMs1xN2A2vEqZ/mBM0EkIkO6tXV1eq61onJycahRdBVNaY8agNmtTveJr5Vb6ARWEbdo5ZXGSmMHiYnlh1QSRQNvFrTjr2pLmu2+1qd3dXG2/XxfUy8VdOkHUcHW2cUp6Ht6MzD0J+RcFzn7i8oQxmBKZEX4jxRDDlYYoiag6uBRCABfDQHqDge2gFMyIDoqYDqDADYaoc9dAe7fS9/WuMGhfhtcGDwaBhPgnO9Xqti4sLTadTDb2wLwo7ghgPxvXolYgdrw9a27lPgkWRpLu7u1/NOiNtIBJUKhQ7cyPSgfSnYZ/6gRcoVVZhmzCzW4cpccADIRKbHohZOPm38Eu0STwVzmEgjdHxZRwRDACicGgLM9OgliOjIx3qoJU6oSoP7RWfFUEK/SJY5TwTxUSbUP+aeGoADYt5Llwdx1naJ6mt3bku8g9QpMFMA0T6xfj4iz85CC+5qkLEmbDFRyQSRxqkJxKuDvMeiX2QXq/XgCIJDl0WMrOReCMXTwGUNJRg9l1jAWOXzsW0B5mHiIfIqBNKBbOw1Rl94TNagDYy+xiYLghMGwCYsSB5a+dOFEwPv5U2gVwfiT9wNWIe3vqWhhdmTb3Iv+faIUz1Kmxtj0bKw5vnt72qcRXWRqVBywFY+svf3DtkLBYLbXs1BULCdYAmVWtReGQsBEtbS1YBVpTQ2o4YWmcZdi2ACfgfpTOXcnjZcXEOoEOrRKKNXLBD/zo2ZTyfZ9E3GIDq5jkMPAv7ltB/foMWic0rahyNibDQXxiusB0HByBbuHp/Hfb3TWwmAG4eXlA1mUyUOGcV2156CqXnCn+yw9CJaxD0PExnACDGnFiQCMsHfnUg/eYvfH/LZ2kTi4YBgIIUZcHxYzA7OztK7TQtwn5viV+IOXL9Sh1eR9vxJBWOFkAhyiIsZ7AQDfO1CeEuA0MrFcGHgVAADCYDTtmpQ4usnJRbhz3ioBVt8X8aphkUdugEXAAOAdh4Q8ctv/ATbQv9uW7q3Z3G3vak8iaH0Ie8CstDBoPBW7RhTPCQA5oA/FVY/rHtHc43IUMOHX8V8/moQlIKBiEdWTBBebDjPJwweOIqMMDG7Gbp5ZFdLwtBowCQopVuxlHbhGUUEB8mF/YdIvPoLwxaOodU2/x0wiJ6wEtfGRP/x5N7GD9tIUCYRa5lHAgVjMGcdJw7Uku7cy8gQ3vkTp7i/CIs5Fx4XuwfzEbTQCO1ojmEAy3M95GuqYw+HgYxIpGKMCHGNWiWNCTicudQIIacbd3d3VXH80KJnbrUaKfDadBWMAxJLUPkA1NyZ5XjoNKWSUmCpizC1qZJ2Hgo+ja0AxMBTewn9/O8+Jw6VNC9i45onLm3IEFDREHgnp5D47X9HSZX5VwWGg8hxlfqu0wBfiJQ0ETBxCB0iQvVJt6ubOxNlugL16ZybE/eI5oZmL/2ZsD98JpYHszD0TqRYZWdsaGLtxPbYKQ+CZnNXthOC0bSSQYLqFGtPCcCpA4mVUGKICwaLLH09UNFPGODqVUo06CfbQBEICwd5sYwPhI7D4XbG/sxmEuekxjI9CvzPNDGGiRKPbyhPgXNgLPMeOh3mz7wSC57ffRWYaxhYmwyj1PZDxl5qhopy1uLv8mcQoj2wyLT6RiDltUc9nDpeRI6MvIGwvF5SVicvnBmmYylwpxQHHganG++g/FIOyp5Yz8H7ZKEGedoEusARrQGz0LVA9wyRI9JMD9cO3bBNRN3iQEaT7Rn5t0cRqNRM7EKDWg/9fuCzs/PG8DBv/JPKeuAZvSZazYhN7blddbwh2elMiMLO3mxQR605aKcwnE/A2oTcuOVh1koCJKzf0uXUKJ2UZs4epkLqGDqypNvZXhPAISIajgL5QJJqy4lHvSRscEYCNE+GFfa0iBV8HN4bqQX/eB+vqf/dWvR/TBsDABIaT8J+9XMXTtL0k1m+MJZYMbCOCMt6ndEi7GPjLN2CmHkgvwy7MQp+eVUqBxupLOgndCMKIeOcs8mOLOpVTKDevAraDNPdS/CW94jcSOAAAOD7jmszEJEUIa1QbQBgdr/tzUA6l7BoWdMkdn0E0BwbxWm8mkz3o8ZTUNtTeacxWQy0d3dnQpPEnbDCkVoV1rw1g6zd3d3Vdd1s2n12CsMa08ZMNYqvNWM50FjeKNgmvnM/0tvoDTwagH6Ah5ShR0fVyFUzMK6W6KSucsAIaZCRNFxNrfw0ggGzzZg8/B2VsJmCA04aAsTgDQwWIBUtzKrVZjb4p4yePrxWhzaeA3XASDuiZ8BJUTnOwXiRwbxtw41rVyHlqiDH4bJjv7GzNuOAZjcCbQ8z5vNlgoXwVf2r2g3a83R0XfGA4iEPxL2HE780tPMgqO4iwJMqII3zkDH3m1o5ZCvbCWcAAozwmiPxNoC5iIlXSfKGOjSa1mihNC5KG1FK38QCRCBEplSW62i2iOAkEQEom5pjfYY+a5Nnzokt9JWPkPB/HFy38JTFVl4A1nPy4O7ng5YrVZ68IvQu44q154C2dra0thlljGIWISFYQoAjuOO4+M3xr9yBngYXoWX2/w3d9FYJ+w6QAerqtKt32ihltkqPQHIy7kvLy+V2WcBLBAK/6SyKeHENAGmPOxOhNbBrwIIheeIYAASqtYiMdoBKJhW+h7/p23GhmRByCRsCVoGAcvCeufoX0FoiA2w+Mz4ASh0BYyMfelEXG4nmecTPAD4uVcyHh8fN45wHtYoxWczfsYFvWoLWKdV41JjhiCGDAT+ZwZ0uVzq3jsjMhAQu/GW60dHR1qtVnrz5k0j9XQGghLWkZ2E4ZnXCbdD2KiZGDBM7IStKzJLJ+ZtENL7keGAgb8RPGWIcmif+zkBQB1MZwQMYAc49Im0BO0DOMwGWV1oC/BhNAK18QK+yss5Cue/alchnp+fa7PZNHsMJyHCg7+Mn74kQdNwPQ4zUVFzPcTOgk0D6WQGmfFVy37XtscdlyqAbr5XmD8C5VUoVagduhIVyOADHHXIncBgGBmlNf6ev2OSESbTD65NQ3QDsDmQQq6DNnXIEANgPrdNXhxjGzxIPqkB6IUg9sJ7B2S/Eue1LMsmt0LfNpuNLi8vtVwutbe3p7FfQQNQovZgHBzQObE2e3x8VF3Xby2ZTTBDXBhPTFBtLxwUJwH5SZgII/yFMTCdA8lq+xwQhI6W4XXASXCk20yXQV04L7L0DDUqGwZyL5oL8EJAmA/gIhAgNkyPbSoQvAwRHOcqlF9gQrkXwMe+rMPbXMuwEgDfJHeOa+rlH3zOg5lbhFciZ2GmvA2Q+H8dfCpZWB+9wgOwwOcGLApaI/f+Y10vCItxPEDCXjKwjueIAAFtJmE7r7kLlbl/4LT0JuzJgnQnIanFtW2tAKEhNmZr4cwoJoLro3qPRx2cVIiHBLev4/n87YatwngW9/KXPs1b25pWXnWJ+V15Qo8J1coafss7Q9WeSmGcc6+qwPSikTZhcpT+IBDxgEftsRZO8PXCe68bsCgQDLQPXEpwc3PTgABmwcQyvL1UITW/8XyFwosOSm+OTCcgMt8jMQyKgcfV/hxpmLSjvwAZgvA//ULbRECjqbgWYQE4CAHfxefwDPoBeGmzGxx16FaH1+cBbr4jlV/b8YUmKxfRj8PLQ+lL7RronudzoMfCWXY0TgQJ/3O2D8ZK3xhHAxZupCOEYksnaRR8D2G/wo7MkYCoWwABKlcu1eM5tb3uZXgvMoTGbOAzRUllgDAGyeTeKkz21SGxWLe8f7QbGrEMPhIAgNgctJuE9VOALvZnGN4c3wZ0FjK+WVhBiBBteSUmgMEsZWGzIIV3cd/6PVC9MHu9CSss0BiAmfHEsUQhSB1p4UDzzCzze51hEEwhxp6H3RQYaJRI1B3SgjQOvZid3YlSaypyCLRT2XyknmUdOLTeCm9XXTm/g3pGjZc2f3nI0EYgAgyO0nZ54wQZxO+0yhVg3jK84LvdVhpKGfgfItNGEZzdKiy247o6aJmV/ZvalYS7u7tNIjQJJZc9TyxioqAf7ZfW9DyLcSmAg/9pm2s2Yfqj9OsJ1956DMFIFbRB4TwGE34PDw9NQ5vW9H7fVWt9v9i7ruumEmxnZ0eHh4cN+re3t9+ayUQCOfFJ8JNkgNInTBuM4DMSGoEK82BmFpJSEBdJZixowCRM7NF+FRzhjTVUGswVB2DDlwDg8/D+x6hh4tgVyg42YbvTLdf8zGazRsNv+20htSdtKackUGDsCA4ARUgizWL/o4BVDp9Xq1XD6y4Z3DrE3TCt8MLrMqw74UiCzex548LZbKazszPN53Pt7e1pf3+/IQAahQ6t7OBteT95nLMybAxUBg89D0VGgCL2ASLAfLQUGhImQYgq1LdAXJ4PMeM4AYIskZid+DsSy7X0ic+Aq3TyETCwnUjqGl4ioo73z89cqwIAE7sJ0KHrqBWfBWd37UlJNO7mHdX9jIG2Ih0RHISupJ4FhHVdwZamqaYu6YOYPDRKXGnfZHt7W/NQ0EOcv3REkoUFUxA0CzW5dfBfyCeswpJPpALm9JyD6IbSAqQI/4W+KuReAAVEYixp8MWixoBonNCjDsLF9QAG2kSwRM0ydAEZWiRzKSPAgAZL17lAJznXsnFdC3mUuq419Mx15eo7NBLjiLRLWukC/me80CxioOcIq/FZ5Mhle3tbS+/fHokWHxSP2rmTqD4HrgUFaKj1ymYgcbiX28smZ4BUcVY2gZjJ0lpu6Bnt3NFG5sgJiduEdyZC9CRoHcwOTIdwnHG8jLGy5uAatTTsKuzAzXVcU4apAZ4ffbDSUyuj1soHNAmREO3kTids7F8h+YCy742EagshY2oDI46ZMULnTdgaBac7lZFX26R0u91mGp2booQiXWiLpScCN+EFBtPpVBcXFyrtxUNIOoKEL0LFuxxxoQFgRB5C0e3tbR0cHDSmC6ZwbRVmnwEYQG5rp0icKszNREYDEL5LQzJQISSmjcgI/sbvoCMakX4BDnnhWNJaTC9XM8K0tadAKPYunTmHXwrzdwrjYcztsbYBw1jI6YxYWSEPPnciTp5CjwSIDAGhCmV7pb1omH59fa1Xr141W1nxUFQuao2F3qjnofd+jetgdnd3m/fwPH36tHnvDuCowlILzJeCn4NJitqJA7DUrfkmxhfHnYU5IoXoimuw7TApnhGg9G0QwuosTJ1koSKwDvvud5yLQZhns5l2vU3J0tlr+IVgduy8l0HrqAXm9gG/+Yz/1IAlcSU9jtHM+9XyG40y4MIp9sTOFtqgss2ce3tOVhISFgKIoiiajXpqJ37QJkmojd3e3tbR0ZFOT091fHysra0tJa4am4TtUN8VTndDtIHZUcg7ZGHlI0ROQtaYvsBo2k3DjDMARNAGXpPNX8Aa22sDLwm7TCm8/IE8jRytVtaKaBbqXJiTWzj7nYR9cjrh/QqbEMlx0B+1NEwUoEVYCJjKSCcBNpvNmvyKgolKgkrlu8gMQARo1p7nicCqLSnYajpMmwB15q3a6XBilT2dTnV9fd281vbx8bHxbSAkjGHgaXj9HVomEq0KpitqnQgW+liHuSPuWYZtQQFC90+ZAe85TxLbAgiAp7K2RPt0wqbHhX0v/JGqqrS/v6++XzcDSKqQd8FXimPioI14QB9ZsMDCaDT6Biw9F90UfsME9h1QRPSlYTVgEuwwpqC2GsTs5OHFDWiZxJqM0BY1HAdD2wAEkFxfX+vu7k7T8JKICKh1yFcAVIiYh8q6MkxY8v8mFE5DNKQsDaFlatOycYkBOYllWMRehAgIsHSdkIwMq8K8VuKIDnoC9HV4pc1ms2kc3vV6rcPDQw39HiHoxvM3NkcAkefVrReiK2TPuQb6s+fu9vb2N2DpOA9BIonOQqgkhFsMIPEsZxFqKjph0VlUZZXT/Vl4dyJmIndEk3vmen9/X3t+lx/Inngfk4eHB809GRn7DbMhEECvWtEU/ed6wJm0or0kLFGpgjMbwcLJNbRfOo80d+nkJuQ3EDRMLgcgV2tXqzqslgBUcxc49bx8lXt6IRoEsFnww+oAfsDQHjc047fKb5Nfe7F+Ktu06XSqu7s7zT2TCeLaR9dzH9xDw5vwMoXpdKpJeO8yNhjHLQ+FzjAYaZbVH04bISama92aSVZQnWgOTBEHTORZAB4gM65eeEurQlEV/eX7NEwz4Ktg6vBVMM8weeV0gCz9Iy8F4bfKwF55Ao9n9ft9HR4eKnOaf+HZ69wm9fXr10rTVM+ePWumCVaeva5szqABz1agWQRK+/cqmOghGxBuNpumDhYmRukBEDC+2+02Kr4XNltOw45GdXitHdoEUJQhlo/nwvkWVhGsg0lpDyZKQVSztbVZJEAdEnQKIIj3cNAubQJI2uIAEDizfU98Yl4HziB3vLM1IAccqZ3GOrwMHcbw/zKUU0LbOlTpLRYLvXjxQkVR6OjoqAFoBDV0aPMUcJah+hF68js0Q4E0YJn45dWVVXVEHqfs3+ROHPV6PZ2cnGjlbaroFA+NIINgEAspj89AhXMWrslgABCNA8DBYD7H/nK8i2AKJoD+0BbEimClbbQIDivXFqFQKp55eEc09MkdyZyenur09FTbfjVP5iht4YQiER9ArF3CUNgxRrhG3ko/s6nPXUJStswtfQIokc8KghO/u7m50TJuEwbRaCAJKezKUoWT1rGT2Ov1tOuXQ1xeXkphpWBpU4JEQfCodmMHN62lowApDYXMXBvPeACCeB9nNH3xoJ047vZv8fvM2WL8CvqK2Zx4u4ypM9KVa5lH3jpUBn/u+aHT01N98MEH+uCDD5ocEtpYwQHueAVFx6kJQLRcLpvdJAE2PmEcK/2PNI9Cxf+RromF9OHh4VdgaR+gkYNBglqcrtQTjyu/PAD7iIQAEs6oTWBiHZZrtMGCtAK0yLwI4jYwGCzg4N7YNt8xjjZI+J3/ISzAS0LpAH2tQ7Q4cEnG2PW29Tv2kCO5lvitqnt+7V3m+SCcWCKhzOuQaQ9tfX19rbUnbKE/7UQAMA4+I4SMieuhLQINbxrNAlEiwdpSXVl9dsJcBITGttZWuwPPJAMYiJ+GTZTj7+U7UuZ0GOZFcLQZTP8UNEL8PgK1DCsF4vXt+7i33TdoUgeGIWA9pyGGYUPktetjNs4VoRmurq709ddf6+zsrAkuKvtLRIZdv+IFn5IMN+1WnlsrvdQmmmrAzTja442CwneMq25FRxsmEiPRaZCLYmObUIHO7zi8dJB781bmkg5kVuOZbXOU9Ph8noumoOPt3+NvZauqnmsVElL0nTMekYBIWRqcPZ6fhpoR/DA5/GfMlQE6m8308PCglaMcTDNRzePjY5NDInNORMVUB3mUddh7LwlLZvitdvqiNojj+Bgbn+NfBcdegb+ylan8BrZUIQSNjcWG+L1NMGw3D0Ja+fuudvm8aW3QQ7vx4FoO+vWuk+vbZkahBgUpAwj83m4HzcEZAaYWUNEonVA5hybBfKBV6gAuxs138/A2NL4rveHgwcFBU5C2DqUNqd8eh5morJXQ+lXwCzniGBivgjDVgW8clV8l85YZUihXUGAuqg1G1A6Lt72b09yJMjqIA4uZKVpbjG3C3rc8OzIrHvzOYDjqll8Rr4m/oQV6TlrB6HZ7XN8+Y//of1toaF/OWUWwzD0py33QcBM2M1y63pZNBKZepzX1QrzBYNCExnNnjDfOa8FY6F0baLG/0KhNl0gr6MdffgN4t7e334AlNpaEAqAoWQqe/ya81JtBgWg6Hx+4sfnCASY0rlqZxHjGzr/roM8KfkVq84GDHTVKFrYBoV9xvIyT50MoThnsjGfj5B7+Vx5esAUooimAKYw3sbairSIUf61C3S+Aor8rZ4fLMKsMXQFT5c0Hes7jRKFijBz0g5NxQxt+XxINwRQuhrixIR7KAHNPPi4WC93d3Wng7cI5IHAaalJ4Br/TGX6nH3zPEUEbr2HQkenkQCAizEXieV7pUDP2k3EDMkwLvoiC+Yw0GA6Hb9GmCBEcfY5goc8KJhKAxjY4Ss+RzbyeCIHInb/hvm6329QR8fZ4wMvzoBXg43+OSNMq1L7UdWsDwjggpC3eDMOiFBdOQadeGtJ+EMmoKpgnJBJphPEQHMmsDFIGw/MZJL+nIWHH94ABxm1s+pahTPNdJ20rAJLnVq2doeqQLYYpPDv2O/Y19p0jPpt7eI7Ci7z5y/5y3VCZmHrLjKurK63Xa+3u7qrvyUZoxLjoUxvI7zq5N0298xOAoEEuaEt8xxN3EInkD2CID6gCWFIXI+Pw4aTxHDqPVDMInov0t7+PfazNsGXIbgKS2C/8CfoXxy4ziTOOBQCjWXDON/Y9KoMeLdQGNf3nu+IdO3TTZ/7OPYm68ox0Zs15cHCg09NTjf1+51/7tV9Tr9fT5eWlXr9+rXWYjUaAG+0Q6N2maWqhiDSN1/2/NItCFRgNwMC+F5/xQBJPmf2VrvcV4XcICHMhPp8BAQRqdxwiQ0juiQOgLSSb6xUyzpgk+iX7T9wfQcrB8yAYROS3IszhRAHgoA8cUVtWBqo8Bp4PaCIIcXxZCL/2bDJvNavrWu+//756vZ4eHx91dXWl5XLZTNxCryiECBk0pg9ReBhvpFmqVjjFTbFhriEhVDkRhM2MyCfT2JYYhVJH2owgqUOyDCbFvqllFhg8QIkMbUt3HF8cY+oIhftoMzI6CxoUx1lmftSWy7Agn2clAXz0A9oAvDqYd2iRtHbvxuxVdng3fiHEyC9mePLkiY6OjlSHSGgYtreHnvSHz22+8x1nHQQlxQxxxMFVQfL5n1nWwskmBi8/kIHVzuLycAbYRmrsSOyoAjAgHgAAbHHgnAywekdWOGpL7qXvsR/RoQVAjIVxKmhfwEG7sR0YwBGfQz+rlhOsoPW4FoDRN7ROx9MKkrS/v9/4gSQ9Iy3jwXPi/+86OaDjW2BRuFEtAtShuKn07DC2XS2wLJ1c2rjsgNBPoagqEknBZEEcmBL/h/hpy9fgs9z/TYhI1DJXkWHxXggLYyKjI+AjEdt0irRLgz9F/1ODnL/xPtrhbxaSazy367qguq51e3urjavmeKn33t6eOmFt0ioUr9O2Ao95dtRiHHHs0DONP8TPkTk0HiWu62WmJJ4ik9Zhn5JN2MkydioSvc3E2AeYGQeFREbGQPg2I7iOsUCQCLAqTBVsWhOZjInfy+DLQSPA0Ca+7DfFEJyxAKb0HVEKwFUwd2tHRiQWpy5RTdNU5+fnurm50c7Ojrou4gLgCmDmMwfPin//tOOdmiUSGILyPyouOo04elUoPoYARQgvaQdC0LE2w+N3MDcy712AgXkcMDJtFfHQr0g8CBXBwXP4vWzVqCStxGVmE4EZUEhgxv4BDp5H/+NJf5Pw/iW+xz+qLZjMO11eXurs7Eypd+vKvQIA+nM/B+OvW+CIdOFgnEniaCjeFAkSH1KH1HZkbOW6ljbh5EwtBONsg4L2k1YCsD0QrqcNTr6PA43txPvoYyRUHCcAiUCgzfhMvufeOlTiQQMEJIKb58XvASf9LUMRVaRp6i3FHv2e69KJuqurK11dXTWz1n2vVFyEjZEYHzT+Pznor+RoKB5Va1kCUhUHo7CrZeXUcuUMIgOM6puORpUdGR2PyHQFJkXGqGW6uE8BGLGv8d74/PgcnhsJyj2JHWwiIgUHF9rAeO7jnkhH+twGbDzoNwBLrQ03dmqpSybtf3Nz0yyLoVpx7p0bcBn+tDEhFPSjTQ8FOutdYGkTPWmhe+0EVCesD5KTWXQAwsGU5mEtBkXQQFwIHH+rQjjXvjdeBwN5Bsznt9gGRKqCYw1RYShMioyuWrUxPBt6VQE4EayxDegUT/pKX2iTsdIeZn/tfW1IepLzWTrvk3o7lDy8PYX26GebRpHnmS0E9K3rsFslB0SEGHSGFDOdqV2bMfO2nGvPu2QhU0hbdQhd6TDP5Hc6qcDYd92D3W8DhOvitVyjIAQwg5PrIkHpP9fTFw76FxnMtREgHLQBTeug4WIb9E0hCuGkf4UnHJfO65SOTFndiZkiKsrDPrgKQlYGM8fRHnsUlASfhYY4GJxC4yO/n5nOyj7JxG9EBekQAcbSVuwI39FZpCtt5R/iNZzxdwUp4dr4HJ7FwXUQgOviZyIXruX7uqUdK5sImIx54vs0gI3PACn2jf7X7zANsQ98pv+bUA+koNkJPHC04/2MIdKA/nPGvnI9NEzpPH9jB+MARn6LBZ3reKnrzc1NY4o4aCM+XGEXhjjw2vkbNFISbH3UDnSYQSn4BpHAfMc1PCfeGwkef6MPECoNEUz7uTCA77mPZ9J+WyPh9CPZkdaxPdqJWoVr0Tb0MYbL8AlBjf2Nn/k/9j+14PJsaNNodBrgoCEehtbphe2mcofQUy9MU3B4IRoD42ERsXSKa2In05b2iAiP/8czDjh5h83nM7/RHxhKH/gtC9urx1Q/fYv9iaYCAESgxz7yfwQR3ylEYRxp0IyZpx2IPMvWW1FG3j2qFzZbTlxsDdMZcx1my/80OqoFpBqfBeKCbJBUu9gGYiZh66h+v984WxCyy66GQRKRTB4IkHhuvBZmAdRI5HcNIv7WaeU54lhgQgRCHSbsYl/og0J4G/uOpPN8tRxD+sh33Ne+hv5EJzIJjnCkBXTleXzP5yzsZMmcENqF8XE9/eGZfJeE1AV0hXfw7y3NUhtxAKUMa1EYRGQCBMisJSIw4rV5q/6VDrSBxH0c3AsRGRRHHAhSHQfNuOK1EP1dTK+C+QBIJLfWrliD0BCUz7RBX3g+fY6M4R7GRDuxrdge9GNcjINxkdVNrVlKay2y7PxPe7FfcRz0MfaF/yUpqeu6/jt/5+/oX/yLf6EkSEY88jzXRx99pO9+97u6uLhQv9/Xxx9/rF/+8pf6gz/4A/V6Pc1mMx0cHGgZ9s6VwdEGQftIQznC/8nBQCMx/neO/68+/Wk0+P/jyDwf1D5SO97M9USgDIdDHR4eqrYV2Nvb06//+q/ru9/9rn7/939ff/RHf6Q8z3V9fa2rq6tWy/9nR1LXdf2P//E/1n/+z/9Z/X6/QS8ILr1ZzenpqZ4+faqJ39D55MkTnZ+f6+c//7lSV5lv+yXU1IGC0Np2OmlFWRwMPv4W1SdONb9xbDYb/fjHP1aSJDo8PNS3vvWtRi0DQCIbMpqZF8p1PCEKkdEEf/iHf6gf/OAHevr0aZO7yFx0BJDWofqs3+9r5aW8PKf2e6tT5z/oRxY2x+H+rtcFAXxoFcfd8bwSgQRgz2x+tre3VTnn1ev19IMf/EDPnj3Tl19+qRcvXqjyW0QeHh6kYHbiwfihb+QF/fp/AJqYD06Z727fAAAAAElFTkSuQmCC&quot;&gt;" style="whiteSpace=wrap;html=1;aspect=fixed;container=0;" parent="ra58XeEpIMUWKlB5J7gt-26" vertex="1">
          <mxGeometry x="405" y="5" width="130" height="130" as="geometry" />
        </mxCell>
        <mxCell id="TDeMeSc5tqtRhKriEZUa-21" value="" style="html=1;labelBackgroundColor=#ffffff;endArrow=classic;endFill=1;endSize=6;jettySize=auto;orthogonalLoop=1;strokeWidth=1;fontSize=14;rounded=0;" parent="ra58XeEpIMUWKlB5J7gt-26" edge="1">
          <mxGeometry width="60" height="60" relative="1" as="geometry">
            <mxPoint x="342" y="82" as="sourcePoint" />
            <mxPoint x="400" y="82" as="targetPoint" />
          </mxGeometry>
        </mxCell>
        <mxCell id="TDeMeSc5tqtRhKriEZUa-31" value="Structure highlighted&lt;div&gt;&amp;nbsp;image&lt;/div&gt;" style="edgeLabel;html=1;align=center;verticalAlign=middle;resizable=0;points=[];container=0;" parent="TDeMeSc5tqtRhKriEZUa-21" vertex="1" connectable="0">
          <mxGeometry x="-0.1296" relative="1" as="geometry">
            <mxPoint x="104" y="-99" as="offset" />
          </mxGeometry>
        </mxCell>
        <mxCell id="TDeMeSc5tqtRhKriEZUa-36" value="Discriminator" style="swimlane;whiteSpace=wrap;html=1;startSize=20;container=0;" parent="ra58XeEpIMUWKlB5J7gt-26" vertex="1">
          <mxGeometry x="191" y="180" width="150" height="154" as="geometry" />
        </mxCell>
        <mxCell id="ra58XeEpIMUWKlB5J7gt-17" value="" style="edgeStyle=orthogonalEdgeStyle;rounded=0;orthogonalLoop=1;jettySize=auto;html=1;" edge="1" parent="ra58XeEpIMUWKlB5J7gt-26" source="TDeMeSc5tqtRhKriEZUa-34">
          <mxGeometry relative="1" as="geometry">
            <mxPoint x="266" y="180" as="targetPoint" />
          </mxGeometry>
        </mxCell>
        <mxCell id="TDeMeSc5tqtRhKriEZUa-34" value="Generator" style="swimlane;whiteSpace=wrap;html=1;startSize=20;container=0;" parent="ra58XeEpIMUWKlB5J7gt-26" vertex="1">
          <mxGeometry x="191" width="150" height="150" as="geometry" />
        </mxCell>
        <mxCell id="ra58XeEpIMUWKlB5J7gt-12" value="Clean&amp;nbsp;&lt;span style=&quot;background-color: light-dark(#ffffff, var(--ge-dark-color, #121212)); color: light-dark(rgb(0, 0, 0), rgb(255, 255, 255));&quot;&gt;X-ray&lt;/span&gt;&lt;div&gt;&lt;span style=&quot;background-color: light-dark(#ffffff, var(--ge-dark-color, #121212)); color: light-dark(rgb(0, 0, 0), rgb(255, 255, 255));&quot;&gt;image&lt;/span&gt;&lt;/div&gt;" style="edgeLabel;html=1;align=center;verticalAlign=middle;resizable=0;points=[];container=0;" vertex="1" connectable="0" parent="ra58XeEpIMUWKlB5J7gt-26">
          <mxGeometry x="73.41323259193427" y="183.02205431989023" as="geometry">
            <mxPoint x="-1" y="-2" as="offset" />
          </mxGeometry>
        </mxCell>
        <mxCell id="ra58XeEpIMUWKlB5J7gt-15" value="" style="endArrow=classic;html=1;rounded=0;entryX=-0.018;entryY=0.449;entryDx=0;entryDy=0;entryPerimeter=0;" edge="1" parent="ra58XeEpIMUWKlB5J7gt-26" target="TDeMeSc5tqtRhKriEZUa-13">
          <mxGeometry width="50" height="50" relative="1" as="geometry">
            <mxPoint x="341" y="100" as="sourcePoint" />
            <mxPoint x="390" y="270" as="targetPoint" />
            <Array as="points">
              <mxPoint x="372" y="100" />
              <mxPoint x="372" y="261" />
            </Array>
          </mxGeometry>
        </mxCell>
        <mxCell id="ra58XeEpIMUWKlB5J7gt-18" value="" style="endArrow=classic;html=1;rounded=0;" edge="1" parent="ra58XeEpIMUWKlB5J7gt-26">
          <mxGeometry width="50" height="50" relative="1" as="geometry">
            <mxPoint x="253" y="182" as="sourcePoint" />
            <mxPoint x="253" y="150" as="targetPoint" />
          </mxGeometry>
        </mxCell>
        <mxCell id="ra58XeEpIMUWKlB5J7gt-20" value="Denoised&lt;br&gt;&lt;div&gt;&amp;nbsp;image&lt;/div&gt;" style="edgeLabel;html=1;align=center;verticalAlign=middle;resizable=0;points=[];container=0;" vertex="1" connectable="0" parent="ra58XeEpIMUWKlB5J7gt-26">
          <mxGeometry x="472" y="184" as="geometry">
            <mxPoint x="2" y="-4" as="offset" />
          </mxGeometry>
        </mxCell>
        <mxCell id="ra58XeEpIMUWKlB5J7gt-21" value="Feedback" style="edgeLabel;html=1;align=center;verticalAlign=middle;resizable=0;points=[];container=0;" vertex="1" connectable="0" parent="ra58XeEpIMUWKlB5J7gt-26">
          <mxGeometry x="224" y="168" as="geometry" />
        </mxCell>
        <mxCell id="TDeMeSc5tqtRhKriEZUa-6" value="&lt;b&gt;PatchGAN&lt;/b&gt;" style="whiteSpace=wrap;html=1;rounded=1;container=0;" parent="ra58XeEpIMUWKlB5J7gt-26" vertex="1">
          <mxGeometry x="206" y="225" width="120" height="60" as="geometry" />
        </mxCell>
        <mxCell id="ra58XeEpIMUWKlB5J7gt-10" value="" style="endArrow=classic;html=1;rounded=0;exitX=0.971;exitY=0.431;exitDx=0;exitDy=0;exitPerimeter=0;" edge="1" parent="ra58XeEpIMUWKlB5J7gt-26" source="TDeMeSc5tqtRhKriEZUa-4">
          <mxGeometry width="50" height="50" relative="1" as="geometry">
            <mxPoint x="166" y="260" as="sourcePoint" />
            <mxPoint x="191" y="260" as="targetPoint" />
          </mxGeometry>
        </mxCell>
        <mxCell id="TDeMeSc5tqtRhKriEZUa-2" value="&lt;span style=&quot;font-weight: 700;&quot;&gt;U-net with attention&lt;/span&gt;&lt;div style=&quot;font-weight: 700;&quot;&gt;and sobel layers&lt;/div&gt;" style="whiteSpace=wrap;html=1;rounded=1;container=0;" parent="ra58XeEpIMUWKlB5J7gt-26" vertex="1">
          <mxGeometry x="201" y="45" width="120" height="60" as="geometry" />
        </mxCell>
      </root>
    </mxGraphModel>
  </diagram>
</mxfile>
